<?xml version="1.0" encoding="UTF-8"?>
<!DOCTYPE svg PUBLIC "-//W3C//DTD SVG 1.1//EN" "http://www.w3.org/Graphics/SVG/1.1/DTD/svg11.dtd">
<svg xmlns="http://www.w3.org/2000/svg" version="1.1" width="270px" height="270px" style="shape-rendering:geometricPrecision; text-rendering:geometricPrecision; image-rendering:optimizeQuality; fill-rule:evenodd; clip-rule:evenodd" xmlns:xlink="http://www.w3.org/1999/xlink">
<g><path style="opacity:1" fill="#656565" d="M 8.5,3.5 C 10.1788,3.28519 11.1788,3.95186 11.5,5.5C 11.4431,6.60895 11.1098,7.60895 10.5,8.5C 10.1667,8.5 9.83333,8.5 9.5,8.5C 8.69929,6.95819 8.36596,5.29152 8.5,3.5 Z"/></g>
<g><path style="opacity:0.196" fill="#bababa" d="M 8.5,3.5 C 8.36596,5.29152 8.69929,6.95819 9.5,8.5C 9.16667,8.5 8.83333,8.5 8.5,8.5C 7.59872,7.70951 6.93205,6.70951 6.5,5.5C 7.16667,4.83333 7.83333,4.16667 8.5,3.5 Z"/></g>
<g><path style="opacity:0.675" fill="#a1a1a1" d="M 15.5,5.5 C 13.5,5.5 12.5,6.5 12.5,8.5C 11.8333,8.5 11.1667,8.5 10.5,8.5C 11.1098,7.60895 11.4431,6.60895 11.5,5.5C 12.9613,4.31434 14.2946,4.31434 15.5,5.5 Z"/></g>
<g><path style="opacity:0.998" fill="#707070" d="M 15.5,5.5 C 16.1239,5.91695 16.4573,6.58362 16.5,7.5C 16.2528,8.71335 15.5862,9.38002 14.5,9.5C 13.8333,9.16667 13.1667,8.83333 12.5,8.5C 12.5,6.5 13.5,5.5 15.5,5.5 Z"/></g>
<g><path style="opacity:0.973" fill="#9b9b9b" d="M 43.5,7.5 C 43.5,9.16667 43.5,10.8333 43.5,12.5C 43.5,12.8333 43.5,13.1667 43.5,13.5C 42.6236,13.3691 41.9569,13.7025 41.5,14.5C 41.9698,15.463 42.6365,15.463 43.5,14.5C 44.5,15.1667 45.5,15.8333 46.5,16.5C 46.5858,17.4959 46.2524,18.3292 45.5,19C 43.8016,18.5031 42.1349,18.6698 40.5,19.5C 38.8333,16.8333 37.1667,14.1667 35.5,11.5C 37.8333,9.83333 39.8333,7.83333 41.5,5.5C 42.5223,5.85549 43.189,6.52216 43.5,7.5 Z"/></g>
<g><path style="opacity:1" fill="#737373" d="M 93.5,11.5 C 93.8333,12.8333 94.1667,14.1667 94.5,15.5C 93.9094,16.1515 93.2427,16.8182 92.5,17.5C 94.3641,22.2565 93.0307,24.2565 88.5,23.5C 88.5,22.1667 88.5,20.8333 88.5,19.5C 89.6016,17.9081 88.935,17.0748 86.5,17C 85.1068,15.8289 84.2735,14.3289 84,12.5C 83.2496,13.1258 82.4162,13.6258 81.5,14C 83.0368,15.1096 83.7035,16.6096 83.5,18.5C 82.8333,18.5 82.5,18.8333 82.5,19.5C 81.8333,19.5 81.5,19.8333 81.5,20.5C 77.8622,21.2634 76.3622,19.9301 77,16.5C 77.7504,15.8742 78.5838,15.3742 79.5,15C 78.5842,14.7216 77.9175,14.2216 77.5,13.5C 77.8333,12.1667 78.1667,10.8333 78.5,9.5C 80.1347,8.18537 81.8014,8.18537 83.5,9.5C 84.4803,8.01862 85.647,6.68529 87,5.5C 88.5953,8.15003 90.762,10.15 93.5,11.5 Z M 88.5,19.5 C 87.8333,19.5 87.1667,19.5 86.5,19.5C 85.8946,17.5188 84.8946,17.1854 83.5,18.5C 83.7035,16.6096 83.0368,15.1096 81.5,14C 82.4162,13.6258 83.2496,13.1258 84,12.5C 84.2735,14.3289 85.1068,15.8289 86.5,17C 88.935,17.0748 89.6016,17.9081 88.5,19.5 Z"/></g>
<g><path style="opacity:0.996" fill="#757575" d="M 6.5,5.5 C 6.93205,6.70951 7.59872,7.70951 8.5,8.5C 8.5,9.16667 8.5,9.83333 8.5,10.5C 10.153,10.3404 11.4863,9.67373 12.5,8.5C 13.1667,8.83333 13.8333,9.16667 14.5,9.5C 16.69,10.3745 17.69,12.0411 17.5,14.5C 14.7201,14.8069 12.2201,15.8069 10,17.5C 7.32198,16.4207 5.15532,14.7541 3.5,12.5C 3.81777,11.3527 4.48444,10.5194 5.5,10C 2.7068,7.76038 3.04013,6.26038 6.5,5.5 Z M 8.5,10.5 C 8.48908,13.0009 7.82241,13.1676 6.5,11C 7.09442,10.5357 7.76109,10.369 8.5,10.5 Z M 8.5,8.5 C 8.83333,8.5 9.16667,8.5 9.5,8.5C 9.83333,8.5 10.1667,8.5 10.5,8.5C 11.1667,8.5 11.8333,8.5 12.5,8.5C 11.4863,9.67373 10.153,10.3404 8.5,10.5C 8.5,9.83333 8.5,9.16667 8.5,8.5 Z"/></g>
<g><path style="opacity:0.4" fill="#9e9e9e" d="M 45.5,7.5 C 49.6246,7.7226 50.2912,9.2226 47.5,12C 49.4951,12.9236 49.8284,14.0903 48.5,15.5C 46.0882,15.3059 45.0882,13.9726 45.5,11.5C 45.5,11.1667 45.5,10.8333 45.5,10.5C 44.1667,9.5 44.1667,8.5 45.5,7.5 Z"/></g>
<g><path style="opacity:0.251" fill="#afafaf" d="M 78.5,9.5 C 78.1667,10.8333 77.8333,12.1667 77.5,13.5C 76.1472,11.8716 76.4805,10.5383 78.5,9.5 Z"/></g>
<g><path style="opacity:0.843" fill="#a8a8a8" d="M 93.5,11.5 C 95.5195,12.5383 95.8528,13.8716 94.5,15.5C 94.1667,14.1667 93.8333,12.8333 93.5,11.5 Z"/></g>
<g><path style="opacity:1" fill="#959595" d="M 199.5,11.5 C 203.035,11.3369 204.035,12.6702 202.5,15.5C 201.167,15.5 199.833,15.5 198.5,15.5C 198.433,14.0413 198.766,12.7079 199.5,11.5 Z"/></g>
<g><path style="opacity:0.337" fill="#c5c5c5" d="M 43.5,7.5 C 44.1667,7.5 44.8333,7.5 45.5,7.5C 44.1667,8.5 44.1667,9.5 45.5,10.5C 44.1667,10.8333 44.1667,11.1667 45.5,11.5C 45.0882,13.9726 46.0882,15.3059 48.5,15.5C 48.1583,16.3382 47.4916,16.6716 46.5,16.5C 45.5,15.8333 44.5,15.1667 43.5,14.5C 43.5,14.1667 43.5,13.8333 43.5,13.5C 44.8333,13.1667 44.8333,12.8333 43.5,12.5C 43.5,10.8333 43.5,9.16667 43.5,7.5 Z"/></g>
<g><path style="opacity:0.573" fill="#a9a9a9" d="M 150.5,14.5 C 149.626,16.69 147.959,17.69 145.5,17.5C 145.5,16.5 145.5,15.5 145.5,14.5C 144.5,14.5 143.5,14.5 142.5,14.5C 143.248,12.4159 143.248,10.4159 142.5,8.5C 143.853,6.81725 145.52,5.48392 147.5,4.5C 149.325,5.65112 151.325,6.31779 153.5,6.5C 153.5,9.5 153.5,12.5 153.5,15.5C 152.209,15.7373 151.209,15.404 150.5,14.5 Z"/></g>
<g><path style="opacity:1" fill="#8d8d8d" d="M 150.5,14.5 C 150.167,13.5 149.5,12.8333 148.5,12.5C 148.5,11.8333 148.167,11.5 147.5,11.5C 147.5,11.1667 147.5,10.8333 147.5,10.5C 148.167,10.5 148.5,10.1667 148.5,9.5C 149.482,8.85917 150.482,8.19251 151.5,7.5C 151.833,8.66667 152.167,9.83333 152.5,11C 152.392,12.6811 151.725,13.8478 150.5,14.5 Z"/></g>
<g><path style="opacity:0.997" fill="#9f9f9f" d="M 199.5,11.5 C 198.766,12.7079 198.433,14.0413 198.5,15.5C 199.833,15.5 201.167,15.5 202.5,15.5C 202.389,16.1174 202.056,16.6174 201.5,17C 203.107,18.049 203.773,19.549 203.5,21.5C 202.167,21.5 200.833,21.5 199.5,21.5C 197.844,26.7181 195.677,26.7181 193,21.5C 191.612,22.5536 190.112,22.7203 188.5,22C 188.254,18.6506 188.254,15.1506 188.5,11.5C 192,10.0249 195.667,9.02492 199.5,8.5C 199.5,9.5 199.5,10.5 199.5,11.5 Z M 196.5,15.5 C 193.863,13.8462 194.197,13.3462 197.5,14C 196.944,14.3826 196.611,14.8826 196.5,15.5 Z M 196.5,15.5 C 197.289,15.7828 197.956,16.2828 198.5,17C 197.184,17.5281 196.517,17.0281 196.5,15.5 Z M 195.5,19.5 C 196.077,18.2267 196.743,18.2267 197.5,19.5C 197.03,20.463 196.363,20.463 195.5,19.5 Z"/></g>
<g><path style="opacity:1" fill="#7b7b7b" d="M 253.5,5.5 C 255.839,7.50655 258.172,9.50655 260.5,11.5C 259.91,12.7989 258.91,13.6322 257.5,14C 258.833,15.6667 258.833,17.3333 257.5,19C 254.939,18.5988 252.272,18.7655 249.5,19.5C 249.5,18.5 249.5,17.5 249.5,16.5C 245.348,16.3692 244.682,14.8692 247.5,12C 246.18,9.78497 246.847,8.28497 249.5,7.5C 251.345,8.39458 252.678,7.72791 253.5,5.5 Z M 251.5,12.5 C 252.5,12.8333 253.167,13.5 253.5,14.5C 252.167,14.5 251.5,13.8333 251.5,12.5 Z"/></g>
<g><path style="opacity:1" fill="#6e6e6e" d="M 86.5,19.5 C 86.5,20.5 86.5,21.5 86.5,22.5C 83.3464,26.7682 81.6798,26.1015 81.5,20.5C 82.1667,20.5 82.5,20.1667 82.5,19.5C 83.1667,19.5 83.5,19.1667 83.5,18.5C 84.8946,17.1854 85.8946,17.5188 86.5,19.5 Z"/></g>
<g><path style="opacity:0.412" fill="#a6a6a6" d="M 86.5,19.5 C 87.1667,19.5 87.8333,19.5 88.5,19.5C 88.5,20.8333 88.5,22.1667 88.5,23.5C 87.8333,23.1667 87.1667,22.8333 86.5,22.5C 86.5,21.5 86.5,20.5 86.5,19.5 Z"/></g>
<g><path style="opacity:0.995" fill="#989898" d="M 223.5,21.5 C 224.552,21.3505 225.552,21.5172 226.5,22C 227.833,24.6667 229.833,26.6667 232.5,28C 236.673,28.9791 240.839,29.8125 245,30.5C 245.667,31.8333 245.667,33.1667 245,34.5C 243.13,36.2484 241.963,38.4151 241.5,41C 238.006,41.8614 235.673,40.5281 234.5,37C 231.009,34.1479 227.175,33.3145 223,34.5C 219.745,34.2547 218.412,32.588 219,29.5C 220.677,26.894 222.177,24.2273 223.5,21.5 Z"/></g>
<g><path style="opacity:0.998" fill="#9e9e9e" d="M 126.5,23.5 C 129.088,25.0798 131.422,27.0798 133.5,29.5C 133.023,30.4776 132.357,31.3109 131.5,32C 134.318,34.8692 133.652,36.3692 129.5,36.5C 129.5,37.5 129.5,38.5 129.5,39.5C 126.675,39.9193 124.509,38.9193 123,36.5C 121.022,37.8163 119.522,37.3163 118.5,35C 119.833,33 119.833,31 118.5,29C 119.629,26.8322 121.129,26.3322 123,27.5C 123.69,25.6498 124.856,24.3164 126.5,23.5 Z M 125.5,28.5 C 128.399,30.1706 128.733,32.1706 126.5,34.5C 126.728,32.7024 126.394,30.7024 125.5,28.5 Z"/></g>
<g><path style="opacity:1" fill="#9a9a9a" d="M 161.5,25.5 C 163.144,25.2865 164.644,25.6198 166,26.5C 166.175,32.1896 168.842,36.1896 174,38.5C 174.781,39.9437 174.614,41.277 173.5,42.5C 171.06,43.2378 169.06,44.5712 167.5,46.5C 166.522,46.0233 165.689,45.3567 165,44.5C 164.75,41.2464 163.75,38.2464 162,35.5C 159.285,35.0459 157.452,33.5459 156.5,31C 158.484,29.4109 160.151,27.5776 161.5,25.5 Z"/></g>
<g><path style="opacity:1" fill="#bfbfbf" d="M 92.5,36.5 C 93.8734,36.3433 95.2068,36.51 96.5,37C 99.608,41.8877 103.941,44.0544 109.5,43.5C 109.833,44.1667 110.167,44.8333 110.5,45.5C 108.06,47.6401 106.727,50.1401 106.5,53C 105.833,53.6667 105.167,53.6667 104.5,53C 101.131,48.1481 96.4648,45.6481 90.5,45.5C 89.2747,43.1567 89.9414,41.3234 92.5,40C 91.3157,38.8545 91.3157,37.6879 92.5,36.5 Z"/></g>
<g><path style="opacity:0.998" fill="#999999" d="M 45.5,38.5 C 47.4918,38.3285 49.1585,38.9951 50.5,40.5C 52.5485,39.6745 54.2151,40.3411 55.5,42.5C 54.5267,44.64 53.0267,46.3067 51,47.5C 49.8468,50.7111 49.1802,54.0445 49,57.5C 46.9659,59.5598 44.9659,59.2265 43,56.5C 40.9154,57.6469 39.4154,56.9803 38.5,54.5C 40.1774,52.3241 42.0107,50.3241 44,48.5C 44.8527,45.2134 45.3527,41.88 45.5,38.5 Z"/></g>
<g><path style="opacity:0.999" fill="#9a9a9a" d="M 13.5,48.5 C 14.8734,48.3433 16.2068,48.51 17.5,49C 19.6734,52.3388 22.3401,55.1722 25.5,57.5C 24.2214,59.1461 22.5547,60.3128 20.5,61C 23.4079,64.5417 22.7412,67.375 18.5,69.5C 17.1861,68.6872 16.0195,67.6872 15,66.5C 14.0508,69.1997 12.2175,70.033 9.5,69C 8.61983,67.6439 8.28649,66.1439 8.5,64.5C 4.09098,65.101 2.75765,63.4343 4.5,59.5C 5.5,59 6.5,58.5 7.5,58C 3.2104,57.1317 2.54373,55.1317 5.5,52C 8.02502,51.1041 10.1917,51.6041 12,53.5C 12.3519,51.7525 12.8519,50.0858 13.5,48.5 Z M 11.5,56.5 C 12.8989,59.3903 15.2323,60.8903 18.5,61C 17.2986,61.9025 16.4652,63.0692 16,64.5C 15.4115,62.1367 13.9115,61.1367 11.5,61.5C 11.5,60.5 11.5,59.5 11.5,58.5C 7.71135,58.2627 7.71135,57.5961 11.5,56.5 Z"/></g>
<g><path style="opacity:0.612" fill="#a1a1a1" d="M 67.5,49.5 C 69.0682,51.9312 70.5682,51.9312 72,49.5C 73,51.1667 74.3333,52.5 76,53.5C 76.8651,55.8878 76.0317,57.3878 73.5,58C 74.3366,59.0113 74.67,60.1779 74.5,61.5C 71.622,60.7457 68.7886,60.4124 66,60.5C 65.3828,59.5509 65.5494,58.7175 66.5,58C 64.8198,57.6532 63.8198,56.6532 63.5,55C 65.0051,53.3227 66.3384,51.4894 67.5,49.5 Z M 67.5,54.5 C 73.8532,54.4526 74.0199,55.1192 68,56.5C 67.5357,55.9056 67.369,55.2389 67.5,54.5 Z"/></g>
<g><path style="opacity:0.569" fill="#a3a3a3" d="M 140.5,53.5 C 138.952,53.8212 138.285,54.8212 138.5,56.5C 138.167,56.5 137.833,56.5 137.5,56.5C 137.167,55.8333 136.833,55.1667 136.5,54.5C 137.156,53.7222 137.989,53.0556 139,52.5C 139.765,52.5699 140.265,52.9033 140.5,53.5 Z"/></g>
<g><path style="opacity:1" fill="#747474" d="M 260.5,60.5 C 259.167,60.1667 257.833,59.8333 256.5,59.5C 256.539,57.7761 256.206,57.4427 255.5,58.5C 254.469,59.355 253.303,60.0217 252,60.5C 250.97,60.1639 250.47,59.4972 250.5,58.5C 249.962,56.8828 249.629,55.2161 249.5,53.5C 252.168,53.3337 254.502,52.3337 256.5,50.5C 257.695,52.297 259.362,53.297 261.5,53.5C 261.64,55.1238 260.973,56.2904 259.5,57C 261.495,57.9236 261.828,59.0903 260.5,60.5 Z"/></g>
<g><path style="opacity:0.427" fill="#999999" d="M 250.5,58.5 C 250.47,59.4972 250.97,60.1639 252,60.5C 253.303,60.0217 254.469,59.355 255.5,58.5C 255.5,59.1667 255.833,59.5 256.5,59.5C 257.833,59.8333 259.167,60.1667 260.5,60.5C 258.909,62.9855 256.909,63.6522 254.5,62.5C 252.958,61.6993 251.292,61.366 249.5,61.5C 249.263,60.209 249.596,59.209 250.5,58.5 Z"/></g>
<g><path style="opacity:1" fill="#4f4f4f" d="M 254.5,62.5 C 254.947,60.0268 255.947,59.8601 257.5,62C 256.552,62.4828 255.552,62.6495 254.5,62.5 Z"/></g>
<g><path style="opacity:1" fill="#7a7a7a" d="M 136.5,54.5 C 136.833,55.1667 137.167,55.8333 137.5,56.5C 137.5,57.1667 137.5,57.8333 137.5,58.5C 138.338,58.1583 138.672,57.4916 138.5,56.5C 140.048,56.1788 140.715,55.1788 140.5,53.5C 141.201,55.7019 142.534,57.5353 144.5,59C 142.546,60.7411 141.546,62.9078 141.5,65.5C 138.838,64.3607 136.171,64.1941 133.5,65C 133.383,62.5699 132.716,60.0699 131.5,57.5C 132.552,57.6495 133.552,57.4828 134.5,57C 133.167,56 133.167,55 134.5,54C 135.437,53.3083 136.103,53.475 136.5,54.5 Z M 137.5,58.5 C 137.728,60.3547 137.061,61.1881 135.5,61C 136.066,60.0053 136.733,59.172 137.5,58.5 Z"/></g>
<g><path style="opacity:1" fill="#525252" d="M 140.5,53.5 C 140.715,55.1788 140.048,56.1788 138.5,56.5C 138.285,54.8212 138.952,53.8212 140.5,53.5 Z"/></g>
<g><path style="opacity:1" fill="#9d9d9d" d="M 207.5,52.5 C 209.143,52.4802 210.476,53.1468 211.5,54.5C 215.508,53.1798 216.841,54.5131 215.5,58.5C 218.215,60.5505 218.048,62.2172 215,63.5C 214.667,63.1667 214.333,62.8333 214,62.5C 213.51,63.7932 213.343,65.1266 213.5,66.5C 211.61,66.7035 210.11,66.0368 209,64.5C 207.846,66.9574 206.512,66.9574 205,64.5C 204.316,63.2161 204.483,62.0495 205.5,61C 204.09,60.6322 203.09,59.7989 202.5,58.5C 204.449,56.7031 206.116,54.7031 207.5,52.5 Z M 211.5,58.5 C 211.019,61.5643 209.686,62.3976 207.5,61C 208.984,60.3378 210.317,59.5045 211.5,58.5 Z"/></g>
<g><path style="opacity:1" fill="#9c9c9c" d="M 168.5,62.5 C 172.167,62.5 175.833,62.5 179.5,62.5C 179.67,63.8221 179.337,64.9887 178.5,66C 181.754,67.518 182.254,69.6846 180,72.5C 179.667,72.1667 179.333,71.8333 179,71.5C 178.51,72.7932 178.343,74.1266 178.5,75.5C 175.838,74.3607 173.171,74.1941 170.5,75C 165.828,72.3596 165.495,69.3596 169.5,66C 168.663,64.9887 168.33,63.8221 168.5,62.5 Z M 175.5,69.5 C 176.077,68.2267 176.743,68.2267 177.5,69.5C 177.03,70.463 176.363,70.463 175.5,69.5 Z M 175.5,69.5 C 174.292,70.782 172.958,70.782 171.5,69.5C 172.557,69.0941 173.891,69.0941 175.5,69.5 Z"/></g>
<g><path style="opacity:0.451" fill="#a8a8a8" d="M 103.5,72.5 C 102.167,72.5 101.5,73.1667 101.5,74.5C 100.596,73.791 100.263,72.791 100.5,71.5C 101.791,71.2627 102.791,71.596 103.5,72.5 Z"/></g>
<g><path style="opacity:1" fill="#676767" d="M 108.5,75.5 C 107.5,75.8333 106.833,76.5 106.5,77.5C 106.5,77.8333 106.5,78.1667 106.5,78.5C 105.833,78.5 105.167,78.5 104.5,78.5C 104.5,77.8333 104.167,77.5 103.5,77.5C 103.167,76.5 102.5,75.8333 101.5,75.5C 101.5,75.1667 101.5,74.8333 101.5,74.5C 101.5,73.1667 102.167,72.5 103.5,72.5C 105.226,72.1854 106.893,72.0187 108.5,72C 109.684,73.1455 109.684,74.3121 108.5,75.5 Z"/></g>
<g><path style="opacity:0.275" fill="#a5a5a5" d="M 100.5,76.5 C 100.5,75.8333 100.833,75.5 101.5,75.5C 102.5,75.8333 103.167,76.5 103.5,77.5C 103.167,77.5 102.833,77.5 102.5,77.5C 101.833,77.1667 101.167,76.8333 100.5,76.5 Z"/></g>
<g><path style="opacity:0.318" fill="#a8a8a8" d="M 108.5,75.5 C 109.492,75.3284 110.158,75.6618 110.5,76.5C 108.158,77.2107 107.825,78.544 109.5,80.5C 109.737,81.791 109.404,82.791 108.5,83.5C 108.771,81.6203 108.104,80.287 106.5,79.5C 106.5,79.1667 106.5,78.8333 106.5,78.5C 107.833,78.1667 107.833,77.8333 106.5,77.5C 106.833,76.5 107.5,75.8333 108.5,75.5 Z"/></g>
<g><path style="opacity:1" fill="#6b6b6b" d="M 100.5,76.5 C 101.167,76.8333 101.833,77.1667 102.5,77.5C 102.5,77.8333 102.5,78.1667 102.5,78.5C 101.662,78.8417 101.328,79.5084 101.5,80.5C 100.5,80.5 99.5,80.5 98.5,80.5C 98.2291,78.6203 98.8958,77.287 100.5,76.5 Z"/></g>
<g><path style="opacity:0.122" fill="#b4b4b4" d="M 102.5,78.5 C 103.167,78.5 103.833,78.5 104.5,78.5C 104.5,78.8333 104.5,79.1667 104.5,79.5C 103.391,79.5569 102.391,79.8902 101.5,80.5C 101.328,79.5084 101.662,78.8417 102.5,78.5 Z"/></g>
<g><path style="opacity:0.999" fill="#989898" d="M 79.5,77.5 C 82.0668,78.6728 84.7334,79.8394 87.5,81C 88.0219,81.5613 88.3552,82.228 88.5,83C 86.8686,84.9262 85.0353,86.7596 83,88.5C 81.8732,91.3771 81.2065,94.3771 81,97.5C 80.4387,98.0219 79.772,98.3552 79,98.5C 75.9962,97.4621 73.4962,95.7955 71.5,93.5C 72.8567,91.1989 74.6901,89.1989 77,87.5C 77.9433,84.1555 78.7766,80.8221 79.5,77.5 Z"/></g>
<g><path style="opacity:0.725" fill="#686868" d="M 110.5,76.5 C 111.124,76.9169 111.457,77.5836 111.5,78.5C 111.253,79.7133 110.586,80.38 109.5,80.5C 107.825,78.544 108.158,77.2107 110.5,76.5 Z"/></g>
<g><path style="opacity:1" fill="#989898" d="M 244.5,77.5 C 245.822,77.33 246.989,77.6634 248,78.5C 247.833,81.6667 247.667,84.8333 247.5,88C 244.705,87.7093 241.871,87.2093 239,86.5C 236.23,86.7567 233.73,87.7567 231.5,89.5C 230.522,89.0233 229.689,88.3567 229,87.5C 229.155,84.6498 229.321,81.8165 229.5,79C 232.433,78.7042 235.266,79.2042 238,80.5C 240.675,80.3427 242.841,79.3427 244.5,77.5 Z"/></g>
<g><path style="opacity:1" fill="#6d6d6d" d="M 104.5,79.5 C 105.167,79.5 105.833,79.5 106.5,79.5C 108.104,80.287 108.771,81.6203 108.5,83.5C 107.12,84.7065 105.953,84.3731 105,82.5C 102.607,84.994 101.44,84.3273 101.5,80.5C 102.391,79.8902 103.391,79.5569 104.5,79.5 Z"/></g>
<g><path style="opacity:0.993" fill="#bebebe" d="M 138.5,80.5 C 141.86,79.7904 143.693,81.1238 144,84.5C 147.075,85.4691 148.075,87.4691 147,90.5C 140.278,91.2389 136.111,94.7389 134.5,101C 132.833,101.667 131.167,101.667 129.5,101C 128.648,98.6383 127.148,96.8049 125,95.5C 124.333,94.1667 124.333,92.8333 125,91.5C 132.191,91.0043 136.691,87.3376 138.5,80.5 Z"/></g>
<g><path style="opacity:1" fill="#a1a1a1" d="M 49.5,83.5 C 50.552,83.3505 51.552,83.5172 52.5,84C 53.553,86.2462 54.8863,88.2462 56.5,90C 55.0716,92.135 53.7383,94.3017 52.5,96.5C 51.5224,96.0233 50.6891,95.3567 50,94.5C 48.806,96.5254 47.306,96.8587 45.5,95.5C 45.1729,93.3328 44.5063,90.9994 43.5,88.5C 44.552,88.6495 45.552,88.4828 46.5,88C 45.6634,86.9887 45.33,85.8221 45.5,84.5C 46.8221,84.33 47.9887,84.6634 49,85.5C 49.4643,84.9056 49.631,84.2389 49.5,83.5 Z"/></g>
<g><path style="opacity:0.984" fill="#7a7a7a" d="M 16.5,101.5 C 16.5,100.5 16.5,99.5 16.5,98.5C 15.5,98.5 14.5,98.5 13.5,98.5C 14.463,97.6365 14.463,96.9698 13.5,96.5C 12.5748,97.3569 11.9081,98.3569 11.5,99.5C 12.1667,99.5 12.8333,99.5 13.5,99.5C 14.5,99.8333 15.1667,100.5 15.5,101.5C 15.2169,102.216 14.8836,103.049 14.5,104C 12.3901,103.653 10.3901,103.82 8.5,104.5C 8.16667,103.167 7.83333,101.833 7.5,100.5C 6.33977,99.735 5.33977,98.735 4.5,97.5C 6.81685,95.684 8.98352,93.684 11,91.5C 11.9147,92.3279 12.5814,93.3279 13,94.5C 14.3333,93.1667 15.6667,93.1667 17,94.5C 17.346,96.2182 17.846,97.8849 18.5,99.5C 18.1445,100.522 17.4778,101.189 16.5,101.5 Z M 13.5,98.5 C 13.5,98.8333 13.5,99.1667 13.5,99.5C 12.8333,99.5 12.1667,99.5 11.5,99.5C 11.9081,98.3569 12.5748,97.3569 13.5,96.5C 14.463,96.9698 14.463,97.6365 13.5,98.5 Z"/></g>
<g><path style="opacity:1" fill="#9a9a9a" d="M 169.5,90.5 C 173.17,90.3266 175.67,91.9933 177,95.5C 178.667,94.1667 180.333,94.1667 182,95.5C 181.342,98.9992 181.508,102.499 182.5,106C 181.536,108.598 179.87,109.098 177.5,107.5C 175.747,109.261 173.747,110.594 171.5,111.5C 169.085,111.281 168.085,109.948 168.5,107.5C 165.873,107.707 164.207,106.54 163.5,104C 164.093,102.118 165.427,101.118 167.5,101C 162.087,97.9877 162.42,95.8211 168.5,94.5C 168.433,93.0413 168.766,91.7079 169.5,90.5 Z M 173.5,97.5 C 171.83,100.306 172.163,102.806 174.5,105C 173.207,105.49 171.873,105.657 170.5,105.5C 171.952,103.226 171.285,101.726 168.5,101C 171.124,100.424 171.791,99.0902 170.5,97C 171.577,96.5304 172.577,96.6971 173.5,97.5 Z"/></g>
<g><path style="opacity:1" fill="#9c9c9c" d="M 199.5,86.5 C 201.017,86.5106 202.184,87.1772 203,88.5C 204.223,86.0147 205.723,85.848 207.5,88C 207.167,88.3333 206.833,88.6667 206.5,89C 207.448,89.4828 208.448,89.6495 209.5,89.5C 210.035,92.2385 209.035,94.0718 206.5,95C 207.337,96.0113 207.67,97.1779 207.5,98.5C 204.542,97.4589 201.542,97.4589 198.5,98.5C 198.33,97.1779 198.663,96.0113 199.5,95C 197.59,94.5917 196.59,93.4251 196.5,91.5C 197.527,89.816 198.527,88.1494 199.5,86.5 Z M 202.5,90.5 C 203.473,90.9867 204.473,91.4867 205.5,92C 203.899,92.2734 202.399,92.7734 201,93.5C 200.761,92.212 201.261,91.212 202.5,90.5 Z"/></g>
<g><path style="opacity:1" fill="#545454" d="M 13.5,99.5 C 13.5,99.1667 13.5,98.8333 13.5,98.5C 14.5,98.5 15.5,98.5 16.5,98.5C 16.5,99.5 16.5,100.5 16.5,101.5C 16.1667,101.5 15.8333,101.5 15.5,101.5C 15.1667,100.5 14.5,99.8333 13.5,99.5 Z"/></g>
<g><path style="opacity:0.204" fill="#adadad" d="M 7.5,100.5 C 7.83333,101.833 8.16667,103.167 8.5,104.5C 6.48052,103.462 6.14719,102.128 7.5,100.5 Z"/></g>
<g><path style="opacity:1" fill="#9b9b9b" d="M 252.5,99.5 C 255.5,100.833 258.5,100.833 261.5,99.5C 261.714,101.144 261.38,102.644 260.5,104C 263.876,104.307 265.21,106.14 264.5,109.5C 263.5,109.5 262.5,109.5 261.5,109.5C 261.369,113.652 259.869,114.318 257,111.5C 254.131,114.318 252.631,113.652 252.5,109.5C 251.5,109.5 250.5,109.5 249.5,109.5C 249.022,106.722 250.022,104.722 252.5,103.5C 251.193,102.135 251.193,100.802 252.5,99.5 Z M 254.5,107.5 C 255.946,106.387 257.613,106.22 259.5,107C 258.584,107.374 257.75,107.874 257,108.5C 256.329,107.748 255.496,107.414 254.5,107.5 Z"/></g>
<g><path style="opacity:0.749" fill="#a5a5a5" d="M 219.5,113.5 C 218.391,113.557 217.391,113.89 216.5,114.5C 217.053,112.448 218.053,112.115 219.5,113.5 Z"/></g>
<g><path style="opacity:1" fill="#737373" d="M 219.5,113.5 C 220.222,113.918 220.722,114.584 221,115.5C 223.48,113.91 225.313,114.41 226.5,117C 226.095,117.945 225.428,118.612 224.5,119C 225.574,119.739 226.241,120.739 226.5,122C 224.888,123.482 223.888,125.315 223.5,127.5C 221.901,127.768 220.568,127.434 219.5,126.5C 219.5,125.167 219.5,123.833 219.5,122.5C 219.158,121.662 218.492,121.328 217.5,121.5C 216.5,121.5 215.5,121.5 214.5,121.5C 212.748,121.582 211.748,120.749 211.5,119C 213.207,117.491 214.873,115.991 216.5,114.5C 217.391,113.89 218.391,113.557 219.5,113.5 Z M 220.5,120.5 C 220.202,117.664 220.869,117.164 222.5,119C 221.956,119.717 221.289,120.217 220.5,120.5 Z"/></g>
<g><path style="opacity:1" fill="#a3a3a3" d="M 79.5,111.5 C 82.1667,112.833 84.8333,112.833 87.5,111.5C 87.5,112.5 87.5,113.5 87.5,114.5C 88.5,114.5 89.5,114.5 90.5,114.5C 91.0352,117.238 90.0352,119.072 87.5,120C 88.3366,121.011 88.67,122.178 88.5,123.5C 85.5,122.167 82.5,122.167 79.5,123.5C 79.4292,120.861 78.4292,118.694 76.5,117C 78.1119,115.518 79.1119,113.685 79.5,111.5 Z"/></g>
<g><path style="opacity:0.999" fill="#999999" d="M 21.5,118.5 C 24.4872,118.948 25.4872,120.448 24.5,123C 27.3838,124.037 28.0504,125.871 26.5,128.5C 20.2738,128.695 15.4405,131.362 12,136.5C 10.2371,133.947 8.4038,131.447 6.5,129C 6.66667,128.5 6.83333,128 7,127.5C 10.4855,127.192 13.9855,126.026 17.5,124C 18.965,122.226 20.2983,120.392 21.5,118.5 Z"/></g>
<g><path style="opacity:0.939" fill="#9c9c9c" d="M 125.5,118.5 C 128.292,118.452 130.125,119.785 131,122.5C 133.476,120.185 135.809,120.518 138,123.5C 138.271,125.807 137.105,126.974 134.5,127C 137.591,127.691 138.757,129.524 138,132.5C 136.644,133.38 135.144,133.714 133.5,133.5C 134.263,137.138 132.93,138.638 129.5,138C 128.874,137.25 128.374,136.416 128,135.5C 124.615,139.741 122.449,139.074 121.5,133.5C 121.818,132.353 122.484,131.519 123.5,131C 120.928,130.758 119.261,129.425 118.5,127C 122.118,125.216 124.451,122.383 125.5,118.5 Z M 130.5,125.5 C 131.756,125.461 132.756,125.961 133.5,127C 132.033,128.098 131.199,129.598 131,131.5C 129.657,130.786 128.324,131.12 127,132.5C 126.5,132 126,131.5 125.5,131C 128.421,130.248 130.087,128.415 130.5,125.5 Z"/></g>
<g><path style="opacity:0.631" fill="#a0a0a0" d="M 214.5,121.5 C 215.5,121.5 216.5,121.5 217.5,121.5C 217.5,122.167 217.5,122.833 217.5,123.5C 215.632,122.326 214.632,122.993 214.5,125.5C 213.314,124.295 213.314,122.961 214.5,121.5 Z"/></g>
<g><path style="opacity:1" fill="#9a9a9a" d="M 164.5,121.5 C 167.275,123.812 170.275,125.979 173.5,128C 176.095,128.226 178.595,128.726 181,129.5C 180.185,132.363 179.351,135.029 178.5,137.5C 177.277,138.614 175.944,138.781 174.5,138C 172.699,134.513 169.866,132.346 166,131.5C 162.07,133.033 160.404,131.7 161,127.5C 163.109,126.965 163.609,125.965 162.5,124.5C 163.193,123.482 163.859,122.482 164.5,121.5 Z"/></g>
<g><path style="opacity:1" fill="#5b5b5b" d="M 217.5,123.5 C 217.5,124.5 217.5,125.5 217.5,126.5C 216.5,126.5 215.5,126.5 214.5,126.5C 214.5,126.167 214.5,125.833 214.5,125.5C 214.632,122.993 215.632,122.326 217.5,123.5 Z"/></g>
<g><path style="opacity:0.553" fill="#969696" d="M 219.5,122.5 C 219.5,123.833 219.5,125.167 219.5,126.5C 217.716,127.72 216.05,127.72 214.5,126.5C 215.5,126.5 216.5,126.5 217.5,126.5C 217.5,125.5 217.5,124.5 217.5,123.5C 218.167,123.167 218.833,122.833 219.5,122.5 Z"/></g>
<g><path style="opacity:0.361" fill="#c0c0c0" d="M 42.5,131.5 C 41.438,133.234 41.438,134.901 42.5,136.5C 42.5,136.833 42.5,137.167 42.5,137.5C 40.8583,135.919 38.8583,135.253 36.5,135.5C 36.5,136.5 36.5,137.5 36.5,138.5C 35.5655,137.432 35.2322,136.099 35.5,134.5C 38.438,134.727 40.7713,133.727 42.5,131.5 Z"/></g>
<g><path style="opacity:1" fill="#8f8f8f" d="M 46.5,131.5 C 46.6085,133.514 45.9418,135.18 44.5,136.5C 43.8333,136.5 43.1667,136.5 42.5,136.5C 41.438,134.901 41.438,133.234 42.5,131.5C 43.8333,130.167 45.1667,130.167 46.5,131.5 Z"/></g>
<g><path style="opacity:0.235" fill="#c5c5c5" d="M 46.5,131.5 C 47.1667,132.5 47.8333,133.5 48.5,134.5C 46.7706,135.236 45.7706,136.57 45.5,138.5C 44.6618,138.158 44.3284,137.492 44.5,136.5C 45.9418,135.18 46.6085,133.514 46.5,131.5 Z"/></g>
<g><path style="opacity:0.92" fill="#9a9a9a" d="M 48.5,134.5 C 52.4762,136.134 52.4762,137.967 48.5,140C 51.3463,140.879 52.013,142.546 50.5,145C 49.552,145.483 48.552,145.649 47.5,145.5C 47.5391,147.359 46.7058,148.692 45,149.5C 43.0266,148.36 41.1933,147.027 39.5,145.5C 38.549,146.326 37.549,146.492 36.5,146C 35.8641,143.606 35.8641,141.106 36.5,138.5C 36.5,137.5 36.5,136.5 36.5,135.5C 38.8583,135.253 40.8583,135.919 42.5,137.5C 43.807,139.223 43.807,141.057 42.5,143C 43.5,143.667 44.5,143.667 45.5,143C 45.4022,141.382 45.4022,139.882 45.5,138.5C 45.7706,136.57 46.7706,135.236 48.5,134.5 Z M 42.5,137.5 C 42.5,137.167 42.5,136.833 42.5,136.5C 43.1667,136.5 43.8333,136.5 44.5,136.5C 44.3284,137.492 44.6618,138.158 45.5,138.5C 45.4022,139.882 45.4022,141.382 45.5,143C 44.5,143.667 43.5,143.667 42.5,143C 43.807,141.057 43.807,139.223 42.5,137.5 Z"/></g>
<g><path style="opacity:1" fill="#bebebe" d="M 95.5,135.5 C 99.7069,135.694 101.04,137.694 99.5,141.5C 101.533,143.452 101.866,145.618 100.5,148C 95.856,147.709 91.1893,147.709 86.5,148C 84.3228,149.515 82.1561,151.015 80,152.5C 76.6548,151.281 75.8214,149.114 77.5,146C 75.3985,144.267 75.0652,142.267 76.5,140C 80.4841,140.186 84.4841,140.186 88.5,140C 91.2565,139.062 93.5899,137.562 95.5,135.5 Z"/></g>
<g><path style="opacity:1" fill="#bfbfbf" d="M 217.5,145.5 C 219.489,147.135 221.489,148.802 223.5,150.5C 224.614,151.723 224.781,153.056 224,154.5C 218.116,155.384 214.449,158.717 213,164.5C 211.951,165.517 210.784,165.684 209.5,165C 208.535,162.381 206.868,160.381 204.5,159C 204.667,158.5 204.833,158 205,157.5C 207.844,156.074 210.678,154.574 213.5,153C 214.746,150.407 216.079,147.907 217.5,145.5 Z"/></g>
<g><path style="opacity:0.231" fill="#adadad" d="M 242.5,157.5 C 241.89,158.391 241.557,159.391 241.5,160.5C 240.115,159.053 240.448,158.053 242.5,157.5 Z"/></g>
<g><path style="opacity:1" fill="#6f6f6f" d="M 252.5,166.5 C 251.504,166.586 250.671,166.252 250,165.5C 249.503,163.19 249.337,160.857 249.5,158.5C 250.736,156.172 252.736,155.006 255.5,155C 254.874,154.25 254.374,153.416 254,152.5C 252.921,154.394 251.587,154.727 250,153.5C 249.348,155.723 247.848,156.89 245.5,157C 246.381,157.708 247.047,158.542 247.5,159.5C 247.5,160.5 247.5,161.5 247.5,162.5C 244.803,164.045 242.803,163.379 241.5,160.5C 241.557,159.391 241.89,158.391 242.5,157.5C 244.628,156.719 244.795,155.719 243,154.5C 242.275,149.411 243.942,148.411 248,151.5C 248.976,144.798 251.309,144.132 255,149.5C 258.084,146.858 259.917,147.691 260.5,152C 260.646,154.188 259.646,155.521 257.5,156C 260.89,157.006 261.89,159.006 260.5,162C 257.352,162.738 254.685,164.238 252.5,166.5 Z M 249.5,158.5 C 248.833,158.833 248.167,159.167 247.5,159.5C 247.047,158.542 246.381,157.708 245.5,157C 247.848,156.89 249.348,155.723 250,153.5C 251.587,154.727 252.921,154.394 254,152.5C 254.374,153.416 254.874,154.25 255.5,155C 252.736,155.006 250.736,156.172 249.5,158.5 Z"/></g>
<g><path style="opacity:0.684" fill="#999999" d="M 249.5,158.5 C 249.337,160.857 249.503,163.19 250,165.5C 250.671,166.252 251.504,166.586 252.5,166.5C 251.749,167.573 250.749,167.74 249.5,167C 248.901,165.378 248.234,163.878 247.5,162.5C 247.5,161.5 247.5,160.5 247.5,159.5C 248.167,159.167 248.833,158.833 249.5,158.5 Z"/></g>
<g><path style="opacity:1" fill="#9f9f9f" d="M 9.5,156.5 C 11.8333,157.833 14.1667,157.833 16.5,156.5C 16.5,157.5 16.5,158.5 16.5,159.5C 17.5,159.5 18.5,159.5 19.5,159.5C 19.607,161.903 18.607,163.736 16.5,165C 17.4506,165.718 17.6172,166.551 17,167.5C 15.0932,167.421 13.0932,167.754 11,168.5C 9.95907,165.887 8.45907,163.554 6.5,161.5C 8.29702,160.305 9.29702,158.638 9.5,156.5 Z"/></g>
<g><path style="opacity:1" fill="#a2a2a2" d="M 172.5,153.5 C 175.833,153.5 179.167,153.5 182.5,153.5C 182.67,154.822 182.337,155.989 181.5,157C 183.513,157.68 184.846,159.013 185.5,161C 183.766,163.001 181.933,164.834 180,166.5C 177.882,165.804 175.716,165.637 173.5,166C 168.315,162.843 168.315,159.843 173.5,157C 172.663,155.989 172.33,154.822 172.5,153.5 Z"/></g>
<g><path style="opacity:1" fill="#9a9a9a" d="M 103.5,167.5 C 102.833,167.5 102.5,167.833 102.5,168.5C 101.833,168.5 101.5,168.833 101.5,169.5C 99.2258,170.952 97.7258,170.285 97,167.5C 96.2742,170.285 94.7742,170.952 92.5,169.5C 92.5,168.833 92.1667,168.5 91.5,168.5C 91.5,167.833 91.1667,167.5 90.5,167.5C 91.1721,160.731 93.3388,160.065 97,165.5C 100.661,160.065 102.828,160.731 103.5,167.5 Z"/></g>
<g><path style="opacity:1" fill="#9a9a9a" d="M 56.5,165.5 C 58.1439,165.286 59.6439,165.62 61,166.5C 61.3333,169.5 61.6667,172.5 62,175.5C 68.6483,181.24 67.6483,184.906 59,186.5C 56.3351,185.177 55.8351,183.177 57.5,180.5C 56.7643,178.459 55.9309,176.459 55,174.5C 52.8333,173.667 51.3333,172.167 50.5,170C 52.6635,168.509 54.6635,167.009 56.5,165.5 Z"/></g>
<g><path style="opacity:0.989" fill="#989898" d="M 103.5,167.5 C 104.833,167.5 106.167,167.5 107.5,167.5C 108.226,171.26 106.893,173.927 103.5,175.5C 103.5,174.833 103.167,174.5 102.5,174.5C 102.5,173.833 102.167,173.5 101.5,173.5C 101.5,172.167 101.5,170.833 101.5,169.5C 102.167,169.5 102.5,169.167 102.5,168.5C 103.167,168.5 103.5,168.167 103.5,167.5 Z"/></g>
<g><path style="opacity:1" fill="#979797" d="M 90.5,167.5 C 91.1667,167.5 91.5,167.833 91.5,168.5C 92.1667,168.5 92.5,168.833 92.5,169.5C 93.085,172.622 94.7517,173.289 97.5,171.5C 99.0729,171.752 100.406,172.418 101.5,173.5C 102.167,173.5 102.5,173.833 102.5,174.5C 103.167,174.5 103.5,174.833 103.5,175.5C 104.752,177.339 104.752,179.172 103.5,181C 99.5,180.333 95.5,180.333 91.5,181C 90.1667,179.333 90.1667,177.667 91.5,176C 87.3288,174.55 85.9954,171.883 87.5,168C 88.448,167.517 89.448,167.351 90.5,167.5 Z"/></g>
<g><path style="opacity:0.141" fill="#9e9e9e" d="M 136.5,172.5 C 136.557,173.609 136.89,174.609 137.5,175.5C 137.5,175.833 137.5,176.167 137.5,176.5C 136.18,175.058 134.514,174.392 132.5,174.5C 133.671,173.655 135.005,172.989 136.5,172.5 Z"/></g>
<g><path style="opacity:1" fill="#696969" d="M 140.5,173.5 C 139.5,173.833 138.833,174.5 138.5,175.5C 138.167,175.5 137.833,175.5 137.5,175.5C 136.89,174.609 136.557,173.609 136.5,172.5C 136.917,171.876 137.584,171.543 138.5,171.5C 139.713,171.747 140.38,172.414 140.5,173.5 Z"/></g>
<g><path style="opacity:1" fill="#545454" d="M 141.5,173.5 C 142.167,173.5 142.5,173.833 142.5,174.5C 142.157,176.225 141.157,176.725 139.5,176C 140.381,175.292 141.047,174.458 141.5,173.5 Z"/></g>
<g><path style="opacity:1" fill="#676767" d="M 132.5,174.5 C 134.514,174.392 136.18,175.058 137.5,176.5C 137.5,177.167 137.833,177.5 138.5,177.5C 138.5,177.833 138.5,178.167 138.5,178.5C 137.833,178.5 137.5,178.833 137.5,179.5C 136.518,180.141 135.518,180.807 134.5,181.5C 133.83,179.709 133.163,178.042 132.5,176.5C 131.167,175.833 131.167,175.167 132.5,174.5 Z"/></g>
<g><path style="opacity:0.733" fill="#969696" d="M 140.5,173.5 C 140.833,173.5 141.167,173.5 141.5,173.5C 141.047,174.458 140.381,175.292 139.5,176C 141.157,176.725 142.157,176.225 142.5,174.5C 143.686,175.705 143.686,177.039 142.5,178.5C 141.5,178.5 140.5,178.5 139.5,178.5C 139.5,177.833 139.167,177.5 138.5,177.5C 137.833,177.5 137.5,177.167 137.5,176.5C 138.167,176.5 138.5,176.167 138.5,175.5C 138.833,174.5 139.5,173.833 140.5,173.5 Z"/></g>
<g><path style="opacity:1" fill="#646464" d="M 139.5,178.5 C 140.5,178.5 141.5,178.5 142.5,178.5C 143.885,179.947 143.552,180.947 141.5,181.5C 140.449,180.778 139.782,179.778 139.5,178.5 Z"/></g>
<g><path style="opacity:1" fill="#bfbfbf" d="M 164.5,177.5 C 165.93,177.421 167.264,177.754 168.5,178.5C 169.04,184.955 172.374,188.955 178.5,190.5C 179.415,191.328 180.081,192.328 180.5,193.5C 178.014,195.443 175.681,197.609 173.5,200C 172.167,200.667 170.833,200.667 169.5,200C 168.528,193.03 164.694,188.53 158,186.5C 157.333,185.5 157.333,184.5 158,183.5C 160.991,182.341 163.158,180.341 164.5,177.5 Z"/></g>
<g><path style="opacity:0.984" fill="#979797" d="M 132.5,176.5 C 133.163,178.042 133.83,179.709 134.5,181.5C 135.518,180.807 136.518,180.141 137.5,179.5C 138.167,179.5 138.5,179.167 138.5,178.5C 138.833,178.5 139.167,178.5 139.5,178.5C 139.782,179.778 140.449,180.778 141.5,181.5C 140.833,181.5 140.5,181.833 140.5,182.5C 138.927,180.164 137.594,180.164 136.5,182.5C 131.669,182.838 130.335,180.838 132.5,176.5 Z"/></g>
<g><path style="opacity:1" fill="#bfbfbf" d="M 252.5,177.5 C 255.089,179.577 258.089,180.91 261.5,181.5C 262.56,185.339 261.06,188.006 257,189.5C 255.833,191.833 254.667,194.167 253.5,196.5C 255.351,200.121 254.517,202.787 251,204.5C 248.943,202.456 246.443,201.29 243.5,201C 242.426,200.261 241.759,199.261 241.5,198C 243.271,195.513 245.438,193.346 248,191.5C 250.017,188.488 250.517,185.322 249.5,182C 249.957,180.06 250.957,178.56 252.5,177.5 Z"/></g>
<g><path style="opacity:1" fill="#6b6b6b" d="M 140.5,182.5 C 139.335,185.022 138.002,185.022 136.5,182.5C 137.594,180.164 138.927,180.164 140.5,182.5 Z"/></g>
<g><path style="opacity:1" fill="#919191" d="M 219.5,181.5 C 218.789,183.842 217.456,184.175 215.5,182.5C 215.62,181.414 216.287,180.747 217.5,180.5C 218.416,180.543 219.083,180.876 219.5,181.5 Z"/></g>
<g><path style="opacity:1" fill="#939393" d="M 223.5,183.5 C 223.5,186.167 223.5,188.833 223.5,191.5C 222.209,191.737 221.209,191.404 220.5,190.5C 219.058,189.18 218.392,187.514 218.5,185.5C 219.82,184.058 221.486,183.392 223.5,183.5 Z"/></g>
<g><path style="opacity:0.947" fill="#ababab" d="M 219.5,181.5 C 220.995,181.989 222.329,182.655 223.5,183.5C 221.486,183.392 219.82,184.058 218.5,185.5C 218.392,187.514 219.058,189.18 220.5,190.5C 219.125,193.57 217.125,194.07 214.5,192C 214.833,191.667 215.167,191.333 215.5,191C 211.67,190.593 211.003,189.26 213.5,187C 210.682,184.131 211.348,182.631 215.5,182.5C 217.456,184.175 218.789,183.842 219.5,181.5 Z"/></g>
<g><path style="opacity:0.698" fill="#a4a4a4" d="M 37.5,184.5 C 39.9294,184.884 42.2627,185.551 44.5,186.5C 43.1667,188.833 43.1667,191.167 44.5,193.5C 42.5992,193.433 40.7659,193.767 39,194.5C 37.5,193.5 36,192.5 34.5,191.5C 35.8333,190.167 35.8333,188.833 34.5,187.5C 35.9935,186.859 36.9935,185.859 37.5,184.5 Z"/></g>
<g><path style="opacity:1" fill="#bfbfbf" d="M 19.5,190.5 C 20.2389,190.369 20.9056,190.536 21.5,191C 28.7708,196.123 28.1041,199.789 19.5,202C 17.5088,205 15.3422,207.833 13,210.5C 10.791,207.963 8.62433,205.463 6.5,203C 12.6328,200.7 16.9661,196.534 19.5,190.5 Z"/></g>
<g><path style="opacity:1" fill="#9a9a9a" d="M 104.5,197.5 C 106.713,198.605 108.88,198.605 111,197.5C 112.299,198.09 113.132,199.09 113.5,200.5C 110.869,205.341 110.869,210.175 113.5,215C 113.046,216.622 112.046,217.788 110.5,218.5C 108.629,217.233 106.796,217.233 105,218.5C 103.701,217.91 102.868,216.91 102.5,215.5C 105.131,210.659 105.131,205.825 102.5,201C 102.978,199.697 103.645,198.531 104.5,197.5 Z"/></g>
<g><path style="opacity:1" fill="#979797" d="M 194.5,210.5 C 196.142,212.081 198.142,212.747 200.5,212.5C 199.354,215.828 199.187,219.161 200,222.5C 199,223.833 198,223.833 197,222.5C 196.292,223.381 195.458,224.047 194.5,224.5C 193.325,224.719 192.325,224.386 191.5,223.5C 192.193,222.482 192.859,221.482 193.5,220.5C 193.5,218.5 193.5,216.5 193.5,214.5C 192.859,213.518 192.193,212.518 191.5,211.5C 192.325,210.614 193.325,210.281 194.5,210.5 Z"/></g>
<g><path style="opacity:1" fill="#9b9b9b" d="M 141.5,213.5 C 144.292,213.452 146.125,214.785 147,217.5C 148.938,215.022 151.105,214.855 153.5,217C 154.38,218.356 154.714,219.856 154.5,221.5C 153.448,221.351 152.448,221.517 151.5,222C 157.184,225.955 156.517,228.288 149.5,229C 150.995,232.841 149.661,234.174 145.5,233C 144.5,229.667 143.5,229.667 142.5,233C 139.285,233.502 137.619,232.002 137.5,228.5C 137.818,227.353 138.484,226.519 139.5,226C 137.187,225.359 135.52,224.026 134.5,222C 137.696,219.962 140.03,217.129 141.5,213.5 Z M 146.5,219.5 C 147.683,220.504 149.016,221.338 150.5,222C 147.876,222.576 147.209,223.91 148.5,226C 146.208,224.899 144.708,225.732 144,228.5C 143.167,227.667 142.333,226.833 141.5,226C 145.251,225.418 146.918,223.251 146.5,219.5 Z"/></g>
<g><path style="opacity:1" fill="#737373" d="M 246.5,228.5 C 245.766,227.292 245.433,225.959 245.5,224.5C 244.249,222.086 242.749,219.753 241,217.5C 240.25,218.126 239.416,218.626 238.5,219C 239.973,219.71 240.64,220.876 240.5,222.5C 239.5,222.833 238.833,223.5 238.5,224.5C 233.639,225.373 232.639,223.706 235.5,219.5C 232.623,217.087 232.956,215.253 236.5,214C 238.112,213.28 239.612,213.446 241,214.5C 241.637,212.697 242.803,211.364 244.5,210.5C 247.024,213.522 249.691,216.356 252.5,219C 251.556,220.477 250.223,221.477 248.5,222C 251.181,224.992 250.681,227.492 247,229.5C 246.601,229.272 246.435,228.938 246.5,228.5 Z M 245.5,224.5 C 244.5,223.833 243.5,223.167 242.5,222.5C 242.167,222.5 241.833,222.5 241.5,222.5C 241.167,222.5 240.833,222.5 240.5,222.5C 240.64,220.876 239.973,219.71 238.5,219C 239.416,218.626 240.25,218.126 241,217.5C 242.749,219.753 244.249,222.086 245.5,224.5 Z"/></g>
<g><path style="opacity:1" fill="#989898" d="M 53.5,214.5 C 56.4232,216.415 59.0899,218.749 61.5,221.5C 61.0233,222.478 60.3567,223.311 59.5,224C 57.3921,224.36 55.3921,225.027 53.5,226C 51.7654,229.084 49.7654,231.917 47.5,234.5C 45.1667,232.167 42.8333,229.833 40.5,227.5C 40.9767,226.522 41.6433,225.689 42.5,225C 48.6483,224.017 52.315,220.517 53.5,214.5 Z"/></g>
<g><path style="opacity:0.655" fill="#a8a8a8" d="M 194.5,210.5 C 193.325,210.281 192.325,210.614 191.5,211.5C 192.193,212.518 192.859,213.518 193.5,214.5C 191.269,216.358 191.269,218.358 193.5,220.5C 192.859,221.482 192.193,222.482 191.5,223.5C 192.325,224.386 193.325,224.719 194.5,224.5C 193.432,225.434 192.099,225.768 190.5,225.5C 190.5,224.5 190.5,223.5 190.5,222.5C 186.292,222.206 185.625,220.54 188.5,217.5C 185.625,214.46 186.292,212.794 190.5,212.5C 190.5,211.5 190.5,210.5 190.5,209.5C 192.099,209.232 193.432,209.566 194.5,210.5 Z"/></g>
<g><path style="opacity:0.104" fill="#cdcdcd" d="M 240.5,222.5 C 240.833,222.5 241.167,222.5 241.5,222.5C 240.833,223.833 239.833,224.833 238.5,225.5C 238.5,225.167 238.5,224.833 238.5,224.5C 238.833,223.5 239.5,222.833 240.5,222.5 Z"/></g>
<g><path style="opacity:1" fill="#656565" d="M 241.5,222.5 C 241.833,222.5 242.167,222.5 242.5,222.5C 242.833,223.833 243.167,225.167 243.5,226.5C 243.001,229.389 241.501,230.056 239,228.5C 238.517,227.552 238.351,226.552 238.5,225.5C 239.833,224.833 240.833,223.833 241.5,222.5 Z"/></g>
<g><path style="opacity:0.884" fill="#9f9f9f" d="M 77.5,221.5 C 80.2716,222.371 82.9382,222.371 85.5,221.5C 85.3505,222.552 85.5172,223.552 86,224.5C 87.3671,223.476 88.2005,223.976 88.5,226C 88.1802,227.653 87.1802,228.653 85.5,229C 86.3366,230.011 86.67,231.178 86.5,232.5C 83.5,232.5 80.5,232.5 77.5,232.5C 76.5,229.833 75.5,227.167 74.5,224.5C 75.5,224.5 76.5,224.5 77.5,224.5C 77.5,223.5 77.5,222.5 77.5,221.5 Z"/></g>
<g><path style="opacity:0.514" fill="#9b9b9b" d="M 242.5,222.5 C 243.5,223.167 244.5,223.833 245.5,224.5C 245.433,225.959 245.766,227.292 246.5,228.5C 245.222,228.218 244.222,227.551 243.5,226.5C 243.167,225.167 242.833,223.833 242.5,222.5 Z"/></g>
<g><path style="opacity:1" fill="#717171" d="M 19.5,222.5 C 22.1112,225.664 25.2778,228.331 29,230.5C 29.5608,233.298 28.3941,235.131 25.5,236C 27.9938,238.244 27.9938,240.577 25.5,243C 23.2992,243.825 21.4659,243.325 20,241.5C 16.1523,245.939 13.9856,245.273 13.5,239.5C 9.32285,240.158 7.82285,238.492 9,234.5C 10.0674,233.809 11.2341,233.309 12.5,233C 9.37131,232.883 8.20465,231.383 9,228.5C 11.209,226.294 13.709,225.96 16.5,227.5C 17.3199,225.681 18.3199,224.014 19.5,222.5 Z M 16.5,236.5 C 14.1443,229.693 15.1443,229.193 19.5,235C 20.8333,235.333 22.1667,235.667 23.5,236C 22.2986,236.903 21.4652,238.069 21,239.5C 20.4115,237.137 18.9115,236.137 16.5,236.5 Z"/></g>
<g><path style="opacity:0.952" fill="#959595" d="M 211.5,247.5 C 210.292,248.234 208.959,248.567 207.5,248.5C 207.5,247.5 207.5,246.5 207.5,245.5C 208.601,244.402 209.934,244.235 211.5,245C 212.598,245.77 212.598,246.603 211.5,247.5 Z"/></g>
<g><path style="opacity:1" fill="#989898" d="M 233.5,242.5 C 236.378,243.254 239.211,243.588 242,243.5C 241.868,246.508 241.368,249.508 240.5,252.5C 240.481,255.188 241.148,257.688 242.5,260C 242.355,260.772 242.022,261.439 241.5,262C 238.333,261.833 235.167,261.667 232,261.5C 232.383,258.189 233.217,254.855 234.5,251.5C 234.03,249.226 233.03,247.226 231.5,245.5C 232.193,244.482 232.859,243.482 233.5,242.5 Z"/></g>
<g><path style="opacity:1" fill="#6d6d6d" d="M 101.5,248.5 C 101.443,249.609 101.11,250.609 100.5,251.5C 100.167,251.5 99.8333,251.5 99.5,251.5C 99.1667,250.5 98.5,249.833 97.5,249.5C 97.3893,248.883 97.056,248.383 96.5,248C 98.3869,247.22 100.054,247.387 101.5,248.5 Z"/></g>
<g><path style="opacity:0.541" fill="#a7a7a7" d="M 101.5,248.5 C 102.995,248.989 104.329,249.655 105.5,250.5C 103.486,250.392 101.82,251.058 100.5,252.5C 100.5,252.167 100.5,251.833 100.5,251.5C 101.11,250.609 101.443,249.609 101.5,248.5 Z"/></g>
<g><path style="opacity:0.617" fill="#8b8b8b" d="M 97.5,249.5 C 98.5,249.833 99.1667,250.5 99.5,251.5C 98.4427,252.206 98.7761,252.539 100.5,252.5C 100.5,253.167 100.167,253.5 99.5,253.5C 98.1667,253.833 98.1667,254.167 99.5,254.5C 100.167,254.5 100.5,254.833 100.5,255.5C 99.8333,255.5 99.1667,255.5 98.5,255.5C 97.609,254.89 96.609,254.557 95.5,254.5C 92.5222,251.451 93.1889,249.785 97.5,249.5 Z"/></g>
<g><path style="opacity:0.367" fill="#999999" d="M 105.5,252.5 C 105.833,254.5 106.167,256.5 106.5,258.5C 104.901,258.768 103.568,258.434 102.5,257.5C 103.552,257.649 104.552,257.483 105.5,257C 104.199,255.384 104.199,253.884 105.5,252.5 Z"/></g>
<g><path style="opacity:1" fill="#bfbfbf" d="M 126.5,250.5 C 129.857,250.106 132.19,251.439 133.5,254.5C 136.596,256.933 139.929,257.766 143.5,257C 144.059,257.725 144.392,258.558 144.5,259.5C 143.063,261.577 142.396,263.91 142.5,266.5C 140.801,266.66 139.134,266.494 137.5,266C 136.5,263.667 134.833,262 132.5,261C 129.776,260.73 127.109,260.23 124.5,259.5C 123.239,257.438 123.739,255.772 126,254.5C 126.49,253.207 126.657,251.873 126.5,250.5 Z"/></g>
<g><path style="opacity:0.196" fill="#afafaf" d="M 95.5,254.5 C 94.1667,255.5 94.1667,256.5 95.5,257.5C 92.8333,256.5 92.8333,255.5 95.5,254.5 Z"/></g>
<g><path style="opacity:0.81" fill="#9f9f9f" d="M 256.5,249.5 C 259.043,250.357 261.377,251.69 263.5,253.5C 263.023,254.478 262.357,255.311 261.5,256C 262.308,256.308 262.975,256.808 263.5,257.5C 260.674,258.755 258.841,260.421 258,262.5C 256.347,262.18 255.347,261.18 255,259.5C 253.989,260.337 252.822,260.67 251.5,260.5C 251.5,257.5 251.5,254.5 251.5,251.5C 253.553,251.598 255.22,250.931 256.5,249.5 Z M 257.5,255.5 C 258.776,256.386 258.776,257.386 257.5,258.5C 256.913,257.767 256.913,256.767 257.5,255.5 Z"/></g>
<g><path style="opacity:1" fill="#6b6b6b" d="M 105.5,250.5 C 106.833,251.167 106.833,251.833 105.5,252.5C 104.199,253.884 104.199,255.384 105.5,257C 104.552,257.483 103.552,257.649 102.5,257.5C 100.127,261.347 97.7937,261.347 95.5,257.5C 94.1667,256.5 94.1667,255.5 95.5,254.5C 96.609,254.557 97.609,254.89 98.5,255.5C 99.1667,256.833 99.8333,256.833 100.5,255.5C 100.5,254.833 100.167,254.5 99.5,254.5C 99.5,254.167 99.5,253.833 99.5,253.5C 100.167,253.5 100.5,253.167 100.5,252.5C 101.82,251.058 103.486,250.392 105.5,250.5 Z"/></g>
<g><path style="opacity:1" fill="#707070" d="M 168.5,249.5 C 168.833,250.833 169.167,252.167 169.5,253.5C 169.167,254.5 168.5,255.167 167.5,255.5C 167.5,256.167 167.5,256.833 167.5,257.5C 168.872,256.488 170.205,255.488 171.5,254.5C 171.5,252.833 171.5,251.167 171.5,249.5C 174.513,250.356 175.18,252.189 173.5,255C 175.286,255.196 176.619,256.029 177.5,257.5C 174.844,259.731 172.344,262.064 170,264.5C 167.708,263.069 165.208,262.236 162.5,262C 161.075,260.286 161.408,258.953 163.5,258C 161.789,256.867 161.289,255.367 162,253.5C 163,252.167 164,252.167 165,253.5C 165.617,252.551 165.451,251.718 164.5,251C 165.566,248.988 166.9,248.488 168.5,249.5 Z M 167.5,257.5 C 167.489,260.001 166.822,260.168 165.5,258C 166.094,257.536 166.761,257.369 167.5,257.5 Z M 169.5,253.5 C 170.167,253.833 170.833,254.167 171.5,254.5C 170.205,255.488 168.872,256.488 167.5,257.5C 167.5,256.833 167.5,256.167 167.5,255.5C 168.5,255.167 169.167,254.5 169.5,253.5 Z"/></g>
<g><path style="opacity:0.99" fill="#919191" d="M 168.5,249.5 C 169.5,250.833 170.5,250.833 171.5,249.5C 171.5,251.167 171.5,252.833 171.5,254.5C 170.833,254.167 170.167,253.833 169.5,253.5C 169.167,252.167 168.833,250.833 168.5,249.5 Z"/></g>
<g><path style="opacity:1" fill="#a1a1a1" d="M 207.5,245.5 C 207.5,246.5 207.5,247.5 207.5,248.5C 208.959,248.567 210.292,248.234 211.5,247.5C 216.92,247.487 217.587,248.987 213.5,252C 215.615,252.424 216.448,253.591 216,255.5C 213.964,257.21 211.964,258.877 210,260.5C 207.739,260.113 206.406,258.779 206,256.5C 204.644,257.38 203.144,257.714 201.5,257.5C 202.833,254.167 202.833,250.833 201.5,247.5C 203.144,247.286 204.644,247.62 206,248.5C 206.232,247.263 206.732,246.263 207.5,245.5 Z M 208.5,253.5 C 211.137,255.154 210.803,255.654 207.5,255C 208.056,254.617 208.389,254.117 208.5,253.5 Z"/></g>
<g><path style="opacity:1" fill="#9e9e9e" d="M 44.5,251.5 C 47.4999,252.647 50.4999,252.813 53.5,252C 54.6052,254.462 55.6052,257.296 56.5,260.5C 55.5,260.5 54.5,260.5 53.5,260.5C 53.5,261.5 53.5,262.5 53.5,263.5C 50.8333,262.167 48.1667,262.167 45.5,263.5C 45.5,262.5 45.5,261.5 45.5,260.5C 44.5,260.5 43.5,260.5 42.5,260.5C 42.3291,258.007 43.3291,256.174 45.5,255C 44.6634,253.989 44.33,252.822 44.5,251.5 Z"/></g>
</svg>
