<svg xmlns="http://www.w3.org/2000/svg" fill="none" viewBox="0 0 29 32"><path fill="#4E4949" d="M17.325 29.39h-5.65a.705.705 0 1 0 0 1.412h5.65a.705.705 0 1 0 0-1.412ZM17.325 26.566h-5.65a.705.705 0 1 0 0 1.412h5.65a.705.705 0 1 0 0-1.412ZM7.187 29.504H1.639a.691.691 0 0 0-.693.694c0 .384.309.693.693.693h5.548a.691.691 0 0 0 .693-.693.691.691 0 0 0-.693-.694ZM7.187 26.73H1.639a.691.691 0 0 0-.693.693c0 .385.309.694.693.694h5.548a.691.691 0 0 0 .693-.694.691.691 0 0 0-.693-.693ZM7.187 23.956H1.639a.691.691 0 0 0-.693.693c0 .385.309.694.693.694h5.548a.692.692 0 0 0 .693-.694.691.691 0 0 0-.693-.693ZM27.36 29.63h-5.547a.691.691 0 0 0-.694.693c0 .385.31.694.694.694h5.548a.691.691 0 0 0 .693-.694.691.691 0 0 0-.693-.693ZM27.36 26.855h-5.547a.691.691 0 0 0-.694.694c0 .384.31.693.694.693h5.548a.691.691 0 0 0 .693-.693.691.691 0 0 0-.693-.694ZM27.36 24.081h-5.547a.691.691 0 0 0-.694.694c0 .384.31.693.694.693h5.548a.691.691 0 0 0 .693-.693.691.691 0 0 0-.693-.694ZM27.36 21.308h-5.547a.691.691 0 0 0-.694.694c0 .385.31.693.694.693h5.548a.691.691 0 0 0 .693-.693.691.691 0 0 0-.693-.694ZM3.783 21.119V9.77a.63.63 0 0 0-.63-.63H.63a.63.63 0 0 0-.63.63v11.348c0 .348.282.63.63.63h2.522a.63.63 0 0 0 .63-.63ZM8.196 7.25H5.674a.63.63 0 0 0-.63.63v13.239c0 .348.282.63.63.63h2.522a.63.63 0 0 0 .63-.63V7.879a.63.63 0 0 0-.63-.63ZM23.957 18.597V7.249a.63.63 0 0 0-.63-.63h-2.523a.63.63 0 0 0-.63.63v11.348c0 .348.282.63.63.63h2.522a.63.63 0 0 0 .63-.63ZM28.37 5.358h-2.522a.63.63 0 0 0-.63.63v12.609c0 .348.281.63.63.63h2.522a.63.63 0 0 0 .63-.63V5.988a.63.63 0 0 0-.63-.63ZM13.87 23.64V13.553a.63.63 0 0 0-.63-.63h-2.523a.63.63 0 0 0-.63.63V23.64c0 .349.282.63.63.63h2.522a.63.63 0 0 0 .63-.63ZM18.283 10.401H15.76a.63.63 0 0 0-.63.63v12.61c0 .348.281.63.63.63h2.522a.63.63 0 0 0 .63-.63V11.03a.63.63 0 0 0-.63-.63Z"/><path fill="#4E4949" d="M21.018 5.04a1.88 1.88 0 0 0 2.92-1.39l1.595-.402A1.89 1.89 0 0 0 29 2.206 1.893 1.893 0 0 0 27.109.314c-.98 0-1.78.752-1.873 1.708l-1.595.403a1.89 1.89 0 0 0-3.467 1.042c0 .196.038.382.094.56l-2.2 1.649c-.3-.2-.66-.318-1.046-.318a1.893 1.893 0 0 0-1.892 1.891c0 .078.014.152.023.227l-1.864.937a1.882 1.882 0 0 0-2.02-.392L8.582 5.006c.15-.271.243-.578.243-.909a1.893 1.893 0 0 0-1.891-1.891 1.893 1.893 0 0 0-1.892 1.891c0 .012.004.022.004.034l-1.717.645a1.88 1.88 0 0 0-1.439-.679A1.893 1.893 0 0 0 0 5.988C0 7.031.848 7.88 1.891 7.88a1.893 1.893 0 0 0 1.892-1.892c0-.011-.004-.022-.004-.034l1.717-.644c.347.411.86.678 1.439.678.251 0 .49-.051.71-.14l2.685 3.014c-.15.271-.243.578-.243.909 0 1.043.848 1.891 1.891 1.891a1.893 1.893 0 0 0 1.892-1.891c0-.078-.014-.152-.023-.227l1.864-.937c.34.329.801.534 1.31.534a1.893 1.893 0 0 0 1.892-1.892c0-.196-.038-.382-.094-.56l2.2-1.65Z"/></svg>
