<svg xmlns="http://www.w3.org/2000/svg" fill="none" viewBox="0 0 30 30"><path fill="#fff" fill-rule="evenodd" d="M12.117 5.296c-1.394.694-2.682 1.289-2.682 1.289 0 .099 3.54 1.685 3.648 1.685.107 0 .429-.199.965-.397l.858-.396.858.495.859.397 1.501-.595c2.146-.892 2.468-.991 2.36-1.09 0 0-.858-.397-3.003-1.487-1.073-.495-2.038-.991-2.253-1.09-.107 0-.322-.1-.322-.1l-2.789 1.29ZM5.681 8.37l-1.502.694v6.343s.75-.297 1.716-.694l1.61-.694v-3.171l.75.396c.644.297 1.18.595 1.824.892l1.073.496.429-.199c.322-.099.536-.198.858-.396.214-.1.75-.297 1.18-.495.429-.199.858-.397.965-.397.108-.1-.858-.495-3.54-1.784-2.038-.991-3.647-1.685-3.754-1.685 0 0-.751.297-1.61.694Zm15.125.198c-1.073.396-1.93.793-1.93.793s.536.297 1.287.694c.643.396 1.287.694 1.287.694s-.644.297-1.395.594c-.75.298-2.681 1.09-4.183 1.784l-5.257 2.18c-1.394.596-2.574 1.091-2.682 1.19-2.681 1.09-3.432 1.487-3.54 1.487-.107.099-.107.396-.107 1.982v1.883l1.395.595 1.18.694 1.93-.793c1.073-.397 1.932-.793 1.932-.793s-.215-.1-.43-.297c-.214-.1-.75-.397-1.072-.595-.322-.198-.751-.396-.751-.396-.107 0-.107-.1-.107-.1s.858-.396 1.823-.793c1.931-.793 3.54-1.486 6.758-2.775 1.502-.594 2.897-1.19 4.399-1.784 1.287-.495 2.789-1.19 3.325-1.387l.966-.397V9.261l-1.395-.694c-.751-.396-1.395-.694-1.502-.694 0-.099-.965.298-1.93.694Zm4.291 6.938c-.214.1-.644.297-.858.396-.322.1-.858.397-1.18.496l-.644.297v1.685c0 .892 0 1.685-.107 1.685s-1.395-.594-2.682-1.288c-.965-.496-.965-.496-1.18-.397-.107.1-.858.397-1.716.694-.858.297-1.502.595-1.502.694 0 0 1.61.793 3.647 1.784l3.648 1.784 1.609-.793c.858-.396 1.609-.793 1.609-.793.107-.099.107-6.343 0-6.343-.215-.1-.43 0-.644.099Zm-8.689 7.334c-.322.1-.536.199-.858.298-.858.297-.644.297-1.61-.1-.643-.297-.965-.396-1.072-.297-.107 0-.858.397-1.716.694a35.22 35.22 0 0 1-1.61.694c-.321 0 .215.297 2.575 1.387l2.79 1.289 1.18-.496c.643-.297 1.93-.892 2.896-1.288.965-.396 1.716-.793 1.716-.793s-.751-.396-1.716-.793l-1.717-.793-.858.198Z" clip-rule="evenodd"/></svg>
