<svg xmlns="http://www.w3.org/2000/svg" fill="none" viewBox="0 0 111 107"><path fill="#48484A" d="M142.861 99.407a.65.65 0 1 0-1.096.697.65.65 0 0 0 1.096-.697ZM153.811 92.434a.69.69 0 1 0-1.165.743.69.69 0 0 0 1.165-.743ZM164.751 85.466a.72.72 0 1 0-1.214.773.72.72 0 0 0 1.214-.773ZM175.641 78.53a.69.69 0 1 0-1.163.74.69.69 0 0 0 1.163-.74ZM186.523 71.6a.65.65 0 1 0-1.096.697.65.65 0 0 0 1.096-.697ZM114.172 102.337a.76.76 0 1 0-1.282.815.76.76 0 0 0 1.282-.815ZM125.146 95.347a.83.83 0 1 0-1.4.892.83.83 0 0 0 1.4-.892ZM136.121 88.358a.9.9 0 1 0-1.519.968.9.9 0 0 0 1.519-.968ZM147.095 81.368a.97.97 0 1 0-1.636 1.042.97.97 0 0 0 1.636-1.042ZM158.069 74.379a1.039 1.039 0 1 0-1.753 1.115 1.039 1.039 0 0 0 1.753-1.115ZM168.926 67.465a.97.97 0 1 0-1.636 1.042.97.97 0 0 0 1.636-1.042ZM179.782 60.55a.9.9 0 1 0-1.518.966.9.9 0 0 0 1.518-.965ZM190.639 53.636a.83.83 0 1 0-1.4.893.83.83 0 0 0 1.4-.893ZM201.495 46.722a.76.76 0 1 0-1.282.816.76.76 0 0 0 1.282-.816ZM85.355 105.346a.72.72 0 1 0-1.214.774.72.72 0 0 0 1.214-.774ZM96.363 98.335a.83.83 0 1 0-1.4.892.83.83 0 0 0 1.4-.892ZM107.372 91.324a.94.94 0 1 0-1.586 1.01.94.94 0 0 0 1.586-1.01ZM118.371 84.319a1.04 1.04 0 1 0-1.755 1.117 1.04 1.04 0 0 0 1.755-1.117ZM129.38 77.308a1.15 1.15 0 1 0-1.94 1.237 1.15 1.15 0 0 0 1.94-1.237ZM140.388 70.297a1.26 1.26 0 1 0-2.126 1.354 1.26 1.26 0 0 0 2.126-1.354ZM151.396 63.286a1.37 1.37 0 1 0-2.312 1.472 1.37 1.37 0 0 0 2.312-1.472ZM162.219 56.393a1.26 1.26 0 1 0-2.126 1.355 1.26 1.26 0 0 0 2.126-1.355ZM173.041 49.5a1.15 1.15 0 1 0-1.939 1.235 1.15 1.15 0 0 0 1.939-1.234ZM183.864 42.608a1.04 1.04 0 1 0-1.755 1.118 1.04 1.04 0 0 0 1.755-1.118ZM194.695 35.71a.94.94 0 1 0-1.586 1.01.94.94 0 0 0 1.586-1.01ZM205.518 28.817a.83.83 0 1 0-1.4.893.83.83 0 0 0 1.4-.893ZM216.34 21.924a.72.72 0 1 0-1.214.773.72.72 0 0 0 1.214-.773ZM78.496 94.372a.83.83 0 1 0-1.4.891.83.83 0 0 0 1.4-.891ZM89.53 87.345a.97.97 0 1 0-1.637 1.042.97.97 0 0 0 1.637-1.042ZM100.572 80.312a1.12 1.12 0 1 0-1.89 1.205 1.12 1.12 0 0 0 1.89-1.205ZM111.605 73.285a1.26 1.26 0 1 0-2.126 1.355 1.26 1.26 0 0 0 2.126-1.355ZM122.639 66.258a1.4 1.4 0 1 0-2.362 1.505 1.4 1.4 0 0 0 2.362-1.505ZM133.672 59.231a1.54 1.54 0 1 0-2.598 1.655 1.54 1.54 0 0 0 2.598-1.655ZM144.714 52.199a1.69 1.69 0 1 0-2.85 1.815 1.69 1.69 0 0 0 2.85-1.815ZM155.503 45.328a1.54 1.54 0 1 0-2.598 1.654 1.54 1.54 0 0 0 2.598-1.654ZM166.3 38.451a1.4 1.4 0 1 0-2.362 1.504 1.4 1.4 0 0 0 2.362-1.504ZM177.098 31.574a1.26 1.26 0 1 0-2.126 1.355 1.26 1.26 0 0 0 2.126-1.355ZM187.895 24.698a1.12 1.12 0 1 0-1.889 1.203 1.12 1.12 0 0 0 1.889-1.203ZM198.684 17.827a.97.97 0 1 0-1.636 1.041.97.97 0 0 0 1.636-1.041ZM209.481 10.95a.83.83 0 1 0-1.4.891.83.83 0 0 0 1.4-.891ZM60.57 90.446a.76.76 0 1 0-1.282.816.76.76 0 0 0 1.282-.816ZM71.637 83.397a.94.94 0 1 0-1.586 1.01.94.94 0 0 0 1.586-1.01ZM82.704 76.349a1.12 1.12 0 1 0-1.889 1.203 1.12 1.12 0 0 0 1.89-1.203ZM93.763 69.305a1.29 1.29 0 1 0-2.176 1.386 1.29 1.29 0 0 0 2.176-1.386ZM104.83 62.257a1.47 1.47 0 1 0-2.479 1.578 1.47 1.47 0 0 0 2.479-1.578ZM115.898 55.209a1.65 1.65 0 1 0-2.783 1.773 1.65 1.65 0 0 0 2.783-1.773ZM126.965 48.16a1.83 1.83 0 1 0-3.088 1.967 1.83 1.83 0 0 0 3.088-1.967ZM138.032 41.111a2.01 2.01 0 1 0-3.39 2.16 2.01 2.01 0 0 0 3.39-2.16ZM148.796 34.256a1.83 1.83 0 1 0-3.088 1.967 1.83 1.83 0 0 0 3.088-1.967ZM159.559 27.401a1.65 1.65 0 1 0-2.783 1.772 1.65 1.65 0 0 0 2.783-1.772ZM170.323 20.546a1.47 1.47 0 1 0-2.48 1.58 1.47 1.47 0 0 0 2.48-1.58ZM181.087 13.691a1.29 1.29 0 1 0-2.176 1.386 1.29 1.29 0 0 0 2.176-1.386ZM191.859 6.83a1.12 1.12 0 1 0-1.89 1.206 1.12 1.12 0 0 0 1.89-1.205ZM202.622-.025a.94.94 0 1 0-1.586 1.01.94.94 0 0 0 1.586-1.01ZM213.386-6.88a.76.76 0 1 0-1.283.818.76.76 0 0 0 1.283-.818ZM53.677 79.493a.83.83 0 1 0-1.4.891.83.83 0 0 0 1.4-.891ZM64.77 72.428a1.04 1.04 0 1 0-1.755 1.118 1.04 1.04 0 0 0 1.755-1.118ZM75.87 65.358a1.26 1.26 0 1 0-2.125 1.354 1.26 1.26 0 0 0 2.126-1.354ZM86.963 58.293a1.47 1.47 0 1 0-2.48 1.58 1.47 1.47 0 0 0 2.48-1.58ZM98.064 51.223a1.69 1.69 0 1 0-2.85 1.816 1.69 1.69 0 0 0 2.85-1.816ZM109.157 44.159a1.9 1.9 0 1 0-3.205 2.04 1.9 1.9 0 0 0 3.205-2.04ZM120.258 37.089a2.12 2.12 0 1 0-3.576 2.278 2.12 2.12 0 0 0 3.576-2.278ZM131.35 30.024a2.33 2.33 0 1 0-3.93 2.503 2.33 2.33 0 0 0 3.93-2.503ZM142.089 23.185a2.12 2.12 0 1 0-3.576 2.278 2.12 2.12 0 0 0 3.576-2.278ZM152.818 16.352a1.9 1.9 0 1 0-3.205 2.04 1.9 1.9 0 0 0 3.205-2.04ZM163.557 9.513a1.69 1.69 0 1 0-2.852 1.817 1.69 1.69 0 0 0 2.852-1.817ZM174.287 2.679a1.47 1.47 0 1 0-2.48 1.58 1.47 1.47 0 0 0 2.48-1.58ZM185.025-4.16a1.26 1.26 0 1 0-2.126 1.355 1.26 1.26 0 0 0 2.126-1.355ZM195.755-10.994A1.04 1.04 0 1 0 194-9.876a1.04 1.04 0 0 0 1.755-1.118ZM206.493-17.833a.83.83 0 1 0-1.4.892.83.83 0 0 0 1.4-.892ZM35.658 75.626a.65.65 0 1 0-1.096.698.65.65 0 0 0 1.096-.698ZM46.784 68.54a.9.9 0 1 0-1.518.967.9.9 0 0 0 1.518-.967ZM57.91 61.453a1.15 1.15 0 1 0-1.94 1.236 1.15 1.15 0 0 0 1.94-1.236ZM69.037 54.367a1.4 1.4 0 1 0-2.362 1.505 1.4 1.4 0 0 0 2.362-1.505ZM80.163 47.281a1.65 1.65 0 1 0-2.783 1.773 1.65 1.65 0 0 0 2.783-1.773ZM91.29 40.195a1.9 1.9 0 1 0-3.206 2.041 1.9 1.9 0 0 0 3.206-2.04ZM102.416 33.11a2.15 2.15 0 1 0-3.627 2.31 2.15 2.15 0 0 0 3.627-2.31ZM113.542 26.023a2.4 2.4 0 1 0-4.048 2.577 2.4 2.4 0 0 0 4.048-2.577ZM124.668 18.937a2.65 2.65 0 1 0-4.47 2.845 2.65 2.65 0 0 0 4.47-2.845ZM135.373 12.12a2.4 2.4 0 1 0-4.05 2.579 2.4 2.4 0 0 0 4.05-2.58ZM146.077 5.302a2.15 2.15 0 1 0-3.626 2.308 2.15 2.15 0 0 0 3.626-2.308ZM156.782-1.516a1.9 1.9 0 1 0-3.205 2.041 1.9 1.9 0 0 0 3.205-2.04ZM167.487-8.333a1.65 1.65 0 1 0-2.783 1.773 1.65 1.65 0 0 0 2.783-1.773ZM178.191-15.15a1.4 1.4 0 1 0-2.362 1.504 1.4 1.4 0 0 0 2.362-1.505ZM188.896-21.968a1.15 1.15 0 1 0-1.94 1.236 1.15 1.15 0 0 0 1.94-1.236ZM199.6-28.786a.9.9 0 1 0-1.518.966.9.9 0 0 0 1.518-.966ZM210.305-35.603a.65.65 0 1 0-1.097.7.65.65 0 0 0 1.097-.7ZM28.74 64.689a.69.69 0 1 0-1.164.741.69.69 0 0 0 1.164-.741ZM39.892 57.587a.97.97 0 1 0-1.637 1.042.97.97 0 0 0 1.637-1.042ZM51.052 50.479a1.26 1.26 0 1 0-2.126 1.354 1.26 1.26 0 0 0 2.126-1.354ZM62.203 43.377a1.54 1.54 0 1 0-2.598 1.654 1.54 1.54 0 0 0 2.598-1.654ZM73.363 36.27a1.83 1.83 0 1 0-3.087 1.965 1.83 1.83 0 0 0 3.087-1.966ZM84.523 29.162a2.12 2.12 0 1 0-3.576 2.277 2.12 2.12 0 0 0 3.576-2.277ZM95.675 22.06a2.4 2.4 0 1 0-4.049 2.578 2.4 2.4 0 0 0 4.049-2.579ZM106.835 14.952a2.69 2.69 0 1 0-4.538 2.89 2.69 2.69 0 0 0 4.538-2.89ZM117.995 7.844a2.98 2.98 0 1 0-5.027 3.201 2.98 2.98 0 0 0 5.027-3.2ZM128.666 1.048a2.69 2.69 0 1 0-4.538 2.89 2.69 2.69 0 0 0 4.538-2.89ZM139.337-5.748a2.4 2.4 0 1 0-4.05 2.58 2.4 2.4 0 0 0 4.05-2.58ZM150.016-12.55a2.12 2.12 0 1 0-3.576 2.28 2.12 2.12 0 0 0 3.576-2.28ZM160.687-19.345a1.83 1.83 0 1 0-3.088 1.967 1.83 1.83 0 0 0 3.088-1.967ZM171.357-26.141a1.54 1.54 0 1 0-2.597 1.653 1.54 1.54 0 0 0 2.597-1.653ZM182.037-32.943a1.26 1.26 0 1 0-2.126 1.355 1.26 1.26 0 0 0 2.126-1.355ZM192.707-39.739a.97.97 0 1 0-1.636 1.041.97.97 0 0 0 1.636-1.04ZM203.387-46.54a.69.69 0 1 0-1.165.742.69.69 0 0 0 1.165-.742ZM21.814 53.757a.72.72 0 1 0-1.215.774.72.72 0 0 0 1.215-.774ZM32.999 46.634a1.04 1.04 0 1 0-1.755 1.117A1.04 1.04 0 0 0 33 46.634ZM44.193 39.505a1.37 1.37 0 1 0-2.311 1.471 1.37 1.37 0 0 0 2.31-1.471ZM55.378 32.38a1.69 1.69 0 1 0-2.851 1.816 1.69 1.69 0 0 0 2.85-1.815ZM66.563 25.257a2.01 2.01 0 1 0-3.39 2.16 2.01 2.01 0 0 0 3.39-2.16ZM77.749 18.133a2.33 2.33 0 1 0-3.931 2.504 2.33 2.33 0 0 0 3.93-2.504ZM88.934 11.01a2.65 2.65 0 1 0-4.47 2.847 2.65 2.65 0 0 0 4.47-2.847ZM100.128 3.88A2.98 2.98 0 1 0 95.1 7.084a2.98 2.98 0 0 0 5.028-3.202ZM111.313-3.243a3.3 3.3 0 1 0-5.567 3.545 3.3 3.3 0 0 0 5.567-3.545ZM121.959-10.023a2.981 2.981 0 1 0-5.028 3.204 2.981 2.981 0 0 0 5.028-3.204ZM132.596-16.798a2.65 2.65 0 1 0-4.47 2.849 2.65 2.65 0 0 0 4.47-2.849ZM143.241-23.578a2.33 2.33 0 1 0-3.93 2.503 2.33 2.33 0 0 0 3.93-2.503ZM153.887-30.357a2.01 2.01 0 1 0-3.39 2.16 2.01 2.01 0 0 0 3.39-2.16ZM164.532-37.137a1.69 1.69 0 1 0-2.85 1.814 1.69 1.69 0 0 0 2.85-1.814ZM175.178-43.917a1.37 1.37 0 1 0-2.312 1.473 1.37 1.37 0 0 0 2.312-1.473ZM185.815-50.692a1.04 1.04 0 1 0-1.755 1.119 1.04 1.04 0 0 0 1.755-1.119ZM196.46-57.472a.72.72 0 1 0-1.214.773.72.72 0 0 0 1.214-.773ZM14.836 42.858a.69.69 0 1 0-1.164.741.69.69 0 0 0 1.164-.741ZM25.988 35.756a.97.97 0 1 0-1.636 1.042.97.97 0 0 0 1.636-1.042ZM37.148 28.648a1.26 1.26 0 1 0-2.125 1.354 1.26 1.26 0 0 0 2.125-1.354ZM48.3 21.546a1.54 1.54 0 1 0-2.598 1.655 1.54 1.54 0 0 0 2.598-1.655ZM59.46 14.438a1.83 1.83 0 1 0-3.087 1.966 1.83 1.83 0 0 0 3.087-1.966ZM70.62 7.33a2.12 2.12 0 1 0-3.577 2.278 2.12 2.12 0 0 0 3.577-2.277ZM81.771.229a2.4 2.4 0 1 0-4.048 2.578A2.4 2.4 0 0 0 81.77.229ZM92.931-6.88a2.69 2.69 0 1 0-4.538 2.891 2.69 2.69 0 0 0 4.538-2.89ZM104.091-13.987a2.98 2.98 0 1 0-5.027 3.202 2.98 2.98 0 0 0 5.027-3.202ZM114.762-20.783a2.69 2.69 0 1 0-4.538 2.89 2.69 2.69 0 0 0 4.538-2.89ZM125.433-27.579a2.4 2.4 0 1 0-4.05 2.58 2.4 2.4 0 0 0 4.05-2.58ZM136.112-34.38a2.12 2.12 0 1 0-3.576 2.277 2.12 2.12 0 0 0 3.576-2.277ZM146.783-41.176a1.83 1.83 0 1 0-3.088 1.967 1.83 1.83 0 0 0 3.088-1.967ZM157.454-47.972a1.54 1.54 0 1 0-2.598 1.654 1.54 1.54 0 0 0 2.598-1.654ZM168.133-54.773a1.26 1.26 0 1 0-2.126 1.354 1.26 1.26 0 0 0 2.126-1.355ZM178.804-61.57a.97.97 0 1 0-1.636 1.043.97.97 0 0 0 1.636-1.043ZM189.483-68.371a.69.69 0 1 0-1.164.742.69.69 0 0 0 1.164-.742ZM7.85 31.964a.65.65 0 1 0-1.096.698.65.65 0 0 0 1.097-.698ZM18.977 24.878a.9.9 0 1 0-1.518.967.9.9 0 0 0 1.518-.967ZM30.103 17.792a1.15 1.15 0 1 0-1.94 1.235 1.15 1.15 0 0 0 1.94-1.235ZM41.23 10.706a1.4 1.4 0 1 0-2.362 1.504 1.4 1.4 0 0 0 2.362-1.504ZM52.356 3.62a1.65 1.65 0 1 0-2.783 1.772 1.65 1.65 0 0 0 2.783-1.772ZM63.482-3.466a1.9 1.9 0 1 0-3.205 2.041 1.9 1.9 0 0 0 3.205-2.041ZM74.609-10.553a2.15 2.15 0 1 0-3.627 2.31 2.15 2.15 0 0 0 3.627-2.31ZM85.735-17.639a2.4 2.4 0 1 0-4.049 2.579 2.4 2.4 0 0 0 4.049-2.579ZM96.861-24.725a2.65 2.65 0 1 0-4.47 2.847 2.65 2.65 0 0 0 4.47-2.847ZM107.566-31.542a2.4 2.4 0 1 0-4.05 2.58 2.4 2.4 0 0 0 4.05-2.58ZM118.27-38.36a2.15 2.15 0 1 0-3.626 2.31 2.15 2.15 0 0 0 3.626-2.31ZM128.975-45.177a1.9 1.9 0 1 0-3.205 2.04 1.9 1.9 0 0 0 3.205-2.04ZM139.679-51.995a1.65 1.65 0 1 0-2.783 1.772 1.65 1.65 0 0 0 2.783-1.772ZM150.384-58.812a1.4 1.4 0 1 0-2.362 1.504 1.4 1.4 0 0 0 2.362-1.504ZM161.088-65.63a1.15 1.15 0 1 0-1.939 1.234 1.15 1.15 0 0 0 1.939-1.234ZM171.793-72.447a.9.9 0 1 0-1.519.967.9.9 0 0 0 1.519-.967ZM182.498-79.265a.65.65 0 1 0-1.097.7.65.65 0 0 0 1.097-.7ZM11.966 14a.83.83 0 1 0-1.4.892.83.83 0 0 0 1.4-.892ZM23.059 6.936a1.04 1.04 0 1 0-1.755 1.117 1.04 1.04 0 0 0 1.755-1.117ZM34.16-.134a1.26 1.26 0 1 0-2.126 1.353A1.26 1.26 0 0 0 34.16-.134ZM45.252-7.2a1.47 1.47 0 1 0-2.48 1.58 1.47 1.47 0 0 0 2.48-1.58ZM56.353-14.27a1.69 1.69 0 1 0-2.85 1.817 1.69 1.69 0 0 0 2.85-1.816ZM67.446-21.334a1.9 1.9 0 1 0-3.205 2.042 1.9 1.9 0 0 0 3.205-2.042ZM78.547-28.404a2.12 2.12 0 1 0-3.576 2.278 2.12 2.12 0 0 0 3.576-2.278ZM89.64-35.468a2.33 2.33 0 1 0-3.931 2.503 2.33 2.33 0 0 0 3.93-2.503ZM100.378-42.307a2.12 2.12 0 1 0-3.577 2.278 2.12 2.12 0 0 0 3.577-2.278ZM111.108-49.14a1.901 1.901 0 1 0-3.206 2.042 1.901 1.901 0 0 0 3.206-2.043ZM121.846-55.98a1.69 1.69 0 1 0-2.85 1.816 1.69 1.69 0 0 0 2.85-1.816ZM132.576-62.814a1.47 1.47 0 1 0-2.48 1.58 1.47 1.47 0 0 0 2.48-1.58ZM143.314-69.653a1.26 1.26 0 1 0-2.126 1.355 1.26 1.26 0 0 0 2.126-1.355ZM154.044-76.486a1.04 1.04 0 1 0-1.755 1.118 1.04 1.04 0 0 0 1.755-1.118ZM164.782-83.325a.83.83 0 1 0-1.4.891.83.83 0 0 0 1.4-.891ZM4.955 3.122a.76.76 0 1 0-1.282.817.76.76 0 0 0 1.282-.817ZM16.023-3.926a.94.94 0 1 0-1.586 1.01.94.94 0 0 0 1.586-1.01ZM27.09-10.975A1.12 1.12 0 1 0 25.2-9.77a1.12 1.12 0 0 0 1.89-1.204ZM38.149-18.018a1.29 1.29 0 1 0-2.176 1.386 1.29 1.29 0 0 0 2.176-1.386ZM49.216-25.066a1.47 1.47 0 1 0-2.48 1.58 1.47 1.47 0 0 0 2.48-1.58ZM60.283-32.115a1.65 1.65 0 1 0-2.783 1.773 1.65 1.65 0 0 0 2.783-1.773ZM71.35-39.163a1.83 1.83 0 1 0-3.087 1.965 1.83 1.83 0 0 0 3.087-1.965ZM82.418-46.212a2.01 2.01 0 1 0-3.391 2.16 2.01 2.01 0 0 0 3.39-2.16ZM93.181-53.067a1.83 1.83 0 1 0-3.087 1.966 1.83 1.83 0 0 0 3.087-1.966ZM103.945-59.922a1.65 1.65 0 1 0-2.783 1.773 1.65 1.65 0 0 0 2.783-1.773ZM114.708-66.777a1.47 1.47 0 1 0-2.479 1.578 1.47 1.47 0 0 0 2.479-1.578ZM125.472-73.632a1.29 1.29 0 1 0-2.176 1.386 1.29 1.29 0 0 0 2.176-1.386ZM136.244-80.493a1.12 1.12 0 1 0-1.889 1.202 1.12 1.12 0 0 0 1.889-1.202ZM147.008-87.348a.94.94 0 1 0-1.586 1.01.94.94 0 0 0 1.586-1.01ZM157.771-94.203a.76.76 0 1 0-1.282.815.76.76 0 0 0 1.282-.815ZM8.978-14.783a.83.83 0 1 0-1.4.892.83.83 0 0 0 1.4-.892ZM20.012-21.81a.97.97 0 1 0-1.637 1.043.97.97 0 0 0 1.637-1.043ZM31.053-28.842a1.12 1.12 0 1 0-1.889 1.203 1.12 1.12 0 0 0 1.89-1.203ZM42.087-35.869a1.26 1.26 0 1 0-2.126 1.354 1.26 1.26 0 0 0 2.126-1.354ZM53.12-42.896a1.4 1.4 0 1 0-2.361 1.504 1.4 1.4 0 0 0 2.361-1.504ZM64.154-49.923a1.54 1.54 0 1 0-2.598 1.654 1.54 1.54 0 0 0 2.598-1.654ZM75.196-56.955a1.69 1.69 0 1 0-2.85 1.815 1.69 1.69 0 0 0 2.85-1.815ZM85.985-63.827a1.54 1.54 0 1 0-2.598 1.655 1.54 1.54 0 0 0 2.598-1.655ZM96.782-70.703A1.4 1.4 0 1 0 94.42-69.2a1.4 1.4 0 0 0 2.362-1.504ZM107.58-77.58a1.26 1.26 0 1 0-2.126 1.355 1.26 1.26 0 0 0 2.126-1.355ZM118.377-84.456a1.12 1.12 0 1 0-1.889 1.202 1.12 1.12 0 0 0 1.889-1.202ZM129.166-91.328a.97.97 0 1 0-1.636 1.042.97.97 0 0 0 1.636-1.042ZM139.963-98.204a.83.83 0 1 0-1.4.891.83.83 0 0 0 1.4-.891ZM1.933-25.639a.72.72 0 1 0-1.214.774.72.72 0 0 0 1.214-.774ZM12.942-32.65a.83.83 0 1 0-1.4.892.83.83 0 0 0 1.4-.892ZM23.95-39.66a.94.94 0 1 0-1.586 1.01.94.94 0 0 0 1.586-1.01ZM34.95-46.666a1.04 1.04 0 1 0-1.755 1.117 1.04 1.04 0 0 0 1.755-1.117ZM45.958-53.677a1.15 1.15 0 1 0-1.94 1.235 1.15 1.15 0 0 0 1.94-1.235ZM56.966-60.688a1.26 1.26 0 1 0-2.126 1.354 1.26 1.26 0 0 0 2.126-1.354ZM67.974-67.699a1.37 1.37 0 1 0-2.31 1.472 1.37 1.37 0 0 0 2.31-1.472ZM78.797-74.592a1.26 1.26 0 1 0-2.126 1.354 1.26 1.26 0 0 0 2.126-1.354ZM89.62-81.484a1.15 1.15 0 1 0-1.94 1.235 1.15 1.15 0 0 0 1.94-1.235ZM100.442-88.377a1.04 1.04 0 1 0-1.754 1.117 1.04 1.04 0 0 0 1.754-1.117ZM111.273-95.275a.94.94 0 1 0-1.586 1.01.94.94 0 0 0 1.586-1.01ZM122.096-102.168a.83.83 0 1 0-1.4.894.83.83 0 0 0 1.4-.894ZM132.919-109.061a.72.72 0 1 0-1.215.776.72.72 0 0 0 1.215-.776ZM16.846-50.48a.76.76 0 1 0-1.282.817.76.76 0 0 0 1.282-.816ZM27.82-57.469a.83.83 0 1 0-1.4.892.83.83 0 0 0 1.4-.892ZM38.795-64.458a.9.9 0 1 0-1.518.966.9.9 0 0 0 1.518-.966ZM49.77-71.448a.97.97 0 1 0-1.637 1.042.97.97 0 0 0 1.637-1.042ZM60.744-78.437a1.04 1.04 0 1 0-1.754 1.117 1.04 1.04 0 0 0 1.754-1.117ZM71.6-85.351a.97.97 0 1 0-1.636 1.042.97.97 0 0 0 1.636-1.042ZM82.457-92.265a.9.9 0 1 0-1.518.966.9.9 0 0 0 1.518-.966ZM93.313-99.18a.83.83 0 1 0-1.4.892.83.83 0 0 0 1.4-.892ZM104.17-106.094a.76.76 0 1 0-1.282.816.76.76 0 0 0 1.282-.816ZM31.633-75.24a.65.65 0 1 0-1.097.699.65.65 0 0 0 1.096-.698ZM42.582-82.213a.69.69 0 1 0-1.164.742.69.69 0 0 0 1.164-.742ZM53.522-89.18a.72.72 0 1 0-1.214.773.72.72 0 0 0 1.214-.774ZM64.412-96.116a.69.69 0 1 0-1.163.741.69.69 0 0 0 1.163-.741ZM75.294-103.047a.65.65 0 1 0-1.095.7.65.65 0 0 0 1.095-.7Z"/></svg>
