<svg xmlns="http://www.w3.org/2000/svg" fill="none" viewBox="0 0 162 222"><path fill="#48484A" d="M19.481 165.894a.65.65 0 1 0-.918-.919.65.65 0 0 0 .918.919ZM28.66 175.073a.69.69 0 1 0-.976-.976.69.69 0 0 0 .976.976ZM37.832 184.245a.72.72 0 1 0-1.017-1.018.72.72 0 0 0 1.017 1.018ZM46.962 193.375a.69.69 0 1 0-.977-.976.69.69 0 0 0 .977.976ZM56.084 202.497a.65.65 0 1 0-.918-.919.65.65 0 0 0 .918.919ZM10.408 138.519a.759.759 0 1 0-1.073-1.074.759.759 0 0 0 1.073 1.074ZM19.608 147.72a.83.83 0 1 0-1.174-1.174.83.83 0 0 0 1.174 1.174ZM28.809 156.92a.9.9 0 1 0-1.273-1.273.9.9 0 0 0 1.273 1.273ZM38.01 166.12a.97.97 0 1 0-1.373-1.372.97.97 0 0 0 1.372 1.372ZM47.21 175.32a1.04 1.04 0 1 0-1.47-1.47 1.04 1.04 0 0 0 1.47 1.47ZM56.31 184.422a.97.97 0 1 0-1.372-1.372.97.97 0 0 0 1.373 1.372ZM65.412 193.523a.9.9 0 1 0-1.273-1.273.9.9 0 0 0 1.273 1.273ZM74.513 202.624a.83.83 0 1 0-1.172-1.173.83.83 0 0 0 1.172 1.173ZM83.615 211.726a.76.76 0 1 0-1.076-1.075.76.76 0 0 0 1.076 1.075ZM1.23 111.039a.72.72 0 1 0-1.021-1.019.72.72 0 0 0 1.02 1.019ZM10.458 120.267a.83.83 0 1 0-1.175-1.174.83.83 0 0 0 1.175 1.174ZM19.686 129.496a.94.94 0 1 0-1.33-1.33.94.94 0 0 0 1.33 1.33ZM28.908 138.717a1.04 1.04 0 1 0-1.47-1.47 1.04 1.04 0 0 0 1.47 1.47ZM38.136 147.946a1.15 1.15 0 1 0-1.625-1.626 1.15 1.15 0 0 0 1.625 1.626ZM47.365 157.174a1.259 1.259 0 1 0-1.78-1.781 1.259 1.259 0 0 0 1.78 1.781ZM56.593 166.403a1.37 1.37 0 1 0-1.936-1.937 1.37 1.37 0 0 0 1.937 1.937ZM65.666 175.476a1.26 1.26 0 1 0-1.781-1.782 1.26 1.26 0 0 0 1.782 1.782ZM74.74 184.549a1.15 1.15 0 1 0-1.626-1.626 1.15 1.15 0 0 0 1.626 1.626ZM83.813 193.622a1.04 1.04 0 1 0-1.472-1.471 1.04 1.04 0 0 0 1.472 1.471ZM92.893 202.702a.94.94 0 1 0-1.329-1.329.94.94 0 0 0 1.329 1.329ZM101.966 211.775a.83.83 0 1 0-1.175-1.174.83.83 0 0 0 1.175 1.174ZM111.039 220.848a.72.72 0 1 0-1.019-1.018.72.72 0 0 0 1.019 1.018ZM10.458 101.966a.83.83 0 1 0-1.175-1.174.83.83 0 0 0 1.175 1.174ZM19.707 111.215a.97.97 0 1 0-1.37-1.371.97.97 0 0 0 1.37 1.371ZM28.964 120.472a1.12 1.12 0 1 0-1.584-1.584 1.12 1.12 0 0 0 1.584 1.584ZM38.214 129.722a1.26 1.26 0 1 0-1.782-1.782 1.26 1.26 0 0 0 1.782 1.782ZM47.464 138.972a1.4 1.4 0 1 0-1.98-1.98 1.4 1.4 0 0 0 1.98 1.98ZM56.714 148.222a1.54 1.54 0 1 0-2.178-2.178 1.54 1.54 0 0 0 2.178 2.178ZM65.97 157.479a1.691 1.691 0 1 0-2.392-2.391 1.691 1.691 0 0 0 2.393 2.391ZM75.015 166.523a1.54 1.54 0 1 0-2.178-2.178 1.54 1.54 0 0 0 2.178 2.178ZM84.067 175.575a1.4 1.4 0 1 0-1.98-1.98 1.4 1.4 0 0 0 1.98 1.98ZM93.119 184.627a1.26 1.26 0 1 0-1.782-1.782 1.26 1.26 0 0 0 1.782 1.782ZM102.171 193.679a1.12 1.12 0 1 0-1.586-1.584 1.12 1.12 0 0 0 1.586 1.584ZM111.215 202.723a.969.969 0 1 0-1.369-1.371.969.969 0 0 0 1.369 1.371ZM120.267 211.775a.83.83 0 1 0-1.175-1.174.83.83 0 0 0 1.175 1.174ZM10.408 83.615a.76.76 0 1 0-1.075-1.075.76.76 0 0 0 1.075 1.075ZM19.686 92.893a.94.94 0 1 0-1.329-1.33.94.94 0 0 0 1.33 1.33ZM28.964 102.171a1.12 1.12 0 1 0-1.584-1.584 1.12 1.12 0 0 0 1.584 1.584ZM38.235 111.442a1.29 1.29 0 1 0-1.826-1.825 1.29 1.29 0 0 0 1.826 1.825ZM47.513 120.72a1.47 1.47 0 1 0-2.079-2.079 1.47 1.47 0 0 0 2.08 2.079ZM56.791 129.998a1.65 1.65 0 1 0-2.334-2.334 1.65 1.65 0 0 0 2.334 2.334ZM66.07 139.276a1.83 1.83 0 1 0-2.589-2.588 1.83 1.83 0 0 0 2.589 2.588ZM75.348 148.554a2.01 2.01 0 1 0-2.844-2.843 2.01 2.01 0 0 0 2.844 2.843ZM84.371 157.578a1.83 1.83 0 1 0-2.588-2.588 1.83 1.83 0 0 0 2.588 2.588ZM93.395 166.601a1.65 1.65 0 1 0-2.333-2.333 1.65 1.65 0 0 0 2.333 2.333ZM102.418 175.625a1.47 1.47 0 1 0-2.08-2.079 1.47 1.47 0 0 0 2.08 2.079ZM111.442 184.648a1.291 1.291 0 0 0-1.825-1.824 1.291 1.291 0 0 0 1.825 1.824ZM120.472 193.679a1.119 1.119 0 1 0-1.584-1.584 1.12 1.12 0 0 0 1.584 1.584ZM129.496 202.702a.94.94 0 1 0-1.329-1.329.94.94 0 0 0 1.329 1.329ZM138.519 211.726a.76.76 0 1 0-1.074-1.075.76.76 0 0 0 1.074 1.075ZM19.608 74.513a.83.83 0 1 0-1.173-1.174.83.83 0 0 0 1.174 1.174ZM28.908 83.813a1.04 1.04 0 1 0-1.471-1.471 1.04 1.04 0 0 0 1.47 1.47ZM38.214 93.119a1.26 1.26 0 1 0-1.782-1.782 1.26 1.26 0 0 0 1.782 1.782ZM47.513 102.418a1.47 1.47 0 1 0-2.079-2.079 1.47 1.47 0 0 0 2.08 2.079ZM56.82 111.725a1.69 1.69 0 1 0-2.39-2.39 1.69 1.69 0 0 0 2.39 2.39ZM66.12 121.024a1.9 1.9 0 1 0-2.688-2.687 1.9 1.9 0 0 0 2.687 2.687ZM75.425 130.33a2.12 2.12 0 1 0-2.997-2.998 2.12 2.12 0 0 0 2.997 2.998ZM84.725 139.629a2.33 2.33 0 1 0-3.295-3.295 2.33 2.33 0 0 0 3.295 3.295ZM93.727 148.632a2.12 2.12 0 1 0-2.998-2.998 2.12 2.12 0 0 0 2.998 2.998ZM102.722 157.627a1.9 1.9 0 1 0-2.687-2.687 1.9 1.9 0 0 0 2.687 2.687ZM111.725 166.629a1.69 1.69 0 1 0-2.39-2.39 1.69 1.69 0 0 0 2.39 2.39ZM120.72 175.625a1.47 1.47 0 1 0-2.08-2.079 1.47 1.47 0 0 0 2.08 2.079ZM129.722 184.627a1.26 1.26 0 1 0-1.782-1.782 1.26 1.26 0 0 0 1.782 1.782ZM138.717 193.622a1.04 1.04 0 1 0-1.472-1.471 1.04 1.04 0 0 0 1.472 1.471ZM147.72 202.624a.83.83 0 1 0-1.173-1.173.83.83 0 0 0 1.173 1.173ZM19.481 56.084a.65.65 0 1 0-.919-.919.65.65 0 0 0 .92.92ZM28.809 65.412a.9.9 0 1 0-1.273-1.273.9.9 0 0 0 1.273 1.273ZM38.136 74.74a1.15 1.15 0 1 0-1.626-1.627 1.15 1.15 0 0 0 1.626 1.627ZM47.464 84.067a1.4 1.4 0 1 0-1.98-1.98 1.4 1.4 0 0 0 1.98 1.98ZM56.791 93.395a1.65 1.65 0 1 0-2.333-2.334 1.65 1.65 0 0 0 2.334 2.334ZM66.12 102.722a1.9 1.9 0 1 0-2.688-2.687 1.9 1.9 0 0 0 2.687 2.687ZM75.447 112.05a2.15 2.15 0 1 0-3.042-3.041 2.15 2.15 0 0 0 3.042 3.041ZM84.774 121.377a2.4 2.4 0 1 0-3.393-3.394 2.4 2.4 0 0 0 3.393 3.394ZM94.102 130.705a2.65 2.65 0 1 0-3.749-3.748 2.65 2.65 0 0 0 3.749 3.748ZM103.076 139.679a2.4 2.4 0 1 0-3.395-3.394 2.4 2.4 0 0 0 3.395 3.394ZM112.05 148.653a2.152 2.152 0 0 0 0-3.041 2.152 2.152 0 0 0-3.041 0 2.15 2.15 0 1 0 3.041 3.041ZM121.024 157.627a1.9 1.9 0 1 0-2.687-2.687 1.9 1.9 0 0 0 2.687 2.687ZM129.998 166.601a1.65 1.65 0 1 0-2.334-2.333 1.65 1.65 0 0 0 2.334 2.333ZM138.972 175.575a1.4 1.4 0 1 0-1.979-1.98 1.4 1.4 0 0 0 1.979 1.98ZM147.946 184.549a1.15 1.15 0 1 0-1.626-1.626 1.15 1.15 0 0 0 1.626 1.626ZM156.92 193.523a.901.901 0 0 0-1.273-1.273.901.901 0 0 0 1.273 1.273ZM165.894 202.497a.65.65 0 1 0-.918-.919.65.65 0 0 0 .918.919ZM28.66 46.962a.69.69 0 1 0-.975-.976.69.69 0 0 0 .975.976ZM38.01 56.31a.97.97 0 1 0-1.373-1.371.97.97 0 0 0 1.372 1.372ZM47.365 65.666a1.26 1.26 0 1 0-1.782-1.781 1.26 1.26 0 0 0 1.782 1.782ZM56.714 75.015a1.54 1.54 0 1 0-2.178-2.178 1.54 1.54 0 0 0 2.178 2.178ZM66.07 84.371a1.83 1.83 0 1 0-2.589-2.588 1.83 1.83 0 0 0 2.589 2.588ZM75.425 93.727a2.12 2.12 0 1 0-2.998-2.998 2.12 2.12 0 0 0 2.998 2.998ZM84.774 103.076a2.4 2.4 0 1 0-3.394-3.394 2.4 2.4 0 0 0 3.394 3.394ZM94.13 112.432a2.69 2.69 0 1 0-3.806-3.805 2.69 2.69 0 0 0 3.806 3.805ZM103.486 121.788a2.98 2.98 0 1 0-4.215-4.215 2.98 2.98 0 0 0 4.215 4.215ZM112.432 130.733a2.69 2.69 0 1 0-3.806-3.804 2.69 2.69 0 0 0 3.806 3.804ZM121.377 139.679a2.4 2.4 0 1 0-3.394-3.393 2.4 2.4 0 0 0 3.394 3.393ZM130.33 148.632a2.12 2.12 0 1 0-2.997-2.998 2.12 2.12 0 0 0 2.997 2.998ZM139.276 157.578a1.83 1.83 0 1 0-2.586-2.588 1.83 1.83 0 0 0 2.586 2.588ZM148.222 166.523a1.54 1.54 0 1 0-2.18-2.178 1.54 1.54 0 0 0 2.18 2.178ZM157.174 175.476a1.259 1.259 0 1 0-1.781-1.784 1.259 1.259 0 0 0 1.781 1.784ZM166.12 184.422a.97.97 0 1 0-1.371-1.372.97.97 0 0 0 1.371 1.372ZM175.073 193.375a.691.691 0 0 0-.976-.976.691.691 0 0 0 .976.976ZM37.832 37.832a.72.72 0 1 0-1.018-1.018.72.72 0 0 0 1.018 1.018ZM47.21 47.21a1.04 1.04 0 1 0-1.472-1.471 1.04 1.04 0 0 0 1.471 1.47ZM56.593 56.593a1.37 1.37 0 1 0-1.937-1.937 1.37 1.37 0 0 0 1.938 1.938ZM65.97 65.97a1.69 1.69 0 1 0-2.39-2.39 1.69 1.69 0 0 0 2.39 2.39ZM75.348 75.348a2.01 2.01 0 1 0-2.843-2.843 2.01 2.01 0 0 0 2.843 2.843ZM84.725 84.725a2.33 2.33 0 1 0-3.295-3.295 2.33 2.33 0 0 0 3.295 3.295ZM94.102 94.102a2.65 2.65 0 1 0-3.748-3.748 2.65 2.65 0 0 0 3.748 3.748ZM103.486 103.486a2.98 2.98 0 1 0-4.213-4.214 2.98 2.98 0 0 0 4.213 4.214ZM112.863 112.863a3.3 3.3 0 1 0-4.666-4.667 3.3 3.3 0 0 0 4.666 4.667ZM121.788 121.788a2.98 2.98 0 1 0-4.215-4.215 2.98 2.98 0 0 0 4.215 4.215ZM130.705 130.705a2.65 2.65 0 1 0-3.748-3.748 2.65 2.65 0 0 0 3.748 3.748ZM139.629 139.629a2.33 2.33 0 1 0-3.294-3.295 2.33 2.33 0 0 0 3.294 3.295ZM148.554 148.554a2.01 2.01 0 1 0-2.843-2.843 2.01 2.01 0 0 0 2.843 2.843ZM157.479 157.479a1.691 1.691 0 1 0-2.392-2.391 1.691 1.691 0 0 0 2.392 2.391ZM166.403 166.403a1.37 1.37 0 1 0-1.936-1.937 1.37 1.37 0 0 0 1.936 1.937ZM175.32 175.32a1.04 1.04 0 1 0-1.47-1.47 1.04 1.04 0 0 0 1.47 1.47ZM184.245 184.245a.72.72 0 1 0-1.019-1.018.72.72 0 0 0 1.019 1.018ZM46.962 28.66a.69.69 0 1 0-.976-.976.69.69 0 0 0 .976.976ZM56.31 38.01a.97.97 0 1 0-1.371-1.373.97.97 0 0 0 1.372 1.372ZM65.666 47.365a1.26 1.26 0 1 0-1.781-1.782 1.26 1.26 0 0 0 1.782 1.782ZM75.015 56.714a1.54 1.54 0 1 0-2.178-2.178 1.54 1.54 0 0 0 2.178 2.178ZM84.371 66.07a1.83 1.83 0 1 0-2.588-2.588 1.83 1.83 0 0 0 2.588 2.588ZM93.727 75.425a2.12 2.12 0 1 0-2.998-2.998 2.12 2.12 0 0 0 2.998 2.998ZM103.076 84.774a2.4 2.4 0 1 0-3.395-3.394 2.4 2.4 0 0 0 3.395 3.394ZM112.432 94.13a2.691 2.691 0 1 0-3.807-3.804 2.691 2.691 0 0 0 3.807 3.804ZM121.788 103.486a2.981 2.981 0 0 0-4.215-4.214 2.98 2.98 0 1 0 4.215 4.214ZM130.733 112.432a2.69 2.69 0 1 0-3.804-3.805 2.69 2.69 0 0 0 3.804 3.805ZM139.679 121.377a2.4 2.4 0 1 0-3.395-3.394 2.4 2.4 0 0 0 3.395 3.394ZM148.632 130.33a2.12 2.12 0 1 0-2.997-2.998 2.12 2.12 0 0 0 2.997 2.998ZM157.578 139.276a1.831 1.831 0 0 0-2.588-2.588 1.83 1.83 0 1 0 2.588 2.588ZM166.523 148.222a1.54 1.54 0 1 0-2.178-2.178 1.54 1.54 0 0 0 2.178 2.178ZM175.476 157.174a1.259 1.259 0 1 0-1.78-1.781 1.259 1.259 0 0 0 1.78 1.781ZM184.422 166.12a.97.97 0 1 0-1.371-1.372.97.97 0 0 0 1.371 1.372ZM193.375 175.073a.691.691 0 1 0-.979-.976.691.691 0 0 0 .979.976ZM56.084 19.481a.65.65 0 1 0-.919-.919.65.65 0 0 0 .92.92ZM65.412 28.809a.9.9 0 1 0-1.273-1.273.9.9 0 0 0 1.273 1.273ZM74.74 38.136a1.15 1.15 0 1 0-1.627-1.626 1.15 1.15 0 0 0 1.627 1.626ZM84.067 47.464a1.4 1.4 0 1 0-1.98-1.98 1.4 1.4 0 0 0 1.98 1.98ZM93.395 56.791a1.65 1.65 0 1 0-2.334-2.333 1.65 1.65 0 0 0 2.334 2.334ZM102.722 66.12a1.9 1.9 0 1 0-2.687-2.688 1.9 1.9 0 0 0 2.687 2.687ZM112.05 75.447a2.151 2.151 0 0 0-3.041-3.04 2.151 2.151 0 0 0 3.041 3.04ZM121.377 84.774a2.4 2.4 0 1 0-3.394-3.395 2.4 2.4 0 0 0 3.394 3.395ZM130.705 94.102a2.65 2.65 0 1 0-3.747-3.748 2.65 2.65 0 0 0 3.747 3.748ZM139.679 103.076a2.4 2.4 0 1 0-3.396-3.394 2.4 2.4 0 0 0 3.396 3.394ZM148.653 112.05a2.15 2.15 0 1 0-3.04-3.041 2.15 2.15 0 0 0 3.04 3.041ZM157.627 121.024a1.9 1.9 0 1 0-2.687-2.687 1.9 1.9 0 0 0 2.687 2.687ZM166.601 129.998a1.65 1.65 0 1 0-2.333-2.334 1.65 1.65 0 0 0 2.333 2.334ZM175.575 138.972a1.4 1.4 0 1 0-1.979-1.98 1.4 1.4 0 0 0 1.979 1.98ZM184.549 147.946a1.15 1.15 0 1 0-1.626-1.626 1.15 1.15 0 0 0 1.626 1.626ZM193.523 156.92a.9.9 0 1 0-1.27-1.273.9.9 0 0 0 1.27 1.273ZM202.497 165.894a.65.65 0 1 0-.918-.919.65.65 0 0 0 .918.919ZM74.513 19.608a.83.83 0 1 0-1.174-1.173.83.83 0 0 0 1.174 1.174ZM83.813 28.908a1.04 1.04 0 1 0-1.471-1.471 1.04 1.04 0 0 0 1.47 1.47ZM93.119 38.214a1.26 1.26 0 1 0-1.782-1.782 1.26 1.26 0 0 0 1.782 1.782ZM102.418 47.513a1.47 1.47 0 1 0-2.08-2.078 1.47 1.47 0 0 0 2.08 2.078ZM111.725 56.82a1.69 1.69 0 1 0-2.39-2.39 1.69 1.69 0 0 0 2.39 2.39ZM121.024 66.12a1.9 1.9 0 1 0-2.687-2.688 1.9 1.9 0 0 0 2.687 2.687ZM130.33 75.425a2.12 2.12 0 1 0-2.998-2.998 2.12 2.12 0 0 0 2.998 2.998ZM139.629 84.725a2.33 2.33 0 1 0-3.295-3.295 2.33 2.33 0 0 0 3.295 3.295ZM148.632 93.727a2.12 2.12 0 1 0-2.998-2.998 2.12 2.12 0 0 0 2.998 2.998ZM157.627 102.722a1.9 1.9 0 1 0-2.687-2.687 1.9 1.9 0 0 0 2.687 2.687ZM166.629 111.725a1.69 1.69 0 1 0-2.39-2.39 1.69 1.69 0 0 0 2.39 2.39ZM175.625 120.72a1.47 1.47 0 1 0-2.08-2.079 1.47 1.47 0 0 0 2.08 2.079ZM184.627 129.722a1.26 1.26 0 1 0-1.782-1.782 1.26 1.26 0 0 0 1.782 1.782ZM193.622 138.717a1.04 1.04 0 1 0-1.47-1.47 1.04 1.04 0 0 0 1.47 1.47ZM202.624 147.72a.829.829 0 1 0-1.173-1.174.829.829 0 1 0 1.173 1.174ZM83.615 10.408a.76.76 0 1 0-1.075-1.075.76.76 0 0 0 1.075 1.075ZM92.893 19.686a.94.94 0 1 0-1.33-1.33.94.94 0 0 0 1.33 1.33ZM102.171 28.964a1.12 1.12 0 1 0-1.586-1.584 1.12 1.12 0 0 0 1.586 1.584ZM111.442 38.235a1.291 1.291 0 0 0-1.825-1.824 1.29 1.29 0 0 0 1.825 1.824ZM120.72 47.513a1.47 1.47 0 1 0-2.08-2.078 1.47 1.47 0 0 0 2.08 2.078ZM129.998 56.791a1.65 1.65 0 1 0-2.335-2.333 1.65 1.65 0 0 0 2.335 2.334ZM139.276 66.07a1.83 1.83 0 1 0-2.586-2.588 1.83 1.83 0 0 0 2.586 2.588ZM148.554 75.348a2.01 2.01 0 1 0-2.842-2.843 2.01 2.01 0 0 0 2.842 2.843ZM157.578 84.371a1.83 1.83 0 1 0-2.588-2.588 1.83 1.83 0 0 0 2.588 2.588ZM166.601 93.395a1.65 1.65 0 1 0-2.335-2.334 1.65 1.65 0 0 0 2.335 2.334ZM175.625 102.418a1.47 1.47 0 1 0-2.08-2.079 1.47 1.47 0 0 0 2.08 2.079ZM184.648 111.442a1.29 1.29 0 1 0-1.825-1.825 1.29 1.29 0 0 0 1.825 1.825ZM193.679 120.472a1.12 1.12 0 1 0-1.586-1.584 1.12 1.12 0 0 0 1.586 1.584ZM202.702 129.496a.94.94 0 1 0-1.331-1.33.94.94 0 0 0 1.331 1.33ZM211.726 138.519a.76.76 0 1 0-1.077-1.074.76.76 0 0 0 1.077 1.074ZM101.966 10.458a.83.83 0 1 0-1.174-1.174.83.83 0 0 0 1.174 1.174ZM111.215 19.707a.97.97 0 1 0-1.37-1.371.97.97 0 0 0 1.37 1.372ZM120.472 28.964a1.119 1.119 0 1 0-1.584-1.584 1.12 1.12 0 0 0 1.584 1.584ZM129.722 38.214a1.26 1.26 0 1 0-1.782-1.782 1.26 1.26 0 0 0 1.782 1.782ZM138.972 47.464a1.4 1.4 0 1 0-1.979-1.98 1.4 1.4 0 0 0 1.979 1.98ZM148.222 56.714a1.54 1.54 0 1 0-2.18-2.178 1.54 1.54 0 0 0 2.18 2.178ZM157.479 65.97a1.69 1.69 0 1 0-2.39-2.39 1.69 1.69 0 0 0 2.39 2.39ZM166.523 75.015a1.539 1.539 0 1 0-2.178-2.178 1.54 1.54 0 0 0 2.178 2.178ZM175.575 84.067a1.4 1.4 0 1 0-1.979-1.98 1.4 1.4 0 0 0 1.979 1.98ZM184.627 93.119a1.26 1.26 0 1 0-1.782-1.782 1.26 1.26 0 0 0 1.782 1.782ZM193.679 102.171a1.12 1.12 0 1 0-1.586-1.584 1.12 1.12 0 0 0 1.586 1.584ZM202.723 111.215a.969.969 0 1 0-1.369-1.371.969.969 0 0 0 1.369 1.371ZM211.775 120.267a.83.83 0 1 0-1.175-1.174.83.83 0 0 0 1.175 1.174ZM111.039 1.23a.72.72 0 1 0-1.02-1.02.72.72 0 0 0 1.02 1.02ZM120.267 10.458a.83.83 0 1 0-1.174-1.174.83.83 0 0 0 1.174 1.174ZM129.496 19.686a.94.94 0 1 0-1.33-1.33.94.94 0 0 0 1.33 1.33ZM138.717 28.908a1.04 1.04 0 1 0-1.472-1.471 1.04 1.04 0 0 0 1.472 1.47ZM147.946 38.136a1.15 1.15 0 1 0-1.627-1.626 1.15 1.15 0 0 0 1.627 1.626ZM157.174 47.365a1.259 1.259 0 1 0-1.781-1.784 1.259 1.259 0 0 0 1.781 1.784ZM166.403 56.593a1.37 1.37 0 1 0-1.938-1.937 1.37 1.37 0 0 0 1.938 1.938ZM175.476 65.666a1.26 1.26 0 1 0-1.782-1.781 1.26 1.26 0 0 0 1.782 1.782ZM184.549 74.74a1.15 1.15 0 1 0-1.627-1.627 1.15 1.15 0 0 0 1.627 1.627ZM193.622 83.813a1.04 1.04 0 1 0-1.471-1.471 1.04 1.04 0 0 0 1.471 1.47ZM202.702 92.893a.94.94 0 1 0-1.33-1.33.94.94 0 0 0 1.33 1.33ZM211.775 101.966a.83.83 0 1 0-1.175-1.174.83.83 0 0 0 1.175 1.174ZM220.848 111.039a.721.721 0 0 0-1.018-1.019.721.721 0 0 0 1.018 1.019ZM138.519 10.408a.76.76 0 1 0-1.074-1.075.76.76 0 0 0 1.074 1.075ZM147.72 19.608a.83.83 0 1 0-1.174-1.173.83.83 0 0 0 1.174 1.174ZM156.92 28.809a.9.9 0 1 0-1.275-1.273.9.9 0 0 0 1.275 1.273ZM166.12 38.01a.97.97 0 1 0-1.37-1.373.97.97 0 0 0 1.37 1.372ZM175.32 47.21a1.039 1.039 0 1 0-1.47-1.473 1.039 1.039 0 0 0 1.47 1.472ZM184.422 56.31a.97.97 0 1 0-1.37-1.371.97.97 0 0 0 1.37 1.372ZM193.523 65.412a.899.899 0 1 0-1.273-1.273.9.9 0 0 0 1.273 1.273ZM202.624 74.513a.829.829 0 1 0-1.173-1.176.829.829 0 0 0 1.173 1.176ZM211.726 83.615a.76.76 0 1 0-1.075-1.074.76.76 0 0 0 1.075 1.073ZM165.894 19.481a.65.65 0 1 0-.918-.919.65.65 0 0 0 .918.92ZM175.073 28.66a.69.69 0 1 0-.978-.976.69.69 0 0 0 .978.976ZM184.245 37.832a.72.72 0 1 0-1.02-1.018.72.72 0 0 0 1.02 1.018ZM193.375 46.962a.69.69 0 1 0-.978-.976.69.69 0 0 0 .978.976ZM202.497 56.084a.65.65 0 1 0-.919-.919.65.65 0 0 0 .919.92Z"/></svg>
