<svg width="37" height="37" viewBox="0 0 37 37" fill="none" xmlns="http://www.w3.org/2000/svg">
<path d="M17.393 3.56491C17.5446 3.99105 17.634 4.43438 17.666 4.89374C17.6424 4.06737 17.4772 3.24248 17.1271 2.52483C17.136 2.55057 17.1455 2.57622 17.1539 2.60196C17.2563 2.91581 17.3352 3.23815 17.393 3.56491Z" fill="#F4EDE5"/>
<path d="M22.1693 2.20193C22.8047 1.8508 23.4538 1.66264 24.0883 1.61068C24.0067 1.58974 23.9254 1.56805 23.8445 1.54438C23.5886 1.46793 23.3284 1.4049 23.0645 1.36419C22.5257 1.28116 21.9506 1.29719 21.4697 1.5829C21.0376 1.83962 20.7276 2.27284 20.5039 2.71358C20.2516 3.21082 20.0817 3.74395 19.858 4.25371C19.6422 4.74515 19.3569 5.19909 19.1009 5.66945C18.9756 5.89961 18.8607 6.13387 18.7675 6.37582C18.7738 6.44336 18.7816 6.51075 18.7904 6.57814C19.3965 4.77508 20.5955 3.0717 22.1693 2.20193Z" fill="#F4EDE5"/>
<path d="M19.1747 4.68585C19.4328 4.21359 19.6175 3.69361 19.8256 3.18763C19.6832 3.37337 19.5478 3.56435 19.4232 3.76266C19.139 4.21536 18.9133 4.71591 18.812 5.24281C18.8045 5.28178 18.7998 5.32093 18.7937 5.35999C18.9199 5.13472 19.0511 4.91204 19.1747 4.68585Z" fill="#F4EDE5"/>
<path d="M18.5337 7.45759C18.5325 7.47791 18.5311 7.49831 18.5302 7.51872C18.533 7.5057 18.5363 7.4926 18.5392 7.47949C18.5374 7.47219 18.5355 7.46489 18.5337 7.45759Z" fill="#F4EDE5"/>
<path d="M9.3807 3.32722C10.1696 2.41207 11.0949 1.59638 12.1627 1.02206C12.626 0.772886 13.105 0.581329 13.6301 0.517482C13.9217 0.48202 14.2192 0.47768 14.5135 0.504198C13.4093 0.33044 12.2178 0.667442 11.2804 1.27486C10.3974 1.84698 9.60959 2.6834 9.13035 3.62196C9.12759 3.62742 9.12526 3.63298 9.12251 3.63844C9.20705 3.53345 9.29268 3.42938 9.3807 3.32722Z" fill="#F4EDE5"/>
<path d="M24.0059 1.15397C24.2706 1.23152 24.5409 1.28826 24.8104 1.34599C25.3451 1.46054 25.8982 1.56974 26.3892 1.81999C26.9081 2.08449 27.3615 2.46125 27.7742 2.86836C28.5934 3.67634 29.2484 4.72783 29.0579 5.92602C28.9841 6.39035 28.8083 6.83128 28.5786 7.24969C28.791 6.95286 28.9753 6.6374 29.0809 6.28581C29.2038 5.87652 29.2154 5.43842 29.1429 5.01903C28.9861 4.11236 28.4428 3.31036 27.8189 2.65526C27.1695 1.9733 26.3767 1.40381 25.5245 1.0036C24.5519 0.546839 23.4226 0.322586 22.403 0.767523C22.3006 0.814895 22.2028 0.869153 22.1071 0.926663C22.1652 0.918093 22.2238 0.910941 22.2831 0.906523C22.8684 0.862816 23.4482 0.987345 24.0059 1.15397Z" fill="#F4EDE5"/>
<path d="M3.95738 25.0779C3.03744 24.2111 2.44572 23.1384 2.05438 21.9495C1.76985 21.085 1.50598 20.2098 1.53535 19.2878C1.58907 17.5999 2.32641 16.2883 3.58702 15.306C4.46729 14.2711 5.69112 13.5405 7.03716 13.2149C8.04343 12.9716 9.1179 12.963 10.1209 13.2268C10.2878 13.2707 10.4513 13.3257 10.6131 13.3865C10.4341 13.258 10.2534 13.1318 10.068 13.0122C9.07122 12.3691 7.96314 11.9732 6.76389 12.0501C5.55708 12.1276 4.3883 12.6045 3.45848 13.3755C2.5137 14.1588 1.8574 15.2416 1.49177 16.4056C0.692198 18.9518 1.3893 21.6891 2.85339 23.8536C3.54687 24.8788 4.41931 25.9368 5.52657 26.5331C5.97846 26.7764 6.44837 26.9104 6.94532 26.9454C6.76067 26.8348 6.56943 26.7303 6.36998 26.6333C5.50769 26.2137 4.66427 25.7439 3.95738 25.0779Z" fill="#F4EDE5"/>
<path d="M10.2041 13.6828C9.73096 13.5396 9.23467 13.4673 8.74108 13.4519C7.75024 13.4212 6.75216 13.6474 5.85951 14.074C5.70644 14.1472 5.55665 14.2271 5.41009 14.3128C6.47695 13.9552 7.6115 13.9094 8.77422 14.0497C9.24 14.1059 9.69961 14.214 10.162 14.2982C10.1581 14.3183 10.1543 14.3383 10.1505 14.3584C10.8767 14.5002 11.5978 14.6968 12.3309 14.7642C12.3856 14.7692 12.4408 14.7716 12.4961 14.7726C12.35 14.6729 12.2059 14.5702 12.063 14.4657C11.9637 14.4243 11.865 14.3817 11.7674 14.3377C11.2522 14.1055 10.7467 13.8471 10.2041 13.6828Z" fill="#F4EDE5"/>
<path d="M20.6359 32.4975C19.5564 33.6793 18.2552 34.4507 16.7029 34.548C15.6552 34.8488 14.5355 34.8659 13.4929 34.5802C14.0071 35.0161 14.604 35.3534 15.2579 35.5119C16.4296 35.7958 17.5876 35.44 18.5443 34.7432C19.5665 33.9987 20.4032 32.9788 21.157 31.9725C21.5171 31.4917 21.8708 30.9499 21.9315 30.3373C21.9546 30.1053 21.9233 29.8854 21.8532 29.6782C21.7772 30.7518 21.3733 31.6902 20.6359 32.4975Z" fill="#F4EDE5"/>
<path d="M21.6494 21.3109C21.6479 21.3173 21.6463 21.3237 21.6448 21.3301C21.6279 21.5066 21.6011 21.6835 21.5634 21.8607C21.7727 21.5276 21.9588 21.1818 22.0995 20.8142C22.2566 20.4038 22.3435 19.9603 22.2538 19.5241C22.1536 19.0368 21.8178 18.6527 21.435 18.3555C21.4047 18.3319 21.3738 18.3096 21.3432 18.2866C21.4814 18.6367 21.596 19.0036 21.6866 19.3879C21.8379 20.0298 21.7994 20.6688 21.6494 21.3109Z" fill="#F4EDE5"/>
<path d="M10.3614 31.2487C10.4627 31.4827 10.5729 31.7129 10.6983 31.9364C11.0043 32.4822 11.4139 32.9487 11.8984 33.3234C11.765 33.1005 11.6454 32.8715 11.543 32.6385C11.536 32.6228 11.5302 32.6067 11.5236 32.5909C11.0738 32.1896 10.694 31.7355 10.3614 31.2487Z" fill="#F4EDE5"/>
<path d="M11.8411 12.9776C11.6963 12.9423 11.5549 12.897 11.4166 12.8439C11.5032 12.8925 11.5924 12.937 11.6861 12.9725C11.9939 13.0891 12.3135 13.1013 12.6231 13.0405C12.3633 13.0611 12.0998 13.0405 11.8411 12.9776Z" fill="#F4EDE5"/>
<path d="M12.5375 12.469C11.8912 12.4313 11.3086 12.2849 10.7952 12.0521C10.9444 12.1467 11.0974 12.2338 11.2525 12.3106C11.73 12.547 12.2622 12.6935 12.7957 12.5949C12.9652 12.5636 13.1271 12.5086 13.2817 12.4365C13.0449 12.4724 12.797 12.4841 12.5375 12.469Z" fill="#F4EDE5"/>
<path d="M16.2305 1.72577C16.0887 1.55477 15.9213 1.40752 15.7274 1.29281C15.9056 1.42001 16.0726 1.56568 16.2305 1.72577Z" fill="#F4EDE5"/>
<path d="M8.42421 6.47327C8.41404 6.42346 8.40347 6.37366 8.39413 6.32369C8.37956 6.24493 8.36614 6.16574 8.35422 6.08623C8.34437 6.21372 8.34579 6.34282 8.36116 6.47303C8.36742 6.52581 8.37577 6.57801 8.38518 6.62997C8.38628 6.62085 8.38745 6.6113 8.38839 6.60268C8.40011 6.55898 8.41241 6.51654 8.42421 6.47327Z" fill="#F4EDE5"/>
<path d="M9.16581 4.27319C9.00899 4.48619 8.8583 4.705 8.73113 4.93724C8.71508 5.09027 8.70913 5.2454 8.71422 5.40246C8.71545 5.44079 8.7186 5.47896 8.72083 5.51721C8.90323 4.98768 9.11035 4.49282 9.35323 4.02998C9.29007 4.11063 9.22691 4.19112 9.16581 4.27319Z" fill="#F4EDE5"/>
<path d="M29.8633 19.2218C29.6714 19.2663 29.4825 19.3219 29.2962 19.3863C29.7131 19.3123 30.1372 19.2698 30.5706 19.2693C31.0164 19.2688 31.4622 19.3385 31.9081 19.3761C32.0984 19.4261 32.2799 19.4859 32.4531 19.5539C32.1542 19.3722 31.8285 19.2358 31.484 19.1668C30.946 19.059 30.3953 19.0984 29.8633 19.2218Z" fill="#F4EDE5"/>
<path d="M24.3518 22.1389C24.9753 21.2276 25.8279 20.5887 26.8487 20.1544C26.9268 20.1212 27.005 20.0886 27.0834 20.0566C27.245 19.9516 27.408 19.8485 27.5741 19.7503C27.7234 19.6621 27.8757 19.5764 28.0305 19.4938C26.9931 19.861 26.026 20.443 25.204 21.1579C24.8002 21.5091 24.3911 21.9146 24.1029 22.3803C24.1826 22.2974 24.266 22.2171 24.3518 22.1389Z" fill="#F4EDE5"/>
<path d="M34.3504 24.9197C34.5002 24.7799 34.6463 24.6345 34.7708 24.4712C34.8689 24.3424 34.966 24.2027 34.9278 24.034C34.9123 23.9657 34.8898 23.9002 34.8634 23.8364C34.7032 24.3518 34.3822 24.8097 34.0147 25.2235C34.1276 25.1239 34.2396 25.0231 34.3504 24.9197Z" fill="#F4EDE5"/>
<path d="M29.1817 27.6621C29.1618 27.6626 29.1421 27.6631 29.1223 27.6635C29.0995 27.6673 29.0767 27.6709 29.054 27.6747C29.0965 27.6709 29.1391 27.6665 29.1817 27.6621Z" fill="#F4EDE5"/>
<path d="M24.1983 14.9824C24.216 14.7741 24.2491 14.5742 24.2938 14.3804C24.1555 14.6772 24.0905 14.9948 24.1451 15.3437C24.1556 15.4102 24.1695 15.4756 24.1866 15.54C24.1789 15.3559 24.1824 15.1695 24.1983 14.9824Z" fill="#F4EDE5"/>
<path d="M29.9982 9.11701C29.9516 9.13697 29.9053 9.1576 29.8591 9.17856C29.8712 9.17585 29.8835 9.17355 29.8957 9.17093C29.9297 9.15276 29.9639 9.13484 29.9982 9.11701Z" fill="#F4EDE5"/>
<path d="M36.0691 13.7689C36.3733 12.7803 36.2156 11.7225 35.6229 10.8768C35.7294 11.0797 35.8127 11.2967 35.8775 11.5293C36.1366 12.4596 36.0309 13.4164 35.6496 14.2816C35.5333 14.5715 35.3781 14.8437 35.1911 15.0981C34.6518 15.8794 33.9137 16.5147 33.1199 17.0278C32.6005 17.3636 32.0544 17.656 31.5007 17.931C31.3069 18.0271 31.1124 18.1235 30.9172 18.2188C32.1663 17.9603 33.3451 17.3434 34.2879 16.4774C35.0822 15.7479 35.7501 14.8059 36.0691 13.7689Z" fill="#F4EDE5"/>
<path d="M10.3613 31.2487C10.6939 31.7355 11.0738 32.1896 11.5234 32.591C10.9772 31.3118 11.0048 29.8306 10.2956 28.6169C9.99829 28.108 9.56533 27.6528 8.9996 27.4529C8.90402 27.4192 8.80703 27.3948 8.70901 27.3765C8.99531 27.7879 9.22293 28.2385 9.41486 28.701C9.76152 29.5367 10.0019 30.4184 10.3613 31.2487Z" fill="white"/>
<path d="M21.646 21.3309C21.6475 21.3245 21.6491 21.3181 21.6506 21.3117C21.8006 20.6696 21.839 20.0306 21.6878 19.3886C21.5972 19.0043 21.4825 18.6374 21.3444 18.2873C21.223 18.1962 21.0997 18.1095 20.9745 18.0269C21.4518 19.0838 21.7539 20.1981 21.646 21.3309Z" fill="white"/>
<path d="M3.37206 23.1536C2.12316 21.4417 1.82818 19.1078 2.53555 17.1197C2.7763 16.4431 3.13734 15.8333 3.58829 15.3031C2.32768 16.2854 1.59035 17.5971 1.53663 19.2849C1.50725 20.207 1.77112 21.0821 2.05565 21.9466C2.447 23.1355 3.03872 24.2082 3.95866 25.075C4.66554 25.741 5.50896 26.2108 6.37125 26.6303C6.57071 26.7274 6.76194 26.8319 6.9466 26.9425C7.07973 26.9518 7.21438 26.9557 7.35161 26.9508C7.49813 26.9455 7.6455 26.9375 7.79302 26.9312C6.45035 25.5341 4.53522 24.7477 3.37206 23.1536Z" fill="white"/>
<path d="M20.9733 23.4279C20.9436 23.4683 20.9138 23.5086 20.8841 23.549C20.5863 24.1214 20.2952 24.6966 20.2399 25.3374C20.1894 25.9242 20.4512 26.4211 20.7584 26.9003C21.0525 27.3591 21.3344 27.8129 21.4469 28.3465C21.5915 28.492 21.7297 28.6434 21.8535 28.8058C21.8118 28.0529 21.6826 27.3151 21.5245 26.577C21.3763 25.885 21.1951 25.1905 21.1476 24.4891C21.1146 24.0031 21.1633 23.5256 21.2487 23.0524C21.1571 23.1778 21.0652 23.3029 20.9733 23.4279Z" fill="white"/>
<path d="M17.8068 34.11C17.4533 34.2925 17.083 34.4383 16.7034 34.5472C18.2557 34.4501 19.5569 33.6786 20.6364 32.4968C21.3737 31.6895 21.7777 30.7511 21.8537 29.6775C21.7767 29.4503 21.6524 29.2385 21.5015 29.0428C21.4706 30.0643 20.974 31.0577 20.3871 31.8695C19.7138 32.8007 18.8287 33.5822 17.8068 34.11Z" fill="white"/>
<path d="M15.3573 14.1941C15.1537 14.2447 14.9513 14.3005 14.7489 14.3561C15.354 14.2721 15.9577 14.1399 16.5671 14.0907C16.1751 14.0583 15.7722 14.0911 15.3573 14.1941Z" fill="white"/>
<path d="M16.0679 34.277C17.1412 34.0687 18.1323 33.5359 18.9525 32.8205C19.7978 32.0831 20.5177 31.1181 20.881 30.0501C21.0441 29.5705 21.125 29.0528 21.0522 28.5495C20.4423 27.9442 19.7362 27.4008 19.502 26.5381C19.1847 25.3691 19.832 24.275 20.4935 23.3647C20.5185 23.3303 20.5438 23.2959 20.569 23.2615C20.7203 22.9632 20.8679 22.6629 20.9847 22.3491C21.1947 21.7843 21.2778 21.1765 21.2381 20.5756C21.1695 19.5366 20.7843 18.5527 20.3068 17.6339C18.4851 16.6689 16.3657 16.3755 14.4039 15.7589C13.8831 15.5943 13.3948 15.3442 12.9306 15.0586C12.7827 14.9674 12.6381 14.8717 12.4949 14.7738C12.4395 14.7729 12.3844 14.7704 12.3296 14.7654C11.5966 14.6979 10.8755 14.5014 10.1492 14.3596C10.1531 14.3396 10.157 14.3195 10.1608 14.2994C9.69838 14.2152 9.23877 14.1071 8.77298 14.0509C7.61035 13.9106 6.4758 13.9564 5.40886 14.314C4.70632 14.7246 4.08641 15.2751 3.61489 15.9404C3.02865 16.7676 2.69605 17.7546 2.60392 18.7608C2.51256 19.7585 2.66098 20.7807 3.04243 21.7077C3.44367 22.6829 4.10247 23.4718 4.91181 24.1373C5.73697 24.8158 6.65235 25.3758 7.46952 26.0644C7.78405 26.3295 8.085 26.6145 8.35437 26.9262C8.67781 26.9382 8.99677 26.9868 9.30266 27.1213C10.4877 27.6429 11.0014 28.9353 11.2812 30.1094C11.4434 30.79 11.5518 31.4883 11.7962 32.1464C11.9376 32.5272 12.1186 32.8917 12.3341 33.2352C13.0952 33.7661 13.9222 34.1529 14.8111 34.3671C15.2315 34.3865 15.654 34.3574 16.0679 34.277Z" fill="white"/>
<path d="M20.9961 17.5383C20.6714 16.9278 20.2657 16.3757 19.7798 15.8812C20.0733 16.3436 20.3648 16.8257 20.6279 17.3236C20.7524 17.3922 20.8752 17.4636 20.9961 17.5383Z" fill="white"/>
<path d="M8.1459 27.3332C7.95176 27.334 7.75612 27.3462 7.56105 27.3575C8.16349 27.8136 8.67063 28.3628 9.08594 29.0129C8.8769 28.489 8.63156 27.9829 8.29493 27.5257C8.24664 27.4601 8.19668 27.3962 8.1459 27.3332Z" fill="white"/>
<path d="M19.8463 25.8625C19.8387 26.1193 19.8756 26.3757 19.9738 26.6212C20.1362 27.0269 20.4294 27.3597 20.7383 27.6652C20.5768 27.3769 20.3813 27.1041 20.2151 26.8211C20.036 26.5161 19.905 26.1981 19.8463 25.8625Z" fill="white"/>
<path d="M18.1922 14.7381C17.4737 14.3763 16.6379 14.4825 15.8731 14.6027C15.0407 14.7337 14.2012 14.9125 13.3548 14.8271C13.7374 15.0458 14.1375 15.233 14.5661 15.3685C15.1761 15.5601 15.7951 15.7191 16.4149 15.8751C17.6119 16.1761 18.8214 16.4721 19.9492 16.9836C19.6897 16.5331 19.4134 16.0923 19.1328 15.6548C18.8933 15.2813 18.594 14.9404 18.1922 14.7381Z" fill="white"/>
<path d="M18.9358 11.4009C18.6614 10.8914 18.5427 10.3035 18.4068 9.74595C18.3954 9.69914 18.3843 9.65215 18.3731 9.60516C18.3835 9.73229 18.3967 9.85825 18.4154 9.98142C18.6863 11.7649 20.0138 12.9162 21.5879 13.0031C20.5545 12.8533 19.4414 12.34 18.9358 11.4009Z" fill="white"/>
<path d="M19.4164 10.0198C19.1477 9.43213 18.9408 8.81545 18.7468 8.19973C18.672 7.96252 18.6009 7.72284 18.5388 7.48085C18.5359 7.49387 18.5326 7.50696 18.5298 7.52006C18.5114 7.9564 18.5601 8.39407 18.6373 8.824C18.736 9.37379 18.8678 9.92441 19.0231 10.461C19.1672 10.9589 19.3696 11.4466 19.7738 11.7896C20.1663 12.1228 20.6599 12.3268 21.1494 12.4714C21.4729 12.5669 21.8183 12.6288 22.1602 12.6238C22.0452 12.5958 21.9312 12.5625 21.8196 12.5213C20.6733 12.098 19.9093 11.0977 19.4164 10.0198Z" fill="white"/>
<path d="M25.3341 10.4943C26.1455 9.69461 26.9318 8.86324 27.6069 7.94325C28.2185 7.1098 28.835 6.12479 28.6251 5.04493C28.4209 3.99495 27.5594 3.12689 26.7231 2.52088C26.3054 2.21821 25.8533 2.02504 25.3541 1.90038C24.9336 1.7954 24.507 1.71829 24.0874 1.61074C23.4529 1.66271 22.8038 1.85086 22.1685 2.20199C20.5946 3.07184 19.3956 4.77523 18.7894 6.5782C18.8139 6.76459 18.8467 6.95026 18.8873 7.13412C19.0217 7.74257 19.2233 8.33783 19.4322 8.92422C19.6282 9.47474 19.8494 10.0247 20.154 10.5253C20.7015 11.4251 21.578 12.2003 22.6704 12.2822C22.9596 12.3038 23.2339 12.2612 23.4948 12.1741C23.7245 12.0167 23.9377 11.8325 24.1407 11.6452C24.5466 11.2707 24.9407 10.882 25.3341 10.4943Z" fill="white"/>
<path d="M25.2697 11.4907C25.8253 11.0534 26.3364 10.5573 26.8128 10.0156C26.9328 9.87922 27.0485 9.74046 27.1609 9.5987C26.5607 10.2589 25.9327 10.8956 25.2697 11.4907Z" fill="white"/>
<path d="M25.1969 17.5597C24.9452 17.355 24.7035 17.1362 24.4881 16.8949C24.8621 17.7511 25.584 18.4106 26.6758 18.6047C26.6324 18.5807 26.589 18.5567 26.5463 18.5316C26.0695 18.2512 25.6254 17.9081 25.1969 17.5597Z" fill="white"/>
<path d="M35.19 15.0997C35.377 14.8453 35.5322 14.5731 35.6485 14.2832C35.5765 14.4464 35.4958 14.6068 35.4047 14.7627C35.3373 14.8779 35.2656 14.9902 35.19 15.0997Z" fill="white"/>
<path d="M35.308 14.0239C35.7084 13.0764 35.7316 11.8987 35.2158 10.9842C35.0028 10.6067 34.6421 10.3238 34.285 10.0909C33.91 9.84627 33.5042 9.65256 33.0934 9.47626C32.8707 9.38114 32.6404 9.30068 32.4047 9.24452C31.901 9.12449 31.3715 9.09591 30.8658 9.22169C30.3573 9.34822 29.924 9.65902 29.4549 9.87856C29.2078 9.99427 28.951 10.0742 28.6831 10.125C28.4761 10.1642 28.2643 10.1896 28.0604 10.2433C27.7834 10.4382 27.5119 10.6392 27.2448 10.8394C27.1017 10.9468 26.959 11.0575 26.8185 11.1718C26.7904 11.2053 26.7626 11.2388 26.735 11.2723C26.3649 11.7207 25.9973 12.171 25.6285 12.6205C25.4751 12.8073 25.3185 12.9925 25.163 13.1788C25.1589 13.1883 25.1542 13.1975 25.1502 13.207C25.0618 13.422 25.0008 13.6449 24.9658 13.8746C24.8139 14.8703 25.1473 15.9041 25.7653 16.6871C26.4204 17.5171 27.4074 18.03 28.4328 18.2369C28.812 18.3134 29.1945 18.351 29.5759 18.3537C29.9035 18.2299 30.225 18.0785 30.5387 17.9287C32.3846 17.0474 34.4638 16.0218 35.308 14.0239Z" fill="white"/>
<path d="M29.8955 9.17253C29.8834 9.17516 29.871 9.17745 29.8589 9.18016C29.6053 9.29503 29.3575 9.4241 29.1148 9.56371C29.1728 9.54154 29.2307 9.5177 29.2883 9.49063C29.4954 9.39366 29.6941 9.28048 29.8955 9.17253Z" fill="white"/>
<path d="M24.1983 14.9837C24.1824 15.1708 24.1789 15.3572 24.1866 15.5413C24.3025 15.98 24.564 16.3673 24.8731 16.6971C25.2368 17.0853 25.6725 17.408 26.0988 17.7235C26.5036 18.0231 26.9269 18.3054 27.4019 18.4814C27.6878 18.5874 27.9714 18.6319 28.252 18.632C27.9578 18.5663 27.6672 18.4783 27.3828 18.3656C26.3301 17.9483 25.4472 17.1904 24.9414 16.1708C24.6086 15.4998 24.4512 14.7301 24.5272 13.9846C24.4366 14.1131 24.3575 14.2452 24.2938 14.3817C24.2491 14.5756 24.216 14.7754 24.1983 14.9837Z" fill="white"/>
<path d="M12.5373 12.4705C12.7967 12.4856 13.0447 12.474 13.2815 12.438C13.6238 12.2784 13.93 12.0351 14.2028 11.7796C14.5643 11.441 14.8892 11.0602 15.185 10.6634C16.404 9.02888 17.1307 6.97076 17.0949 4.92289C17.0787 3.99624 16.9448 2.99314 16.5155 2.15989C16.4351 2.00398 16.3396 1.8579 16.2296 1.72522C16.0718 1.56513 15.9047 1.41953 15.7265 1.29225C15.6923 1.27209 15.6583 1.25168 15.6225 1.23359C15.2027 1.02159 14.7335 0.927537 14.2659 0.909474C13.2444 0.869903 12.3475 1.32824 11.534 1.90775C10.7034 2.49949 9.97881 3.22856 9.35115 4.03061C9.10827 4.49345 8.90114 4.98831 8.71874 5.51784C8.7524 6.10688 8.89303 6.68472 9.04264 7.25347C9.12625 7.57001 9.20977 7.88655 9.29337 8.20309C9.47028 8.87303 9.64427 9.5438 9.82442 10.2128C9.96781 10.7455 10.1291 11.2928 10.4006 11.7778C10.5273 11.8761 10.6595 11.9678 10.7948 12.0536C11.3083 12.2865 11.891 12.4328 12.5373 12.4705Z" fill="white"/>
<path d="M8.82227 10.2082C8.74105 9.86685 8.70159 9.51325 8.65515 9.16585C8.61205 8.84369 8.55656 8.52588 8.45577 8.21619C8.39821 8.03942 8.33275 7.86537 8.26805 7.69107C8.2669 7.7187 8.26602 7.7464 8.26538 7.77419C8.24496 8.66143 8.43988 9.49535 8.82227 10.2082Z" fill="white"/>
<path d="M9.03225 8.84898C9.08945 9.20935 9.12547 9.57323 9.19436 9.93337C9.26596 10.308 9.40103 10.6446 9.60156 10.9484C9.44132 10.4551 9.32202 9.94646 9.19008 9.44679C9.13747 9.24746 9.08486 9.04822 9.03225 8.84898Z" fill="white"/>
<path d="M17.4895 5.72536C17.4191 6.6664 17.2027 7.60012 16.8621 8.4875C17.0697 8.07734 17.2446 7.651 17.3737 7.20523C17.5785 6.49797 17.6883 5.69531 17.6654 4.894C17.6334 4.43464 17.544 3.99131 17.3923 3.56518C17.5181 4.27714 17.543 5.0106 17.4895 5.72536Z" fill="white"/>
<path d="M8.42462 6.47435C8.41274 6.51754 8.40052 6.56007 8.3888 6.60376C8.38787 6.61239 8.38669 6.62185 8.38559 6.63106C8.45574 7.02107 8.60708 7.39037 8.74414 7.76288C8.70427 7.61179 8.6644 7.46078 8.62445 7.30969C8.5517 7.03283 8.48193 6.7549 8.42462 6.47435Z" fill="white"/>
<path d="M25.7373 27.0571C26.0932 27.3647 26.4901 27.5871 26.9579 27.6639C27.4613 27.7466 27.9868 27.7268 28.4947 27.7079C28.6805 27.7009 28.8669 27.6898 29.0529 27.6734C29.0757 27.6697 29.0985 27.6661 29.1213 27.6622C28.4468 27.6731 27.7705 27.5967 27.1188 27.4325C26.5504 27.2892 25.9865 27.0857 25.4668 26.8059C25.5545 26.8926 25.6444 26.9768 25.7373 27.0571Z" fill="white"/>
<path d="M33.6778 24.9775C34.1102 24.5009 34.5196 23.8778 34.5508 23.2327C34.4992 23.1204 34.4581 23.0035 34.4418 22.8761C34.4268 22.7598 34.4203 22.6428 34.4174 22.5255C34.4054 22.4992 34.3929 22.4728 34.3792 22.4465C34.3486 22.3878 34.3489 22.3338 34.368 22.289C34.085 21.3474 33.6109 20.4448 32.8346 19.8214C32.7136 19.7243 32.5858 19.6357 32.4533 19.5552C32.28 19.4871 32.0986 19.4274 31.9082 19.3774C31.4624 19.3398 31.0166 19.2701 30.5708 19.2706C30.1373 19.2711 29.7132 19.3135 29.2963 19.3876C28.5256 19.6542 27.8032 20.0759 27.1325 20.5272C26.2982 21.0887 25.4909 21.7142 24.726 22.3669C24.3882 22.6553 24.0561 22.9823 23.8839 23.4C23.7682 23.6808 23.7462 23.9814 23.789 24.2755C23.9857 25.0357 24.5299 25.6868 25.1725 26.134C26.8863 27.3269 29.2659 27.5238 31.2226 26.8953C31.4678 26.8143 31.709 26.7219 31.9448 26.6163C32.1874 26.4278 32.4177 26.2232 32.6412 26.0128C32.9959 25.679 33.3504 25.3384 33.6778 24.9775Z" fill="white"/>
<path d="M24.9754 26.8983C24.5302 26.4253 24.0431 25.9131 23.7184 25.3291C24.0097 26.2369 24.5965 26.9811 25.4961 27.4016C25.3126 27.2453 25.1409 27.0741 24.9754 26.8983Z" fill="white"/>
<path d="M24.3516 22.1391C24.4971 22.0065 24.6495 21.8797 24.8028 21.7569C25.543 21.1643 26.288 20.5737 27.0832 20.0567C27.0048 20.0887 26.9266 20.1214 26.8485 20.1545C25.8277 20.5889 24.9751 21.2278 24.3516 22.1391Z" fill="white"/>
<path d="M13.3571 14.8274C14.2036 14.9129 15.0431 14.7341 15.8755 14.6031C16.6402 14.4828 17.4761 14.3766 18.1946 14.7384C18.5964 14.9408 18.8956 15.2817 19.1352 15.6551C19.4158 16.0926 19.6921 16.5334 19.9516 16.9839C19.9944 17.0033 20.0371 17.0223 20.0796 17.0423C20.2653 17.1297 20.4485 17.2238 20.6289 17.3234C20.3658 16.8256 20.0743 16.3434 19.7808 15.881C19.6662 15.7005 19.5513 15.5227 19.4377 15.3486C18.9369 14.5804 18.1702 14.1228 17.2529 14.0759C17.0236 14.0642 16.7955 14.0712 16.5681 14.0897C15.9588 14.139 15.3551 14.2711 14.75 14.3551C14.7143 14.3601 14.6787 14.3652 14.643 14.3697C14.2184 14.4243 13.7917 14.4528 13.365 14.4046C12.9806 14.3589 12.616 14.2445 12.2593 14.1023C12.6151 14.3623 12.9775 14.6104 13.3571 14.8274Z" fill="black"/>
<path d="M16.7043 34.5478C17.084 34.4388 17.4542 34.2931 17.8077 34.1106C18.8297 33.5828 19.7148 32.8013 20.3879 31.8702C20.9749 31.0583 21.4715 30.065 21.5023 29.0435C21.4765 29.01 21.4502 28.9768 21.4229 28.9442C21.3082 28.8075 21.1837 28.6774 21.0552 28.5498C21.1279 29.0531 21.047 29.5707 20.8839 30.0504C20.5207 31.1184 19.8009 32.0834 18.9554 32.8208C18.1353 33.5362 17.144 34.069 16.0708 34.2773C15.657 34.3577 15.2345 34.3868 14.8142 34.3675C14.2019 34.3396 13.5945 34.208 13.0261 33.975C12.9493 33.9435 12.874 33.9096 12.7993 33.8745C13.0089 34.1273 13.2414 34.3656 13.4943 34.5799C14.5369 34.8657 15.6566 34.8487 16.7043 34.5478Z" fill="black"/>
<path d="M10.6973 31.9385C10.572 31.7148 10.4618 31.4846 10.3604 31.2507C10.001 30.4204 9.76065 29.5386 9.41399 28.703C9.22206 28.2405 8.99452 27.79 8.70814 27.3785C8.52388 27.344 8.3359 27.3331 8.14632 27.3338C8.19711 27.3969 8.24707 27.4607 8.29536 27.5263C8.63199 27.9835 8.87733 28.4896 9.08637 29.0135C9.32484 29.6111 9.51589 30.2318 9.73868 30.8301C10.145 31.9217 10.6971 32.9432 11.6369 33.6641C11.9243 33.8846 12.2301 34.0713 12.5488 34.2258C12.3051 33.9443 12.0867 33.6414 11.8974 33.3254C11.4129 32.9508 11.0033 32.4842 10.6973 31.9385Z" fill="black"/>
<path d="M20.9855 22.3478C20.8688 22.6616 20.7212 22.9618 20.5698 23.2602C20.9057 22.8024 21.2587 22.3449 21.5627 21.8606C21.6003 21.6834 21.6272 21.5065 21.6441 21.33C21.752 20.1972 21.4499 19.0829 20.9727 18.0261C20.7561 17.8833 20.5342 17.7527 20.3076 17.6327C20.7851 18.5515 21.1703 19.5354 21.2389 20.5743C21.2787 21.1752 21.1956 21.783 20.9855 22.3478Z" fill="black"/>
<path d="M7.4713 26.0638C6.65405 25.3752 5.73875 24.8152 4.9136 24.1367C4.10425 23.4712 3.44537 22.6822 3.04421 21.7071C2.66277 20.7801 2.51434 19.7579 2.6057 18.7602C2.69784 17.754 3.03044 16.767 3.61667 15.9398C4.0882 15.2745 4.7081 14.7239 5.41064 14.3134C5.55711 14.2278 5.70698 14.1479 5.86006 14.0747C6.75271 13.648 7.75079 13.4218 8.74163 13.4526C9.23522 13.4679 9.73151 13.5402 10.2046 13.6834C10.7472 13.8477 11.2528 14.1061 11.768 14.3383C11.8656 14.3822 11.9643 14.4248 12.0636 14.4662C11.5773 14.1105 11.104 13.736 10.6144 13.3847C10.4526 13.3238 10.2891 13.2689 10.1223 13.225C9.11915 12.9612 8.04476 12.9698 7.03849 13.2131C5.69237 13.5387 4.46862 14.2693 3.58835 15.3042C3.1374 15.8344 2.77635 16.4442 2.5356 17.1208C1.82823 19.1088 2.12321 21.4428 3.37212 23.1546C4.53519 24.7489 6.45032 25.5352 7.79308 26.9322C7.98118 26.9242 8.16942 26.9189 8.35615 26.9258C8.08678 26.6139 7.78583 26.3289 7.4713 26.0638Z" fill="black"/>
<path d="M19.8461 25.8639C19.9049 26.1994 20.0358 26.5175 20.215 26.8225C20.3813 27.1055 20.5767 27.3781 20.7382 27.6666C20.7986 27.7264 20.8595 27.7855 20.9202 27.8435C21.0944 28.0097 21.2739 28.1745 21.4453 28.3469C21.3329 27.8133 21.051 27.3596 20.7568 26.9007C20.4495 26.4214 20.1878 25.9246 20.2384 25.3378C20.2935 24.6969 20.5846 24.1218 20.8825 23.5494C20.6199 23.906 20.3556 24.2679 20.1639 24.6675C19.9861 25.0376 19.8583 25.4512 19.8461 25.8639Z" fill="black"/>
<path d="M21.444 28.3468C21.2726 28.1744 21.0931 28.0096 20.9189 27.8434C20.8582 27.7854 20.7974 27.7263 20.7369 27.6665C20.4281 27.3609 20.1349 27.0281 19.9725 26.6225C19.8742 26.377 19.8373 26.1205 19.8449 25.8638C19.8571 25.4511 19.9848 25.0376 20.1626 24.6674C20.3545 24.2678 20.6187 23.906 20.8813 23.5493C20.9111 23.5089 20.9408 23.4686 20.9704 23.4282C21.0623 23.3031 21.1543 23.178 21.2459 23.0526C21.4699 22.746 21.6906 22.4369 21.8935 22.1159C22.3998 21.3155 22.9005 20.3261 22.6436 19.3539C22.5061 18.8334 22.1724 18.4079 21.7574 18.0744C21.5156 17.88 21.2597 17.7022 20.9949 17.5386C20.874 17.4639 20.7512 17.3925 20.6268 17.3239C20.4464 17.2243 20.2631 17.1303 20.0775 17.0428C20.035 17.0228 19.9922 17.0038 19.9495 16.9844C18.8217 16.4729 17.6121 16.177 16.4152 15.8759C15.7954 15.72 15.1764 15.561 14.5664 15.3693C14.1378 15.2339 13.7377 15.0467 13.355 14.8279C12.9754 14.611 12.613 14.3628 12.2573 14.1026C11.0329 13.2074 9.8865 12.1711 8.38491 11.7807C5.91492 11.1387 3.25014 12.4084 1.90824 14.5103C0.472812 16.7589 0.429376 19.6065 1.40848 22.0389C1.93056 23.3358 2.71719 24.5359 3.66952 25.5575C4.51454 26.464 5.59593 27.296 6.88068 27.3694C7.1039 27.3822 7.33191 27.3711 7.561 27.358C7.75599 27.3468 7.95166 27.3346 8.14587 27.3338C8.33545 27.333 8.52341 27.344 8.70767 27.3785C8.80569 27.3968 8.90269 27.4212 8.99826 27.4549C9.564 27.6547 9.99695 28.1099 10.2943 28.6189C11.0034 29.8326 10.9758 31.3138 11.5221 32.593C11.5289 32.6088 11.5346 32.6249 11.5415 32.6406C11.644 32.8734 11.7635 33.1025 11.897 33.3255C12.0862 33.6415 12.3046 33.9444 12.5484 34.2258C13.6624 35.5126 15.2987 36.3504 17.0279 35.9272C18.2991 35.6161 19.3182 34.7508 20.1835 33.8063C20.6318 33.317 21.0572 32.8012 21.4581 32.2724C21.8367 31.773 22.1902 31.2239 22.3172 30.6013C22.4322 30.0376 22.2983 29.4821 21.9907 29.0037C21.947 28.9356 21.8996 28.8703 21.8508 28.8061C21.7269 28.6436 21.5887 28.4923 21.444 28.3468ZM21.9302 30.337C21.8694 30.9495 21.5158 31.4914 21.1557 31.9721C20.4019 32.9784 19.5652 33.9984 18.543 34.7429C17.5863 35.4397 16.4283 35.7955 15.2566 35.5116C14.6028 35.3531 14.0058 35.0157 13.4916 34.5799C13.2388 34.3655 13.0062 34.1273 12.7966 33.8745C12.7368 33.8024 12.6782 33.7295 12.6223 33.6553C12.5201 33.5195 12.4246 33.3792 12.3345 33.2356C12.119 32.8921 11.9381 32.5276 11.7965 32.1467C11.5522 31.4887 11.4438 30.7903 11.2816 30.1098C11.0017 28.9357 10.4881 27.6433 9.30305 27.1217C8.99725 26.9872 8.67829 26.9386 8.35476 26.9266C8.16803 26.9197 7.97978 26.9249 7.79168 26.933C7.64416 26.9394 7.49679 26.9474 7.35027 26.9526C7.21303 26.9575 7.07839 26.9538 6.94526 26.9443C6.44831 26.9093 5.9784 26.7753 5.52651 26.532C4.41924 25.9357 3.5469 24.8777 2.85334 23.8525C1.38925 21.688 0.692132 18.9507 1.49171 16.4045C1.85726 15.2405 2.51355 14.1577 3.45842 13.3744C4.38824 12.6034 5.55702 12.1265 6.76382 12.049C7.96307 11.9722 9.07108 12.368 10.068 13.0111C10.2533 13.1307 10.434 13.257 10.613 13.3854C11.1026 13.7368 11.5759 14.1112 12.0622 14.467C12.205 14.5714 12.3491 14.6741 12.4952 14.7739C12.6385 14.8717 12.7831 14.9675 12.931 15.0586C13.3952 15.3443 13.8834 15.5945 14.4043 15.759C16.3661 16.3755 18.4855 16.6689 20.3072 17.634C20.5338 17.754 20.7558 17.8846 20.9723 18.0274C21.0975 18.1099 21.2208 18.1967 21.3421 18.2878C21.3726 18.3107 21.4035 18.333 21.4339 18.3566C21.8167 18.6539 22.1526 19.0379 22.2527 19.5252C22.3424 19.9615 22.2554 20.405 22.0985 20.8153C21.9578 21.1829 21.7716 21.5287 21.5624 21.8618C21.2583 22.3461 20.9053 22.8036 20.5695 23.2614C20.5442 23.2958 20.5189 23.3302 20.494 23.3646C19.8324 24.2749 19.1851 25.369 19.5025 26.538C19.7366 27.4007 20.4427 27.944 21.0527 28.5494C21.1812 28.677 21.3058 28.8071 21.4204 28.9438C21.4477 28.9763 21.474 29.0096 21.4998 29.0431C21.6508 29.2388 21.775 29.4506 21.852 29.6778C21.9221 29.8852 21.9533 30.105 21.9302 30.337Z" fill="black"/>
<path d="M34.8598 22.8171C34.8751 22.9362 34.9182 23.0487 34.9707 23.1574C34.971 23.1032 34.9707 23.0487 34.967 22.9933C34.9556 22.8195 34.9181 22.6477 34.8577 22.4845C34.8504 22.4568 34.8435 22.4291 34.836 22.4015C34.837 22.5407 34.842 22.6796 34.8598 22.8171Z" fill="black"/>
<path d="M30.5729 27.5026C30.1163 27.5985 29.6494 27.6512 29.1813 27.6623C29.1387 27.6666 29.0962 27.671 29.0536 27.6747C28.8676 27.6912 28.6812 27.7023 28.4953 27.7092C27.9875 27.7281 27.4619 27.7479 26.9585 27.6652C26.4907 27.5884 26.0939 27.3659 25.738 27.0584C25.645 26.9782 25.5552 26.8939 25.4674 26.8073C25.0214 26.5671 24.6079 26.2709 24.2532 25.9058C23.8212 25.4611 23.5037 24.8995 23.3675 24.3011C23.4139 24.6696 23.5413 25.0116 23.7192 25.3316C24.0438 25.9156 24.531 26.4278 24.9762 26.9008C25.1417 27.0767 25.3134 27.2478 25.4969 27.4042C25.6976 27.5751 25.9125 27.7282 26.1504 27.8479C26.6282 28.0884 27.1646 28.1336 27.6911 28.1382C28.8188 28.1478 29.9865 28.0965 31.039 27.6502C31.4491 27.4762 31.8224 27.2414 32.1728 26.9734C31.9195 27.0912 31.6585 27.1954 31.3888 27.2845C31.1208 27.3706 30.8485 27.4447 30.5729 27.5026Z" fill="black"/>
<path d="M34.5496 23.2315C34.5184 23.8765 34.109 24.4997 33.6766 24.9763C33.3492 25.3372 32.9947 25.6778 32.64 26.0116C32.4165 26.2221 32.1862 26.4268 31.9436 26.6152C31.9493 26.6126 31.955 26.6103 31.9608 26.6077C32.7283 26.2614 33.3901 25.7744 34.0136 25.2244C34.381 24.8106 34.7021 24.3528 34.8622 23.8373C34.7759 23.6284 34.6446 23.4379 34.5496 23.2315Z" fill="black"/>
<path d="M23.883 23.3985C24.0551 22.9808 24.3872 22.6537 24.7251 22.3653C25.4899 21.7126 26.2974 21.0871 27.1316 20.5257C27.8023 20.0743 28.5247 19.6527 29.2954 19.3861C29.4816 19.3216 29.6706 19.266 29.8624 19.2215C30.3944 19.0981 30.9451 19.0587 31.4832 19.1665C31.8277 19.2355 32.1533 19.3719 32.4523 19.5536C32.5848 19.6342 32.7126 19.7228 32.8336 19.8199C33.6099 20.4432 34.0841 21.3458 34.3671 22.2874C34.348 22.3323 34.3477 22.3863 34.3782 22.445C34.3918 22.4713 34.4045 22.4977 34.4164 22.524C34.4059 22.0919 34.4487 21.656 34.3348 21.2331C34.2082 20.7631 33.9138 20.3414 33.5479 20.0254C32.768 19.3515 31.6915 19.1076 30.6844 19.0694C29.7797 19.0351 28.8811 19.1919 28.0299 19.4933C27.8751 19.5759 27.7227 19.6617 27.5735 19.7498C27.4073 19.8481 27.2444 19.9511 27.0828 20.0562C26.2876 20.5731 25.5425 21.1638 24.8024 21.7564C24.6491 21.8792 24.4967 22.0059 24.3512 22.1385C24.2654 22.2168 24.1819 22.297 24.1023 22.3798C23.8706 22.7542 23.717 23.1674 23.7087 23.6233C23.7047 23.8475 23.734 24.0647 23.7882 24.2741C23.7453 23.9799 23.7672 23.6793 23.883 23.3985Z" fill="black"/>
<path d="M28.2525 18.6315C27.9719 18.6314 27.6882 18.5869 27.4024 18.4809C26.9275 18.3049 26.5042 18.0226 26.0993 17.723C25.673 17.4075 25.2373 17.0848 24.8736 16.6966C24.5645 16.3668 24.3031 15.9795 24.1871 15.5408C24.1701 15.4764 24.1561 15.411 24.1457 15.3445C24.091 14.9956 24.1559 14.6779 24.2943 14.3812C24.3581 14.2447 24.4372 14.1126 24.5278 13.9841C24.5605 13.6636 24.6356 13.3474 24.7596 13.0457C24.7695 13.0221 24.7808 12.9992 24.7912 12.9758C24.7096 13.0752 24.6279 13.1746 24.5463 13.274C24.2041 13.6916 23.8656 14.1276 23.7448 14.6654C23.6225 15.2096 23.7659 15.7961 24.036 16.2741C24.1633 16.4992 24.3176 16.7038 24.4881 16.8946C24.7035 17.1359 24.9453 17.3548 25.197 17.5595C25.6254 17.9079 26.0695 18.251 26.5462 18.5313C26.5889 18.5564 26.6323 18.5804 26.6757 18.6044C27.0952 18.8364 27.5489 19.0134 28.0302 19.0531C28.4009 18.9295 28.7794 18.8316 29.1628 18.7628C28.8572 18.7418 28.5529 18.6987 28.2525 18.6315Z" fill="black"/>
<path d="M27.9029 9.849C27.7801 9.8833 27.6599 9.92598 27.5454 9.98386C27.3108 10.1023 27.1009 10.2622 26.9126 10.4448C26.7726 10.5807 26.6403 10.7248 26.5119 10.8728C26.9014 10.5539 27.3137 10.2608 27.7207 9.97583C27.7811 9.93358 27.8418 9.89125 27.9029 9.849Z" fill="black"/>
<path d="M33.12 17.0287C33.9138 16.5156 34.6519 15.8803 35.1913 15.099C35.2669 14.9896 35.3386 14.8773 35.406 14.762C35.4971 14.6061 35.5778 14.4458 35.6497 14.2825C36.0311 13.4173 36.1368 12.4604 35.8776 11.5302C35.8128 11.2976 35.7295 11.0806 35.623 10.8777C35.6141 10.8649 35.6059 10.8516 35.5968 10.8389C35.0281 10.0511 34.1851 9.49531 33.2966 9.12753C32.8218 8.93091 32.3217 8.76335 31.8051 8.73663C31.2404 8.70729 30.677 8.84513 30.1558 9.05326C30.1029 9.07437 30.0504 9.09664 29.9981 9.11908C29.9639 9.13692 29.9296 9.15483 29.8956 9.173C29.6942 9.28095 29.4955 9.39413 29.2885 9.4911C29.2309 9.51809 29.173 9.54201 29.1149 9.56418C28.7529 9.77245 28.4021 10.0033 28.06 10.2442C28.2639 10.1904 28.4757 10.1651 28.6827 10.1259C28.9507 10.0751 29.2075 9.99516 29.4546 9.87945C29.9236 9.65982 30.3569 9.34902 30.8654 9.22258C31.3711 9.09679 31.9006 9.12538 32.4044 9.24541C32.6401 9.30156 32.8704 9.38201 33.093 9.47713C33.5038 9.65343 33.9097 9.84723 34.2846 10.0918C34.6417 10.3247 35.0024 10.6076 35.2154 10.9851C35.7312 11.8996 35.7079 13.0773 35.3076 14.0248C34.4634 16.0227 32.3842 17.0484 30.5381 17.9296C30.2244 18.0793 29.903 18.2308 29.5753 18.3546C30.0266 18.3578 30.4763 18.3111 30.9174 18.2199C31.1125 18.1246 31.307 18.0283 31.5008 17.9321C32.0545 17.657 32.6006 17.3645 33.12 17.0287Z" fill="black"/>
<path d="M26.7359 11.2722C26.7634 11.2389 26.7913 11.2052 26.8193 11.1717C26.1389 11.7249 25.5129 12.3673 25.1637 13.1788C25.3193 12.9925 25.476 12.8073 25.6293 12.6204C25.9982 12.1711 26.3659 11.7206 26.7359 11.2722Z" fill="black"/>
<path d="M18.7936 5.36082C18.7407 5.6986 18.7369 6.03866 18.7683 6.37697C18.8615 6.13511 18.9764 5.90085 19.1017 5.6706C19.3578 5.20016 19.6431 4.74631 19.8588 4.25486C20.0825 3.7451 20.2525 3.21198 20.5047 2.71473C20.7284 2.274 21.0384 1.84077 21.4705 1.58406C21.9514 1.29834 22.5264 1.28231 23.0653 1.36534C23.3293 1.40606 23.5894 1.46908 23.8453 1.54553C23.9262 1.56921 24.0076 1.59089 24.0891 1.61183C24.5087 1.71946 24.9354 1.79649 25.3557 1.90147C25.8549 2.02613 26.307 2.2193 26.7248 2.52197C27.5611 3.12806 28.4227 3.99612 28.6268 5.04602C28.8368 6.12588 28.2202 7.11089 27.6086 7.94434C26.9335 8.86425 26.1471 9.69562 25.3357 10.4954C24.9424 10.883 24.5483 11.2717 24.1424 11.6462C23.9393 11.8335 23.7262 12.0177 23.4965 12.1751C24.3237 11.8988 25.0162 11.1705 25.6187 10.5864C26.536 9.6974 27.3877 8.7415 28.1931 7.75064C28.325 7.58835 28.4571 7.42291 28.5799 7.25123C28.8096 6.83283 28.9854 6.39189 29.0592 5.92756C29.2497 4.72946 28.5947 3.67796 27.7755 2.8699C27.3628 2.46279 26.9093 2.08603 26.3905 1.82152C25.8995 1.57127 25.3465 1.46207 24.8118 1.34753C24.5422 1.28979 24.2719 1.23305 24.0072 1.1555C23.4495 0.988878 22.8697 0.864349 22.2844 0.908056C22.225 0.912474 22.1664 0.919554 22.1083 0.928206C21.9507 1.02282 21.8002 1.12873 21.6564 1.24593C21.21 1.60997 20.8148 2.04091 20.4297 2.46773C20.2198 2.70026 20.0163 2.93944 19.8255 3.18828C19.6174 3.69418 19.4327 4.21416 19.1746 4.68651C19.0511 4.91286 18.9199 5.13555 18.7936 5.36082Z" fill="black"/>
<path d="M23.6789 12.5554C23.6101 12.5802 23.5402 12.6026 23.4689 12.6217C23.0374 12.738 22.5888 12.7278 22.1591 12.6231C21.8173 12.628 21.4718 12.5662 21.1483 12.4706C20.6589 12.3261 20.1653 12.122 19.7727 11.7889C19.3685 11.4458 19.1661 10.9581 19.0221 10.4602C18.8668 9.92368 18.735 9.37298 18.6362 8.82328C18.559 8.39334 18.5103 7.95568 18.5288 7.51934C18.5297 7.49893 18.5311 7.4786 18.5323 7.4582C18.4369 7.08222 18.3655 6.70058 18.3376 6.31399C18.1503 6.83919 18.0849 7.39015 18.1086 7.94806C18.1324 8.50778 18.2424 9.05959 18.3717 9.60364C18.3828 9.65063 18.3939 9.69762 18.4053 9.74443C18.5412 10.302 18.6601 10.8899 18.9343 11.3993C19.44 12.3385 20.5531 12.8517 21.5864 13.0016C21.6495 13.0108 21.7126 13.0189 21.7749 13.0254C22.3678 13.0867 22.9522 12.9824 23.4712 12.6847C23.5422 12.6438 23.6111 12.6003 23.6789 12.5554Z" fill="black"/>
<path d="M18.5391 7.48015C18.6011 7.72214 18.6723 7.96184 18.7471 8.19904C18.9411 8.81477 19.148 9.43144 19.4167 10.0191C19.9095 11.097 20.6736 12.0973 21.8199 12.5207C21.9314 12.5619 22.0454 12.5952 22.1604 12.6232C22.5901 12.7278 23.0388 12.7381 23.4702 12.6219C23.5414 12.6026 23.6113 12.5802 23.6802 12.5555C24.2036 12.3674 24.6594 12.0275 25.0758 11.6628C25.1409 11.6058 25.2046 11.5472 25.2691 11.4894C25.9321 10.8943 26.5601 10.2576 27.1603 9.59738C27.4196 9.31212 27.6743 9.02303 27.924 8.7307C28.6837 7.84128 29.5578 6.90534 29.6067 5.67213C29.6465 4.66929 29.2199 3.72387 28.6201 2.94074C27.9932 2.12219 27.1758 1.44372 26.2856 0.928919C25.3428 0.383714 24.2624 -0.00609781 23.158 0.127687C22.841 0.166074 22.5305 0.251931 22.2379 0.379562C21.6517 0.650835 21.1763 1.07934 20.7287 1.53654C20.3076 1.96667 19.8946 2.40877 19.525 2.88441C18.7687 3.85789 18.2644 4.96828 18.3315 6.22251C18.3332 6.25313 18.3365 6.28351 18.3387 6.31404C18.3667 6.70055 18.438 7.08227 18.5334 7.45825C18.5354 7.46555 18.5372 7.47285 18.5391 7.48015ZM19.4229 3.76216C19.5474 3.56377 19.6829 3.37287 19.8253 3.18713C20.016 2.93829 20.2196 2.69911 20.4294 2.46657C20.8146 2.03975 21.2098 1.60872 21.6562 1.24477C21.8 1.12748 21.9504 1.02165 22.1081 0.927043C22.2038 0.869617 22.3016 0.815275 22.404 0.767904C23.4237 0.322967 24.5529 0.547136 25.5255 1.00398C26.3777 1.40419 27.1705 1.97376 27.8199 2.65564C28.4437 3.31074 28.9871 4.11274 29.1439 5.01941C29.2163 5.4388 29.2047 5.87682 29.0819 6.28619C28.9763 6.63769 28.792 6.95325 28.5796 7.25007C28.4568 7.42167 28.3247 7.58719 28.1928 7.74948C27.3873 8.74034 26.5356 9.69624 25.6184 10.5853C25.0158 11.1694 24.3234 11.8976 23.4962 12.1739C23.2352 12.2611 22.961 12.3037 22.6717 12.282C21.5794 12.2002 20.703 11.4249 20.1553 10.5251C19.8507 10.0245 19.6295 9.47459 19.4335 8.92407C19.2247 8.33768 19.0231 7.74242 18.8886 7.13397C18.848 6.95003 18.8152 6.76444 18.7908 6.57805C18.7819 6.51066 18.7741 6.44328 18.7679 6.37573C18.7365 6.03741 18.7403 5.69735 18.7932 5.35957C18.7994 5.32051 18.8041 5.28137 18.8116 5.2424C18.913 4.71541 19.1387 4.21495 19.4229 3.76216Z" fill="black"/>
<path d="M13.6315 0.516815C13.1065 0.580662 12.6274 0.772219 12.1641 1.02139C11.0963 1.59572 10.171 2.4114 9.38214 3.32656C9.29412 3.42863 9.20841 3.5327 9.12403 3.63778C8.91537 4.05076 8.77767 4.48524 8.73003 4.9381C8.8572 4.70586 9.00789 4.48704 9.16471 4.27404C9.22581 4.19198 9.28897 4.11141 9.35213 4.03084C9.97979 3.22879 10.7043 2.4998 11.535 1.90798C12.3485 1.32847 13.2455 0.87013 14.2669 0.909701C14.7344 0.927848 15.2037 1.02182 15.6235 1.23382C15.6593 1.25191 15.6933 1.27231 15.7275 1.29248C15.9214 1.40719 16.0888 1.55453 16.2306 1.72545C16.3407 1.85821 16.4361 2.0042 16.5165 2.16012C16.9458 2.99329 17.0797 3.99638 17.0959 4.92312C17.1316 6.97099 16.405 9.02902 15.186 10.6637C14.8901 11.0603 14.5653 11.4412 14.2038 11.7798C13.931 12.0353 13.6247 12.2786 13.2825 12.4383C13.1279 12.5103 12.966 12.5653 12.7965 12.5967C12.263 12.6953 11.7308 12.5487 11.2532 12.3124C11.0981 12.2356 10.9452 12.1484 10.7959 12.0538C10.6606 11.9681 10.5284 11.8764 10.4017 11.7781C10.4406 11.8475 10.4817 11.9157 10.5254 11.9825C10.7532 12.3301 11.0537 12.6392 11.4169 12.8431C11.5553 12.8962 11.6966 12.9415 11.8415 12.9768C12.1002 13.0398 12.3638 13.0603 12.6235 13.0396C12.8625 12.9926 13.0955 12.9021 13.3125 12.782C13.8596 12.4795 14.2842 11.997 14.6854 11.5281C15.0604 11.0898 15.4314 10.6476 15.78 10.1879C16.187 9.65113 16.5605 9.08682 16.8637 8.48765C17.2044 7.60027 17.4207 6.66655 17.4911 5.72551C17.5445 5.01075 17.5197 4.27737 17.394 3.56533C17.3363 3.23856 17.2573 2.91622 17.1549 2.60238C17.1465 2.57664 17.137 2.55097 17.1281 2.52523C16.8548 1.9649 16.4692 1.46984 15.9505 1.09093C15.5127 0.771117 15.0231 0.583257 14.515 0.503289C14.2207 0.477019 13.9232 0.48127 13.6315 0.516815Z" fill="black"/>
<path d="M8.65627 9.1658C8.70271 9.51311 8.74216 9.86679 8.82338 10.2081C8.88703 10.4758 8.97641 10.736 9.11512 10.9795C9.35733 11.4048 9.70184 11.7561 10.084 12.0578C9.9712 11.87 9.8737 11.6741 9.7923 11.4763C9.7212 11.3034 9.6584 11.1274 9.60059 10.9496C9.40006 10.6458 9.26499 10.3092 9.19339 9.93451C9.1245 9.57437 9.08856 9.21049 9.03128 8.85012C8.93568 8.48825 8.84015 8.1263 8.74463 7.76435C8.60757 7.39184 8.45623 7.02254 8.38608 6.63253C8.37675 6.58057 8.36833 6.52837 8.36207 6.47559C8.34671 6.34538 8.34527 6.21628 8.35512 6.08879C8.29201 5.66884 8.26925 5.24045 8.31707 4.81937C8.19772 5.04598 8.09691 5.28168 8.02811 5.52933C7.86088 6.13148 7.93489 6.71439 8.12951 7.30075C8.17308 7.43194 8.22087 7.56164 8.269 7.69118C8.33379 7.86547 8.39916 8.03945 8.45672 8.2163C8.55768 8.52583 8.61316 8.84363 8.65627 9.1658Z" fill="black"/>
<path d="M8.35578 6.08721C8.3677 6.16672 8.38103 6.2459 8.39569 6.32467C8.40494 6.37472 8.41554 6.42444 8.42579 6.47424C8.4831 6.7548 8.55284 7.03273 8.62567 7.30959C8.66554 7.46068 8.70542 7.61168 8.74537 7.76277C8.84089 8.12472 8.9365 8.48659 9.03202 8.84854C9.08464 9.04778 9.13724 9.24702 9.18985 9.44635C9.32179 9.94602 9.44109 10.4546 9.60134 10.948C9.65914 11.1259 9.72195 11.3019 9.79304 11.4747C9.87444 11.6725 9.97194 11.8684 10.0847 12.0562C10.577 12.8755 11.361 13.5366 12.3701 13.4971C13.7321 13.4437 14.6604 12.2247 15.4562 11.2689C16.2335 10.3352 16.9709 9.34714 17.4556 8.22575C17.9553 7.06972 18.1564 5.77864 18.0591 4.52416C17.9674 3.34138 17.5727 2.11864 16.7484 1.23921C16.1195 0.568417 15.2781 0.149064 14.3626 0.0546632C13.4438 -0.0400776 12.5052 0.167694 11.6787 0.569048C10.7133 1.03785 9.88717 1.77752 9.2519 2.63805C8.87258 3.15183 8.56049 3.72791 8.40251 4.3495C8.36322 4.50405 8.3357 4.66045 8.31781 4.81787C8.26991 5.23896 8.29267 5.66726 8.35578 6.08721ZM11.2822 1.27327C12.2195 0.665855 13.4111 0.328854 14.5153 0.502612C15.0233 0.58258 15.5128 0.770441 15.9507 1.09025C16.4694 1.46916 16.855 1.96423 17.1283 2.52457C17.4784 3.24222 17.6436 4.06702 17.6672 4.89347C17.6902 5.69479 17.5804 6.49744 17.3755 7.2047C17.2464 7.65048 17.0715 8.07681 16.864 8.48697C16.5608 9.08614 16.1874 9.65038 15.7802 10.1872C15.4316 10.6469 15.0606 11.0891 14.6857 11.5274C14.2845 11.9963 13.8598 12.4788 13.3127 12.7814C13.0957 12.9014 12.8628 12.9919 12.6237 13.039C12.3142 13.0998 11.9946 13.0876 11.6868 12.9711C11.5929 12.9356 11.5038 12.891 11.4172 12.8424C11.0539 12.6384 10.7534 12.3294 10.5257 11.9817C10.482 11.915 10.4408 11.8468 10.4019 11.7773C10.1304 11.2923 9.96911 10.745 9.82572 10.2123C9.64558 9.54319 9.4715 8.87243 9.29468 8.20257C9.21108 7.88603 9.12755 7.56948 9.04395 7.25294C8.89426 6.68428 8.75371 6.10636 8.72005 5.51732C8.7179 5.47907 8.71468 5.44089 8.71344 5.40256C8.70835 5.2455 8.71422 5.09037 8.73035 4.93734C8.778 4.48448 8.91569 4.04993 9.12435 3.63703C9.1271 3.63156 9.12944 3.62601 9.13219 3.62054C9.61135 2.68182 10.3992 1.84539 11.2822 1.27327Z" fill="black"/>
<path d="M36.376 11.3705C35.9719 10.392 35.1608 9.64654 34.2568 9.12864C33.2884 8.57375 32.1536 8.17534 31.0285 8.3654C29.8774 8.55989 28.8536 9.1943 27.9049 9.85064C27.8439 9.89288 27.7832 9.93513 27.7228 9.97747C27.3157 10.2624 26.9034 10.5555 26.514 10.8744C26.0022 11.2935 25.53 11.7572 25.1612 12.3068C25.0191 12.5185 24.8956 12.7421 24.7924 12.9752C24.7821 12.9985 24.7708 13.0216 24.7609 13.0451C24.6369 13.3468 24.5617 13.663 24.5291 13.9834C24.4531 14.7288 24.6104 15.4985 24.9433 16.1697C25.449 17.1893 26.332 17.9472 27.3847 18.3645C27.6691 18.4771 27.9595 18.5651 28.2538 18.6309C28.5542 18.6981 28.8585 18.7412 29.1643 18.7623C29.7264 18.6615 30.2985 18.6233 30.8705 18.6573C31.9581 18.4522 33.0045 17.9936 33.894 17.3466C35.6722 16.053 37.3057 13.6216 36.376 11.3705ZM29.5763 18.3538C29.1949 18.3511 28.8124 18.3135 28.4332 18.237C27.4078 18.0301 26.4208 17.5173 25.7657 16.6871C25.1477 15.9042 24.8144 14.8704 24.9662 13.8747C25.0013 13.6449 25.0623 13.4221 25.1506 13.2071C25.1546 13.1976 25.1593 13.1884 25.1634 13.1789C25.5125 12.3675 26.1385 11.7251 26.819 11.1718C26.9594 11.0576 27.1021 10.9469 27.2453 10.8395C27.5124 10.6392 27.7839 10.4382 28.0609 10.2434C28.403 10.0026 28.7538 9.77166 29.1158 9.56339C29.3585 9.42377 29.6063 9.2947 29.8599 9.17983C29.9061 9.15887 29.9525 9.13824 29.999 9.11827C30.0514 9.09584 30.1038 9.07357 30.1567 9.05246C30.678 8.84433 31.2413 8.70657 31.8061 8.73582C32.3227 8.76263 32.8227 8.93019 33.2976 9.12672C34.186 9.4945 35.029 10.0503 35.5978 10.8381C35.6069 10.8508 35.615 10.8641 35.624 10.8769C36.2166 11.7226 36.3744 12.7804 36.0702 13.769C35.7512 14.806 35.0832 15.748 34.2891 16.4775C33.3463 17.3436 32.1675 17.9604 30.9184 18.2188C30.4773 18.3103 30.0276 18.357 29.5763 18.3538Z" fill="black"/>
<path d="M29.1633 18.7627C28.7799 18.8315 28.4013 18.9293 28.0306 19.053C27.0972 19.3643 26.2142 19.8392 25.4346 20.4282C24.6117 21.0498 23.7249 21.8538 23.4112 22.8697C23.2649 23.3433 23.261 23.8327 23.3674 24.2999C23.5036 24.8982 23.821 25.4599 24.2531 25.9046C24.6077 26.2697 25.0213 26.5659 25.4673 26.8061C25.9869 27.086 26.5508 27.2894 27.1193 27.4327C27.771 27.597 28.4473 27.6732 29.1217 27.6624C29.1415 27.6621 29.1613 27.6616 29.1811 27.661C29.6492 27.6499 30.1161 27.5973 30.5727 27.5014C30.8484 27.4435 31.1205 27.3694 31.3887 27.2832C31.6584 27.1941 31.9194 27.0899 32.1727 26.9721C32.9415 26.6145 33.6373 26.1309 34.2753 25.5568C34.5989 25.2656 34.9586 24.9762 35.194 24.6046C35.299 24.4388 35.3746 24.2608 35.3579 24.0605C35.3388 23.8321 35.2203 23.6219 35.1127 23.4249C35.0654 23.3381 35.015 23.2499 34.971 23.159C34.9185 23.0504 34.8754 22.9379 34.8601 22.8187C34.8424 22.6812 34.8374 22.5423 34.8365 22.4032C34.8353 22.235 34.8401 22.0664 34.837 21.8995C34.8263 21.3243 34.6878 20.7961 34.3656 20.3155C33.732 19.3705 32.6206 18.9047 31.533 18.7299C31.3124 18.6944 31.091 18.671 30.8696 18.6578C30.2976 18.6237 29.7254 18.662 29.1633 18.7627ZM34.8634 23.8382C34.8898 23.902 34.9123 23.9675 34.9278 24.0358C34.966 24.2044 34.8689 24.3442 34.7708 24.4729C34.6464 24.6362 34.5002 24.7817 34.3504 24.9215C34.2396 25.0248 34.1276 25.1257 34.0147 25.2253C33.3912 25.7753 32.7294 26.2623 31.9619 26.6085C31.9561 26.6111 31.9503 26.6135 31.9447 26.616C31.7089 26.7216 31.4678 26.8139 31.2225 26.895C29.2659 27.5235 26.8862 27.3267 25.1724 26.1337C24.5298 25.6864 23.9856 25.0355 23.7889 24.2752C23.7348 24.0658 23.7055 23.8486 23.7095 23.6244C23.7177 23.1685 23.8714 22.7553 24.1031 22.3809C24.3913 21.9152 24.8004 21.5097 25.2043 21.1585C26.0262 20.4435 26.9934 19.8616 28.0307 19.4943C28.882 19.1929 29.7804 19.0361 30.6852 19.0704C31.6924 19.1086 32.7689 19.3525 33.5488 20.0264C33.9146 20.3424 34.209 20.7641 34.3356 21.2341C34.4496 21.657 34.4067 22.0929 34.4173 22.525C34.4202 22.6423 34.4267 22.7592 34.4417 22.8756C34.458 23.0031 34.4991 23.12 34.5507 23.2322C34.6458 23.4386 34.7771 23.6291 34.8634 23.8382Z" fill="black"/>
</svg>
