<svg width="206" height="38" viewBox="0 0 206 38" fill="none" xmlns="http://www.w3.org/2000/svg">
<mask id="path-1-inside-1_2_7206" fill="white">
<path fill-rule="evenodd" clip-rule="evenodd" d="M64 2L65 2.5H115.5L116.9 2H187C194.175 2 200.369 6.1976 203.261 12.2709L202.045 12.8154L204.021 14.1305C204.058 14.2364 204.093 14.3428 204.128 14.4497L201.197 15.442L204.936 18.476C204.979 18.9784 205 19.4867 205 20C205 29.9411 196.941 38 187 38H175.663L175.408 36.6113L173.49 38H18C9.95736 38 3.14671 32.7253 0.838721 25.4465L1.65608 23.7403L0.388716 23.7383C0.133986 22.5324 0 21.2818 0 20C0 10.0589 8.05887 2 18 2H49.1798L49.7819 2.94308L50.2257 2H64Z"/>
</mask>
<path fill-rule="evenodd" clip-rule="evenodd" d="M64 2L65 2.5H115.5L116.9 2H187C194.175 2 200.369 6.1976 203.261 12.2709L202.045 12.8154L204.021 14.1305C204.058 14.2364 204.093 14.3428 204.128 14.4497L201.197 15.442L204.936 18.476C204.979 18.9784 205 19.4867 205 20C205 29.9411 196.941 38 187 38H175.663L175.408 36.6113L173.49 38H18C9.95736 38 3.14671 32.7253 0.838721 25.4465L1.65608 23.7403L0.388716 23.7383C0.133986 22.5324 0 21.2818 0 20C0 10.0589 8.05887 2 18 2H49.1798L49.7819 2.94308L50.2257 2H64Z" fill="black"/>
<path d="M65 2.5L64.5528 3.39443L64.7639 3.5H65V2.5ZM64 2L64.4472 1.10557L64.2361 1H64V2ZM115.5 2.5V3.5H115.673L115.836 3.44174L115.5 2.5ZM116.9 2V1H116.727L116.564 1.05826L116.9 2ZM203.261 12.2709L203.669 13.1836L204.604 12.7653L204.164 11.841L203.261 12.2709ZM202.045 12.8154L201.636 11.9027L199.981 12.6437L201.491 13.648L202.045 12.8154ZM204.021 14.1305L204.967 13.8045L204.857 13.4851L204.575 13.2979L204.021 14.1305ZM204.128 14.4497L204.449 15.3969L205.383 15.0804L205.079 14.1416L204.128 14.4497ZM201.197 15.442L200.876 14.4948L199.159 15.0762L200.567 16.2186L201.197 15.442ZM204.936 18.476L205.933 18.3924L205.897 17.9678L205.566 17.6994L204.936 18.476ZM175.663 38L174.679 38.1804L174.83 39H175.663V38ZM175.408 36.6113L176.392 36.4309L176.106 34.8717L174.822 35.8013L175.408 36.6113ZM173.49 38V39H173.814L174.076 38.81L173.49 38ZM0.838721 25.4465L-0.0631397 25.0145L-0.234145 25.3715L-0.114506 25.7488L0.838721 25.4465ZM1.65608 23.7403L2.55794 24.1723L3.24278 22.7427L1.6576 22.7403L1.65608 23.7403ZM0.388716 23.7383L-0.589697 23.945L-0.422387 24.7371L0.387197 24.7383L0.388716 23.7383ZM49.1798 2L50.0227 1.4619L49.7278 1H49.1798V2ZM49.7819 2.94308L48.939 3.48118L49.9147 5.00948L50.6867 3.36886L49.7819 2.94308ZM50.2257 2V1H49.5911L49.3208 1.57421L50.2257 2ZM65.4472 1.60557L64.4472 1.10557L63.5528 2.89443L64.5528 3.39443L65.4472 1.60557ZM115.5 1.5H65V3.5H115.5V1.5ZM116.564 1.05826L115.164 1.55826L115.836 3.44174L117.236 2.94174L116.564 1.05826ZM187 1H116.9V3H187V1ZM204.164 11.841C201.112 5.4326 194.575 1 187 1V3C193.775 3 199.626 6.9626 202.358 12.7008L204.164 11.841ZM202.453 13.7281L203.669 13.1836L202.852 11.3582L201.636 11.9027L202.453 13.7281ZM204.575 13.2979L202.598 11.9829L201.491 13.648L203.467 14.9631L204.575 13.2979ZM205.079 14.1416C205.043 14.0288 205.005 13.9164 204.967 13.8045L203.076 14.4565C203.11 14.5565 203.144 14.6569 203.177 14.7577L205.079 14.1416ZM201.517 16.3892L204.449 15.3969L203.807 13.5025L200.876 14.4948L201.517 16.3892ZM205.566 17.6994L201.827 14.6654L200.567 16.2186L204.306 19.2525L205.566 17.6994ZM206 20C206 19.4588 205.977 18.9226 205.933 18.3924L203.94 18.5595C203.98 19.0342 204 19.5146 204 20H206ZM187 39C197.493 39 206 30.4934 206 20H204C204 29.3888 196.389 37 187 37V39ZM175.663 39H187V37H175.663V39ZM174.424 36.7917L174.679 38.1804L176.646 37.8196L176.392 36.4309L174.424 36.7917ZM174.076 38.81L175.994 37.4213L174.822 35.8013L172.903 37.19L174.076 38.81ZM18 39H173.49V37H18V39ZM-0.114506 25.7488C2.3214 33.431 9.50903 39 18 39V37C10.4057 37 3.97201 32.0196 1.79195 25.1443L-0.114506 25.7488ZM0.754218 23.3082L-0.0631397 25.0145L1.74058 25.8785L2.55794 24.1723L0.754218 23.3082ZM0.387197 24.7383L1.65456 24.7403L1.6576 22.7403L0.390234 22.7383L0.387197 24.7383ZM-1 20C-1 21.3517 -0.858693 22.6715 -0.589697 23.945L1.36713 23.5317C1.12666 22.3932 1 21.212 1 20H-1ZM18 1C7.50659 1 -1 9.50659 -1 20H1C1 10.6112 8.61116 3 18 3V1ZM49.1798 1H18V3H49.1798V1ZM50.6248 2.40498L50.0227 1.4619L48.3369 2.5381L48.939 3.48118L50.6248 2.40498ZM49.3208 1.57421L48.8771 2.51729L50.6867 3.36886L51.1305 2.42579L49.3208 1.57421ZM64 1H50.2257V3H64V1Z" fill="black" mask="url(#path-1-inside-1_2_7206)"/>
<mask id="path-3-inside-2_2_7206" fill="white">
<path fill-rule="evenodd" clip-rule="evenodd" d="M65 0L66 0.5H116.5L117.9 0H188C195.175 0 201.369 4.1976 204.261 10.2709L203.045 10.8154L205.021 12.1305C205.058 12.2364 205.093 12.3428 205.128 12.4497L202.197 13.442L205.936 16.476C205.979 16.9784 206 17.4867 206 18C206 27.9411 197.941 36 188 36H176.663L176.408 34.6113L174.49 36H19C10.9574 36 4.14671 30.7253 1.83872 23.4465L2.65608 21.7403L1.38872 21.7383C1.13399 20.5324 1 19.2818 1 18C1 8.05888 9.05887 0 19 0H50.1798L50.7819 0.943077L51.2257 0H65Z"/>
</mask>
<path fill-rule="evenodd" clip-rule="evenodd" d="M65 0L66 0.5H116.5L117.9 0H188C195.175 0 201.369 4.1976 204.261 10.2709L203.045 10.8154L205.021 12.1305C205.058 12.2364 205.093 12.3428 205.128 12.4497L202.197 13.442L205.936 16.476C205.979 16.9784 206 17.4867 206 18C206 27.9411 197.941 36 188 36H176.663L176.408 34.6113L174.49 36H19C10.9574 36 4.14671 30.7253 1.83872 23.4465L2.65608 21.7403L1.38872 21.7383C1.13399 20.5324 1 19.2818 1 18C1 8.05888 9.05887 0 19 0H50.1798L50.7819 0.943077L51.2257 0H65Z" fill="white"/>
<path d="M66 0.5L65.5528 1.39443L65.7639 1.5H66V0.5ZM65 0L65.4472 -0.894427L65.2361 -1H65V0ZM116.5 0.5V1.5H116.673L116.836 1.44174L116.5 0.5ZM117.9 0V-1H117.727L117.564 -0.941742L117.9 0ZM204.261 10.2709L204.669 11.1836L205.604 10.7653L205.164 9.841L204.261 10.2709ZM203.045 10.8154L202.636 9.90274L200.981 10.6437L202.491 11.648L203.045 10.8154ZM205.021 12.1305L205.967 11.8045L205.857 11.4851L205.575 11.2979L205.021 12.1305ZM205.128 12.4497L205.449 13.3969L206.383 13.0804L206.079 12.1416L205.128 12.4497ZM202.197 13.442L201.876 12.4948L200.159 13.0762L201.567 14.2186L202.197 13.442ZM205.936 16.476L206.933 16.3924L206.897 15.9678L206.566 15.6994L205.936 16.476ZM176.663 36L175.679 36.1804L175.83 37H176.663V36ZM176.408 34.6113L177.392 34.4309L177.106 32.8717L175.822 33.8013L176.408 34.6113ZM174.49 36V37H174.814L175.076 36.81L174.49 36ZM1.83872 23.4465L0.93686 23.0145L0.765855 23.3715L0.885494 23.7488L1.83872 23.4465ZM2.65608 21.7403L3.55794 22.1723L4.24278 20.7427L2.6576 20.7403L2.65608 21.7403ZM1.38872 21.7383L0.410303 21.945L0.577613 22.7371L1.3872 22.7383L1.38872 21.7383ZM50.1798 0L51.0227 -0.538098L50.7278 -1H50.1798V0ZM50.7819 0.943077L49.939 1.48118L50.9147 3.00948L51.6867 1.36886L50.7819 0.943077ZM51.2257 0V-1H50.5911L50.3208 -0.425786L51.2257 0ZM66.4472 -0.394427L65.4472 -0.894427L64.5528 0.894427L65.5528 1.39443L66.4472 -0.394427ZM116.5 -0.5H66V1.5H116.5V-0.5ZM117.564 -0.941742L116.164 -0.441742L116.836 1.44174L118.236 0.941742L117.564 -0.941742ZM188 -1H117.9V1H188V-1ZM205.164 9.841C202.112 3.4326 195.575 -1 188 -1V1C194.775 1 200.626 4.9626 203.358 10.7008L205.164 9.841ZM203.453 11.7281L204.669 11.1836L203.852 9.35822L202.636 9.90274L203.453 11.7281ZM205.575 11.2979L203.598 9.98285L202.491 11.648L204.467 12.9631L205.575 11.2979ZM206.079 12.1416C206.043 12.0288 206.005 11.9164 205.967 11.8045L204.076 12.4565C204.11 12.5565 204.144 12.6569 204.177 12.7577L206.079 12.1416ZM202.517 14.3892L205.449 13.3969L204.807 11.5025L201.876 12.4948L202.517 14.3892ZM206.566 15.6994L202.827 12.6654L201.567 14.2186L205.306 17.2525L206.566 15.6994ZM207 18C207 17.4588 206.977 16.9226 206.933 16.3924L204.94 16.5595C204.98 17.0342 205 17.5146 205 18H207ZM188 37C198.493 37 207 28.4934 207 18H205C205 27.3888 197.389 35 188 35V37ZM176.663 37H188V35H176.663V37ZM175.424 34.7917L175.679 36.1804L177.646 35.8196L177.392 34.4309L175.424 34.7917ZM175.076 36.81L176.994 35.4213L175.822 33.8013L173.903 35.19L175.076 36.81ZM19 37H174.49V35H19V37ZM0.885494 23.7488C3.3214 31.431 10.509 37 19 37V35C11.4057 35 4.97201 30.0196 2.79195 23.1443L0.885494 23.7488ZM1.75422 21.3082L0.93686 23.0145L2.74058 23.8785L3.55794 22.1723L1.75422 21.3082ZM1.3872 22.7383L2.65456 22.7403L2.6576 20.7403L1.39023 20.7383L1.3872 22.7383ZM0 18C0 19.3517 0.141307 20.6715 0.410303 21.945L2.36713 21.5317C2.12666 20.3932 2 19.212 2 18H0ZM19 -1C8.50659 -1 0 7.50659 0 18H2C2 8.61116 9.61116 1 19 1V-1ZM50.1798 -1H19V1H50.1798V-1ZM51.6248 0.40498L51.0227 -0.538098L49.3369 0.538098L49.939 1.48118L51.6248 0.40498ZM50.3208 -0.425786L49.8771 0.517292L51.6867 1.36886L52.1305 0.425786L50.3208 -0.425786ZM65 -1H51.2257V1H65V-1Z" fill="#441A0E" mask="url(#path-3-inside-2_2_7206)"/>
</svg>
