<svg xmlns="http://www.w3.org/2000/svg" fill="none" viewBox="0 0 26 20"><path fill="#231F20" fill-rule="evenodd" d="M12.696 14.192c3.179-.152 6.21.423 6.262 1.518.053 1.095-3.079 1.965-6.257 2.117-3.178.152-5.716-.675-5.754-1.467-.038-.793 2.571-2.017 5.75-2.168ZM4.69 16.532c-1.838.087-3.855 2.11-3.08 1.993.26-.038.667-.292.914-.393 1.068-.442 2.066-.73 3.498-1.068.601-.145-1.02-.547-1.332-.532ZM20.052 14.56c1.688-.534 3.451.276 2.748.539-.259.098-.68.056-.929.084-.589.065-1.153.162-1.774.303l-.045-.926Z" clip-rule="evenodd"/><path fill="#231F20" fill-rule="evenodd" d="M18.114 17.377c1.566-.506 1.831-1.408 1.528-2.012-.285-.57-1.339-.948-2.175-1.113-.039-.007-.066-.034-.065-.066 0-.033.027-.062.066-.069.649-.142 1.474-.059 2.097.092 1.739.424 2.72 1.285 1.35 2.515-.32.289-1.33.857-2.778.79-.04-.002-.073-.026-.08-.061-.004-.034.019-.066.057-.076ZM7.844 17.689c-1.606-.353-1.956-1.227-1.713-1.857.23-.597 1.244-1.072 2.06-1.315.038-.01.062-.041.058-.074-.004-.032-.033-.057-.072-.062-.66-.078-1.473.083-2.078.295-1.691.585-2.585 1.535-1.105 2.629.347.257 1.406.728 2.84.522.042-.007.072-.034.074-.067.002-.034-.024-.063-.064-.071Z" clip-rule="evenodd"/><path fill="#231F20" fill-rule="evenodd" d="m8.59 16.595 4.004-10.226 7.52 2.076-3.18 8.2-.544.16c-1.746.508-5.095.684-6.8.121l-1-.331Z" clip-rule="evenodd"/><path fill="#999" fill-rule="evenodd" d="M10.083 15.534 13.315 5.8 18.7 7.56l-2.586 7.865c-1.735.573-4.768.602-6.032.11Z" clip-rule="evenodd"/><path fill="#647883" fill-rule="evenodd" d="M11.398 11.573 13.315 5.8 18.7 7.56l-2.586 7.865c-.302.1-.643.182-1.006.25-.224-1.203-.65-2.29-1.325-2.982-.516-.53-1.494-.877-2.386-1.12Z" clip-rule="evenodd"/><path fill="#231F20" fill-rule="evenodd" d="M10.095 15.486c.48.232 1.324.631 1.87.784.125.034.59.082.586-.202-.005-.338-1.302-1.105-1.49-1.237-.149-.103-.761-.577-.746-.465l-.22 1.12Zm.43-1.806.222-1.122c-.018-.112.597.362.746.465.187.131 1.484.899 1.489 1.239.005.283-.461.24-.586.201-.544-.153-1.39-.552-1.87-.783Zm.561-2.03c.48.231 1.326.63 1.87.785.125.034.591.08.587-.203-.004-.339-1.302-1.106-1.49-1.238-.149-.104-.762-.576-.745-.465l-.222 1.12ZM16.524 15.382c-.554.047-.862.074-1.436.033-.131-.012-.578-.129-.433-.386.175-.307 1.08-.518 1.316-.572.187-.046.983-.268.912-.171l-.36 1.096Zm.503-2.04c-.554.048-.86.077-1.435.032-.131-.01-.579-.126-.432-.383.173-.307 1.078-.518 1.314-.572.188-.045.984-.269.913-.173l-.36 1.096ZM9.922 17.187c-.697.527-1.976 2.238-1.245 1.938.666-.274 1.83-1.111 2.15-1.681.164-.296-.902-.255-.905-.257ZM11.817 17.425c-.223.335-.342 1.423-.012 1.233.302-.173.69-.704.664-1.07-.014-.186-.65-.163-.652-.163Z" clip-rule="evenodd"/><path fill="#231F20" fill-rule="evenodd" d="M17.429 1.24c-4.748-.985-8.024.486-8.902 2.67l.003-.01c-.419 1.173-1.214 2.785-1.136 3.94.257 3.756 5.752 5.809 8.961 6.11 2.327.217 6.152-.133 7.276-2.702.376-1.034.959-2.205 1.148-3.303.642-3.722-4.416-6.094-7.35-6.705Z" clip-rule="evenodd"/><path fill="#999" fill-rule="evenodd" d="M17.348 2.42c3.958.933 6.824 3.431 6.4 5.583-.422 2.152-3.974 3.142-7.932 2.21-3.957-.93-6.823-3.43-6.4-5.582.423-2.154 3.974-3.143 7.932-2.211Z" clip-rule="evenodd"/><path fill="#636363" fill-rule="evenodd" d="M17.672 2.916c3.444.81 5.94 2.987 5.57 4.86-.337 1.72-2.97 2.585-6.064 2.087 4.355-1.83 2.883-5.46-.883-7.187.449.05.91.13 1.377.24Z" clip-rule="evenodd"/><path fill="#44555F" fill-rule="evenodd" d="M8.694 7.088c1.283 2.616 4.845 4.087 7.272 4.59 2.038.422 4.782.5 6.855-.514-1.22 1.71-4.349 1.9-6.113 1.735-2.505-.236-7.83-1.957-8.056-5.246a2.429 2.429 0 0 1 .042-.565Z" clip-rule="evenodd"/><path fill="#231F20" fill-rule="evenodd" d="M14.705 7.59a87.946 87.946 0 0 1 2.967 2.925c-.355-.031-.717-.079-1.084-.144a94.515 94.515 0 0 1-2.422-2.203c-1.729-1.63-3.25-3.183-4.36-4.42a2.5 2.5 0 0 1 .214-.259c1.305 1.035 2.947 2.466 4.685 4.101Z" clip-rule="evenodd"/><path fill="#231F20" fill-rule="evenodd" d="M18.215 8.385c2.002-.847 3.873-1.524 5.31-1.94.049.105.09.212.126.319-1.264.722-3.015 1.58-4.997 2.418-.934.396-1.84.753-2.687 1.065l-.152-.034a13.31 13.31 0 0 1-.982-.27 57.375 57.375 0 0 1 3.382-1.558Z" clip-rule="evenodd"/><path fill="#231F20" fill-rule="evenodd" d="M16.174 6.022c1.712 1.614 3.22 3.15 4.328 4.382-.15.028-.302.053-.459.075-1.256-1.015-2.791-2.36-4.407-3.883a80.367 80.367 0 0 1-4.05-4.077c.15-.054.303-.105.464-.15 1.201.985 2.628 2.243 4.124 3.653Z" clip-rule="evenodd"/><path fill="#231F20" fill-rule="evenodd" d="M17.018 6.212c1.763-.746 3.424-1.36 4.777-1.78.134.102.263.206.385.313-1.238.687-2.88 1.483-4.722 2.266-1.891.8-3.667 1.448-5.07 1.868a10.673 10.673 0 0 1-.386-.236c1.265-.726 3.024-1.587 5.016-2.431Z" clip-rule="evenodd"/><path fill="#231F20" fill-rule="evenodd" d="M17.643 4.451c2.08 1.962 3.859 3.806 4.982 5.132l-.133.09c-1.388-1.044-3.323-2.702-5.387-4.648a86.317 86.317 0 0 1-2.992-2.95c.3-.009.608-.007.924.01a89.129 89.129 0 0 1 2.606 2.366Z" clip-rule="evenodd"/><path fill="#231F20" fill-rule="evenodd" d="M15.822 4.037a62.404 62.404 0 0 1 3.004-1.18c.317.114.623.238.918.368a56.477 56.477 0 0 1-3.483 1.61c-2.406 1.019-4.625 1.79-6.126 2.164l-.065-.088c1.265-.802 3.338-1.85 5.752-2.874Z" clip-rule="evenodd"/><path fill="#231F20" fill-rule="evenodd" d="M19.26 3.02c1.836 1.739 3.428 3.38 4.527 4.636a2.395 2.395 0 0 1-.029.291c-1.37-1.049-3.218-2.638-5.184-4.49-.354-.335-.7-.666-1.034-.991.602.152 1.178.338 1.72.555ZM16.142 2.192c-.351.156-.71.313-1.08.47-2.167.917-4.183 1.633-5.659 2.04l.013-.073c.017-.09.042-.177.07-.264 1.171-.68 2.797-1.488 4.651-2.29.636-.02 1.309.018 2.005.117Z" clip-rule="evenodd"/><path fill="#999" fill-rule="evenodd" d="M11.213 10.065a12.66 12.66 0 0 0 1.842.951c1.318.556 1.786 1.553 1.164 1.365-2.345-.707-6.016-2.53-5.525-5.293.56 1.141 1.376 2.258 2.519 2.977Z" clip-rule="evenodd"/></svg>
