<svg xmlns="http://www.w3.org/2000/svg" fill="none" viewBox="0 0 26 22"><path fill="#231F20" fill-rule="evenodd" d="M12.696 16.192c3.178-.152 6.21.423 6.262 1.518.052 1.095-3.08 1.965-6.257 2.117-3.179.152-5.717-.675-5.755-1.467-.038-.793 2.572-2.017 5.75-2.168ZM4.69 18.532c-1.838.087-3.855 2.11-3.08 1.993.26-.038.667-.292.913-.393 1.069-.442 2.067-.73 3.499-1.068.601-.145-1.02-.547-1.333-.532ZM20.052 16.56c1.688-.534 3.451.277 2.748.539-.259.098-.68.057-.929.084-.589.065-1.153.163-1.774.303l-.045-.926Z" clip-rule="evenodd"/><path fill="#231F20" fill-rule="evenodd" d="M18.114 19.377c1.565-.506 1.831-1.408 1.528-2.012-.285-.57-1.339-.948-2.176-1.113-.038-.007-.065-.034-.064-.066 0-.033.026-.062.066-.069.649-.142 1.474-.059 2.097.092 1.739.424 2.719 1.285 1.35 2.515-.32.289-1.33.857-2.778.79-.041-.002-.073-.026-.08-.061-.004-.034.019-.066.057-.076ZM7.844 19.689c-1.606-.353-1.957-1.227-1.713-1.857.23-.597 1.243-1.072 2.06-1.315.038-.01.062-.041.058-.073-.004-.033-.033-.057-.073-.062-.659-.079-1.472.082-2.078.294-1.69.585-2.584 1.535-1.105 2.629.348.257 1.406.728 2.841.522.041-.007.071-.034.074-.067.002-.034-.025-.063-.064-.071Z" clip-rule="evenodd"/><path fill="#231F20" fill-rule="evenodd" d="m8.667 18.2 3.927-11.83 7.538 2.464-3.119 9.489-.542.18c-1.743.576-5.092.755-6.8.089L8.666 18.2Z" clip-rule="evenodd"/><path fill="#999" fill-rule="evenodd" d="M10.083 17.535 13.314 7.8 18.7 9.56l-2.586 7.866c-1.735.573-4.767.602-6.031.109Z" clip-rule="evenodd"/><path fill="#647883" fill-rule="evenodd" d="M11.397 13.573 13.314 7.8 18.7 9.56l-2.586 7.866c-.301.1-.642.181-1.006.248-.223-1.202-.649-2.289-1.324-2.981-.516-.53-1.494-.876-2.387-1.12Z" clip-rule="evenodd"/><path fill="#231F20" fill-rule="evenodd" d="M10.094 17.486c.48.232 1.325.631 1.87.784.126.034.59.082.587-.202-.005-.338-1.302-1.104-1.49-1.237-.149-.103-.762-.577-.746-.465l-.22 1.12Zm.431-1.806.222-1.122c-.018-.111.597.363.746.465.187.132 1.484.899 1.489 1.239.005.283-.461.24-.587.202-.543-.154-1.389-.553-1.87-.783Zm.561-2.03c.48.232 1.325.63 1.87.785.125.035.591.08.587-.203-.004-.339-1.302-1.106-1.49-1.237-.149-.104-.762-.576-.745-.466l-.222 1.121ZM16.523 17.382c-.554.047-.862.074-1.435.033-.131-.012-.579-.129-.433-.386.174-.307 1.079-.518 1.315-.572.188-.046.983-.268.912-.171l-.359 1.096Zm.504-2.04c-.554.048-.861.077-1.435.032-.132-.01-.58-.126-.433-.383.173-.307 1.079-.517 1.315-.572.188-.045.984-.269.913-.173l-.36 1.096ZM9.922 19.187c-.698.528-1.976 2.238-1.245 1.938.665-.273 1.83-1.111 2.15-1.681.163-.296-.902-.255-.905-.257ZM11.816 19.425c-.222.335-.341 1.423-.011 1.233.302-.172.69-.704.664-1.069-.014-.187-.65-.164-.652-.164Z" clip-rule="evenodd"/><path fill="#231F20" fill-rule="evenodd" d="M17.428 1.24c-4.747-.985-8.023.486-8.901 2.67l.003-.01c-.42 1.173-1.215 2.785-1.136 3.941.256 3.755 5.751 5.808 8.961 6.109 2.326.217 6.152-.133 7.275-2.702.377-1.034.96-2.205 1.149-3.303.642-3.721-4.417-6.093-7.35-6.705Z" clip-rule="evenodd"/><path fill="#999" fill-rule="evenodd" d="M17.348 2.42c3.958.933 6.823 3.431 6.4 5.583-.423 2.152-3.974 3.142-7.932 2.21-3.958-.93-6.823-3.43-6.4-5.582.422-2.154 3.974-3.143 7.932-2.211Z" clip-rule="evenodd"/><path fill="#636363" fill-rule="evenodd" d="M17.672 2.916c3.444.81 5.939 2.986 5.57 4.859-.338 1.72-2.97 2.585-6.064 2.088 4.354-1.83 2.883-5.46-.883-7.187.448.05.91.129 1.377.24Z" clip-rule="evenodd"/><path fill="#44555F" fill-rule="evenodd" d="M8.694 7.089c1.283 2.615 4.845 4.086 7.272 4.589 2.037.423 4.782.501 6.854-.514-1.22 1.71-4.348 1.9-6.112 1.735-2.505-.236-7.831-1.957-8.056-5.246a2.43 2.43 0 0 1 .042-.564Z" clip-rule="evenodd"/><path fill="#231F20" fill-rule="evenodd" d="M14.705 7.59a87.915 87.915 0 0 1 2.967 2.926c-.355-.032-.717-.08-1.084-.145a94.4 94.4 0 0 1-2.422-2.203c-1.729-1.63-3.251-3.182-4.36-4.42.065-.091.137-.177.214-.259 1.305 1.035 2.947 2.466 4.685 4.101Z" clip-rule="evenodd"/><path fill="#231F20" fill-rule="evenodd" d="M18.215 8.385c2.002-.847 3.873-1.523 5.31-1.94.049.106.09.212.126.319-1.264.722-3.015 1.58-4.997 2.419-.934.395-1.84.752-2.687 1.065l-.152-.034c-.336-.079-.664-.17-.982-.27a57.375 57.375 0 0 1 3.382-1.56Z" clip-rule="evenodd"/><path fill="#231F20" fill-rule="evenodd" d="M16.174 6.022c1.712 1.614 3.22 3.15 4.328 4.383-.15.027-.303.052-.459.074-1.256-1.015-2.791-2.36-4.407-3.882a80.41 80.41 0 0 1-4.05-4.078c.149-.054.303-.104.464-.15 1.201.985 2.627 2.243 4.123 3.653Z" clip-rule="evenodd"/><path fill="#231F20" fill-rule="evenodd" d="M17.018 6.212c1.763-.745 3.424-1.36 4.777-1.78.134.102.263.206.385.313-1.238.688-2.88 1.483-4.722 2.266-1.891.8-3.667 1.448-5.07 1.868a10.775 10.775 0 0 1-.387-.236c1.266-.725 3.025-1.587 5.017-2.431Z" clip-rule="evenodd"/><path fill="#231F20" fill-rule="evenodd" d="M17.643 4.452c2.08 1.961 3.859 3.805 4.982 5.132-.043.03-.087.059-.133.089-1.388-1.043-3.323-2.701-5.386-4.648a86.325 86.325 0 0 1-2.993-2.95c.3-.009.608-.006.924.01a89.129 89.129 0 0 1 2.606 2.367Z" clip-rule="evenodd"/><path fill="#231F20" fill-rule="evenodd" d="M15.822 4.038a62.445 62.445 0 0 1 3.004-1.181c.317.115.623.238.918.369a56.445 56.445 0 0 1-3.483 1.609c-2.406 1.02-4.625 1.79-6.126 2.164l-.066-.088c1.266-.801 3.339-1.85 5.753-2.873Z" clip-rule="evenodd"/><path fill="#231F20" fill-rule="evenodd" d="M19.26 3.021c1.836 1.738 3.428 3.38 4.527 4.635a2.415 2.415 0 0 1-.029.291c-1.37-1.048-3.218-2.638-5.184-4.49-.354-.334-.7-.666-1.034-.991a13.57 13.57 0 0 1 1.72.555ZM16.142 2.193c-.352.156-.71.312-1.08.47-2.168.916-4.183 1.633-5.659 2.04a2.343 2.343 0 0 1 .082-.336c1.172-.68 2.798-1.49 4.652-2.292.636-.019 1.309.019 2.005.118Z" clip-rule="evenodd"/><path fill="#999" fill-rule="evenodd" d="M11.212 10.066c.588.371 1.215.686 1.843.95 1.318.556 1.786 1.554 1.164 1.365-2.345-.707-6.016-2.53-5.525-5.292.56 1.14 1.376 2.257 2.518 2.977Z" clip-rule="evenodd"/></svg>
