<svg xmlns="http://www.w3.org/2000/svg" fill="none" viewBox="0 0 20 22"><path fill="#231F20" fill-rule="evenodd" d="M13.304 16.192c-3.178-.152-6.21.423-6.262 1.518-.052 1.095 3.08 1.965 6.258 2.117 3.178.152 5.716-.675 5.754-1.467.038-.793-2.572-2.017-5.75-2.168ZM5.948 16.56c-1.688-.534-3.451.276-2.748.539.259.098.68.056.929.084.589.065 1.153.162 1.774.303l.045-.926Z" clip-rule="evenodd"/><path fill="#231F20" fill-rule="evenodd" d="M7.886 19.377c-1.565-.506-1.831-1.408-1.528-2.012.285-.57 1.339-.948 2.175-1.113.039-.007.066-.034.065-.066 0-.033-.027-.062-.066-.069-.649-.142-1.474-.059-2.097.092-1.739.424-2.72 1.285-1.35 2.515.32.289 1.33.857 2.778.79.04-.002.073-.026.08-.061.004-.034-.019-.066-.057-.076Z" clip-rule="evenodd"/><path fill="#231F20" fill-rule="evenodd" d="M17.333 18.2 13.407 6.37 5.867 8.834l3.119 9.489.542.18c1.743.576 5.092.755 6.801.089l1.003-.392Z" clip-rule="evenodd"/><path fill="#999" fill-rule="evenodd" d="M15.917 17.535 12.686 7.8 7.3 9.56l2.586 7.866c1.735.573 4.767.602 6.031.109Z" clip-rule="evenodd"/><path fill="#647883" fill-rule="evenodd" d="M14.603 13.573 12.686 7.8 7.3 9.56l2.586 7.865c.301.1.642.182 1.006.25.224-1.203.649-2.29 1.324-2.982.517-.53 1.494-.877 2.387-1.12Z" clip-rule="evenodd"/><path fill="#231F20" fill-rule="evenodd" d="M15.905 17.486c-.48.232-1.324.631-1.87.784-.125.034-.59.082-.586-.202.005-.338 1.302-1.105 1.49-1.237.149-.103.761-.577.746-.465l.22 1.12Zm-.43-1.806-.222-1.122c.018-.112-.597.362-.746.465-.187.131-1.484.899-1.489 1.239-.005.283.461.24.586.201.544-.153 1.39-.552 1.87-.783Zm-.561-2.03c-.48.231-1.326.63-1.87.785-.125.034-.591.08-.587-.203.004-.339 1.302-1.106 1.49-1.238.149-.104.762-.576.745-.465l.222 1.12ZM9.477 17.381c.554.048.862.075 1.435.034.132-.012.579-.129.433-.386-.174-.307-1.079-.518-1.315-.572-.188-.046-.983-.268-.912-.172l.359 1.096Zm-.504-2.039c.554.048.861.077 1.435.032.132-.01.58-.126.433-.383-.173-.307-1.079-.518-1.315-.572-.187-.045-.984-.269-.913-.173l.36 1.096ZM16.078 19.187c.698.527 1.976 2.238 1.245 1.938-.665-.274-1.83-1.111-2.15-1.681-.163-.296.902-.255.905-.257ZM14.183 19.425c.223.335.342 1.423.012 1.233-.302-.173-.69-.704-.664-1.07.014-.186.65-.163.652-.163Z" clip-rule="evenodd"/><path fill="#231F20" fill-rule="evenodd" d="M8.572 1.24c4.747-.985 8.023.486 8.901 2.67l-.002-.01c.418 1.173 1.213 2.785 1.135 3.941-.256 3.755-5.751 5.808-8.961 6.109-2.327.217-6.152-.133-7.275-2.702-.377-1.034-.96-2.205-1.149-3.303-.642-3.721 4.417-6.093 7.35-6.705Z" clip-rule="evenodd"/><path fill="#999" fill-rule="evenodd" d="M8.652 2.42c-3.958.933-6.823 3.431-6.4 5.583.423 2.152 3.974 3.142 7.932 2.21 3.958-.93 6.824-3.43 6.4-5.582-.422-2.154-3.974-3.143-7.932-2.211Z" clip-rule="evenodd"/><path fill="#636363" fill-rule="evenodd" d="M8.329 2.915c-3.445.811-5.94 2.987-5.571 4.86.338 1.72 2.97 2.585 6.064 2.087-4.354-1.829-2.883-5.459.883-7.186-.448.05-.91.129-1.376.24Z" clip-rule="evenodd"/><path fill="#44555F" fill-rule="evenodd" d="M17.306 7.089c-1.283 2.615-4.845 4.086-7.272 4.589-2.038.423-4.782.501-6.855-.514 1.22 1.71 4.349 1.9 6.113 1.735 2.505-.236 7.83-1.957 8.056-5.246a2.43 2.43 0 0 0-.042-.564Z" clip-rule="evenodd"/><path fill="#231F20" fill-rule="evenodd" d="M11.295 7.59a87.975 87.975 0 0 0-2.967 2.926c.355-.032.717-.08 1.084-.145a94.503 94.503 0 0 0 2.422-2.203c1.729-1.63 3.25-3.182 4.36-4.42a2.494 2.494 0 0 0-.214-.259c-1.305 1.035-2.947 2.466-4.685 4.101Z" clip-rule="evenodd"/><path fill="#231F20" fill-rule="evenodd" d="M7.785 8.385c-2.001-.847-3.873-1.523-5.31-1.94-.049.106-.09.212-.126.319 1.264.722 3.015 1.58 4.997 2.419.934.395 1.84.752 2.687 1.065l.152-.034c.336-.079.664-.17.982-.27a57.394 57.394 0 0 0-3.382-1.56Z" clip-rule="evenodd"/><path fill="#231F20" fill-rule="evenodd" d="M9.826 6.022c-1.712 1.614-3.22 3.15-4.328 4.383.15.027.303.052.459.074 1.256-1.015 2.791-2.36 4.407-3.882a80.367 80.367 0 0 0 4.05-4.078 6.24 6.24 0 0 0-.464-.15 82.344 82.344 0 0 0-4.124 3.653Z" clip-rule="evenodd"/><path fill="#231F20" fill-rule="evenodd" d="M8.982 6.212c-1.763-.745-3.424-1.36-4.777-1.78a7.093 7.093 0 0 0-.385.313c1.237.688 2.88 1.483 4.722 2.266 1.891.8 3.667 1.448 5.07 1.868.131-.077.261-.156.386-.236-1.265-.725-3.024-1.587-5.016-2.431Z" clip-rule="evenodd"/><path fill="#231F20" fill-rule="evenodd" d="M8.357 4.451c-2.08 1.962-3.859 3.806-4.982 5.133.043.03.087.059.133.089C4.896 8.63 6.831 6.972 8.894 5.025a86.3 86.3 0 0 0 2.993-2.95c-.3-.009-.608-.007-.924.01a89.13 89.13 0 0 0-2.606 2.366Z" clip-rule="evenodd"/><path fill="#231F20" fill-rule="evenodd" d="M10.178 4.038a62.43 62.43 0 0 0-3.004-1.181c-.317.115-.623.238-.918.369A56.461 56.461 0 0 0 9.74 4.834c2.406 1.02 4.625 1.791 6.126 2.165l.065-.088c-1.265-.801-3.338-1.85-5.752-2.873Z" clip-rule="evenodd"/><path fill="#231F20" fill-rule="evenodd" d="M6.74 3.021c-1.836 1.738-3.428 3.38-4.527 4.635.004.097.013.194.029.291 1.37-1.049 3.218-2.638 5.184-4.49.354-.335.7-.666 1.034-.991-.602.152-1.178.338-1.72.555ZM9.858 2.193c.351.155.71.312 1.08.469 2.167.917 4.183 1.633 5.658 2.04a2.33 2.33 0 0 0-.082-.336c-1.171-.68-2.797-1.488-4.651-2.292-.636-.018-1.309.02-2.005.119Z" clip-rule="evenodd"/><path fill="#999" fill-rule="evenodd" d="M14.788 10.066a12.66 12.66 0 0 1-1.842.95c-1.318.556-1.786 1.554-1.165 1.365 2.346-.707 6.016-2.53 5.525-5.293-.56 1.142-1.376 2.258-2.518 2.978Z" clip-rule="evenodd"/></svg>
