<svg xmlns="http://www.w3.org/2000/svg" fill="none" viewBox="0 0 26 21"><path fill="#231F20" fill-rule="evenodd" d="M13.303 15.192c-3.178-.153-6.21.422-6.262 1.517-.053 1.095 3.078 1.966 6.256 2.118 3.179.153 5.717-.673 5.755-1.466.038-.793-2.57-2.017-5.75-2.17ZM21.309 17.534c1.837.088 3.854 2.11 3.08 1.994-.261-.038-.668-.293-.914-.394-1.069-.442-2.067-.73-3.499-1.069-.6-.145 1.02-.547 1.333-.532ZM5.946 15.559c-1.687-.534-3.45.275-2.747.538.259.098.679.057.928.084.59.065 1.154.163 1.775.304l.044-.926Z" clip-rule="evenodd"/><path fill="#231F20" fill-rule="evenodd" d="M7.884 18.376c-1.565-.506-1.83-1.408-1.528-2.013.286-.57 1.34-.947 2.176-1.112.039-.007.066-.034.065-.066 0-.033-.027-.062-.066-.069-.649-.142-1.474-.06-2.097.091-1.739.424-2.72 1.285-1.35 2.515.32.289 1.33.857 2.777.79.041-.001.073-.025.08-.06.004-.034-.019-.066-.057-.076ZM18.154 18.69c1.607-.353 1.957-1.226 1.714-1.857-.23-.596-1.243-1.071-2.06-1.315-.038-.01-.062-.041-.058-.073.004-.033.033-.058.073-.062.659-.079 1.472.083 2.078.295 1.69.585 2.584 1.535 1.104 2.629-.348.257-1.406.727-2.841.521-.041-.007-.071-.034-.074-.067-.001-.034.025-.063.064-.071Z" clip-rule="evenodd"/><path fill="#231F20" fill-rule="evenodd" d="M17.332 17.201 13.407 5.37 5.87 7.833l3.116 9.49.543.18c1.742.575 5.09.755 6.8.09l1.004-.392Z" clip-rule="evenodd"/><path fill="#999" fill-rule="evenodd" d="M15.916 16.535 12.686 6.8 7.3 8.56l2.584 7.865c1.735.573 4.768.603 6.032.11Z" clip-rule="evenodd"/><path fill="#647883" fill-rule="evenodd" d="M14.602 12.573 12.687 6.8 7.3 8.56l2.584 7.865c.302.1.643.182 1.006.249.224-1.202.65-2.29 1.326-2.982.516-.529 1.493-.875 2.386-1.119Z" clip-rule="evenodd"/><path fill="#231F20" fill-rule="evenodd" d="M15.904 16.487c-.48.232-1.324.63-1.87.783-.125.034-.59.082-.587-.202.006-.338 1.303-1.104 1.49-1.237.15-.102.763-.577.747-.465l.22 1.121Zm-.43-1.806-.221-1.122c.017-.112-.598.362-.747.464-.187.132-1.484.899-1.489 1.239-.005.283.461.24.587.202.543-.154 1.389-.553 1.87-.783Zm-.56-2.03c-.48.23-1.326.63-1.87.784-.126.035-.592.08-.588-.203.005-.339 1.303-1.106 1.49-1.237.15-.104.763-.576.746-.465l.221 1.12ZM9.475 16.38c.555.048.863.075 1.436.034.131-.012.578-.128.433-.386-.174-.307-1.079-.518-1.315-.572-.188-.045-.983-.268-.913-.171l.36 1.096Zm-.503-2.039c.554.049.861.077 1.435.032.132-.01.58-.125.433-.382-.173-.308-1.078-.518-1.315-.573-.187-.045-.983-.269-.912-.173l.36 1.096ZM16.077 18.188c.697.527 1.975 2.238 1.244 1.938-.665-.274-1.83-1.112-2.15-1.682-.163-.296.902-.254.906-.256ZM14.182 18.425c.223.335.341 1.423.011 1.234-.301-.173-.69-.704-.663-1.07.014-.187.65-.164.652-.164Z" clip-rule="evenodd"/><path fill="#231F20" fill-rule="evenodd" d="M8.574 1.24c4.748-.985 8.023.486 8.9 2.671l-.002-.01c.418 1.173 1.213 2.785 1.135 3.941-.257 3.755-5.753 5.807-8.963 6.107-2.326.217-6.151-.134-7.274-2.703-.377-1.034-.959-2.206-1.148-3.304C.58 4.221 5.64 1.85 8.574 1.24Z" clip-rule="evenodd"/><path fill="#999" fill-rule="evenodd" d="M8.654 2.419C4.695 3.35 1.83 5.849 2.252 8c.423 2.151 3.974 3.143 7.932 2.211 3.958-.93 6.824-3.429 6.401-5.58-.422-2.154-3.973-3.144-7.931-2.213Z" clip-rule="evenodd"/><path fill="#636363" fill-rule="evenodd" d="M8.33 2.915c-3.444.81-5.94 2.985-5.572 4.858.338 1.72 2.97 2.586 6.065 2.089-4.355-1.83-2.882-5.46.884-7.187-.448.05-.91.13-1.377.24Z" clip-rule="evenodd"/><path fill="#44555F" fill-rule="evenodd" d="M17.307 7.09c-1.284 2.615-4.846 4.085-7.273 4.587-2.038.422-4.782.5-6.855-.515 1.22 1.71 4.348 1.9 6.112 1.736 2.506-.235 7.832-1.955 8.058-5.244a2.43 2.43 0 0 0-.042-.565Z" clip-rule="evenodd"/><path fill="#231F20" fill-rule="evenodd" d="M11.296 7.59a87.944 87.944 0 0 0-2.967 2.925c.354-.032.716-.08 1.084-.144a94.464 94.464 0 0 0 2.422-2.203c1.729-1.63 3.251-3.182 4.361-4.42a2.495 2.495 0 0 0-.214-.258c-1.305 1.035-2.948 2.465-4.686 4.1Z" clip-rule="evenodd"/><path fill="#231F20" fill-rule="evenodd" d="M7.785 8.384c-2-.848-3.872-1.524-5.309-1.94-.049.104-.09.21-.126.318 1.264.722 3.015 1.58 4.996 2.42.934.396 1.84.753 2.687 1.065l.152-.034c.336-.078.664-.169.982-.27a57.4 57.4 0 0 0-3.382-1.56Z" clip-rule="evenodd"/><path fill="#231F20" fill-rule="evenodd" d="M9.828 6.022c-1.713 1.613-3.222 3.15-4.33 4.381.15.028.303.053.459.074 1.257-1.014 2.792-2.359 4.408-3.88a80.395 80.395 0 0 0 4.05-4.077 6.231 6.231 0 0 0-.463-.15 82.392 82.392 0 0 0-4.124 3.652Z" clip-rule="evenodd"/><path fill="#231F20" fill-rule="evenodd" d="M8.983 6.211c-1.763-.745-3.423-1.36-4.776-1.78a7.103 7.103 0 0 0-.385.312c1.237.688 2.88 1.484 4.721 2.267 1.891.8 3.667 1.449 5.069 1.87.132-.077.262-.157.387-.237-1.265-.725-3.024-1.587-5.016-2.432Z" clip-rule="evenodd"/><path fill="#231F20" fill-rule="evenodd" d="M8.358 4.45c-2.08 1.962-3.86 3.805-4.983 5.132.043.03.088.059.134.089 1.387-1.043 3.323-2.7 5.387-4.646a86.413 86.413 0 0 0 2.993-2.95c-.3-.009-.608-.007-.924.01A89.081 89.081 0 0 0 8.358 4.45Z" clip-rule="evenodd"/><path fill="#231F20" fill-rule="evenodd" d="M10.18 4.037a62.416 62.416 0 0 0-3.004-1.181c-.317.115-.623.238-.918.368a56.46 56.46 0 0 0 3.483 1.61c2.405 1.02 4.624 1.792 6.125 2.166l.065-.088c-1.264-.802-3.338-1.85-5.751-2.875Z" clip-rule="evenodd"/><path fill="#231F20" fill-rule="evenodd" d="M6.742 3.02c-1.836 1.738-3.43 3.379-4.529 4.634.005.097.014.194.03.291 1.37-1.048 3.218-2.637 5.185-4.49.354-.333.7-.665 1.034-.99-.603.152-1.178.338-1.72.555ZM9.86 2.192c.352.156.71.313 1.08.47 2.167.918 4.183 1.634 5.658 2.041l-.012-.072a2.372 2.372 0 0 0-.07-.264c-1.171-.68-2.797-1.489-4.651-2.293a11.839 11.839 0 0 0-2.005.118Z" clip-rule="evenodd"/><path fill="#999" fill-rule="evenodd" d="M14.788 10.066c-.587.372-1.215.686-1.842.95-1.319.556-1.787 1.553-1.165 1.365 2.345-.706 6.016-2.528 5.526-5.291-.56 1.14-1.376 2.257-2.52 2.976Z" clip-rule="evenodd"/></svg>
