<svg xmlns="http://www.w3.org/2000/svg" width="16" height="14" fill="none"><path fill="#4E4949" d="M10.231 7.355a3.25 3.25 0 0 0-4.47 0l-2.697 2.55c-1.546 1.405-.43 4.09 1.656 3.985 1.131-.03 2.05-.61 3.273-.588 1.267-.022 2.208.489 3.345.588 2.05.047 3.11-2.608 1.587-3.985l-2.694-2.55Zm2.732 4.877a1.739 1.739 0 0 1-1.683 1.104c-1.063-.155-1.998-.602-3.284-.586-1.286.017-2.208.552-3.345.588a1.752 1.752 0 0 1-1.206-3.035l2.693-2.537a2.705 2.705 0 0 1 3.715 0l2.694 2.55a1.734 1.734 0 0 1 .416 1.916ZM14.873 3.607c-1.054-.207-1.86.966-2.07 1.976-.63 3.127 2.401 3.723 3.11.69.29-1.3-.168-2.473-1.04-2.666Zm.502 2.547c-.59 2.346-2.484 1.932-2.034-.45.48-2.133 2.467-2.16 2.034.45ZM10.405 5.296c1.048 0 1.901-1.192 1.901-2.655-.105-3.521-3.698-3.521-3.8 0 0 1.463.853 2.655 1.899 2.655Zm0-4.758c1.78.122 1.78 4.085 0 4.206-1.78-.121-1.778-4.084 0-4.206ZM3.188 5.583c-.207-1.01-1.016-2.183-2.07-1.976-1.954.494-1.126 4.659.784 4.67 1.082-.036 1.581-1.292 1.286-2.694Zm-1.16 2.128c-1.36.204-2.11-3.176-.791-3.563.795-.077 1.242.858 1.413 1.557.215.957-.07 1.885-.621 2.006ZM5.586 5.296c1.046 0 1.899-1.192 1.899-2.655-.102-3.521-3.695-3.521-3.8 0 0 1.463.852 2.655 1.901 2.655Zm0-4.758c1.78.122 1.777 4.085 0 4.206-1.78-.121-1.78-4.084 0-4.206Z"/></svg>
